<mxfile host="app.diagrams.net" modified="2024-01-17T20:03:49.388Z" agent="Mozilla/5.0 (X11; Ubuntu; Linux x86_64; rv:121.0) Gecko/20100101 Firefox/121.0" etag="D_J4sRbSnsnQkIjePvJu" version="22.1.21" type="device">
  <diagram name="Page-1" id="4UURUv6fNhPE5xnEzwsr">
    <mxGraphModel dx="2899" dy="1123" grid="1" gridSize="10" guides="1" tooltips="1" connect="1" arrows="1" fold="1" page="1" pageScale="1" pageWidth="850" pageHeight="1100" math="0" shadow="0">
      <root>
        <mxCell id="0" />
        <mxCell id="1" parent="0" />
        <mxCell id="ZFCfkoxtxYTRv5SqpdLA-3" value="" style="shape=image;verticalLabelPosition=bottom;labelBackgroundColor=default;verticalAlign=top;aspect=fixed;imageAspect=0;image=data:image/jpeg,/9j/4AAQSkZJRgABAQAAAAAAAAD/4gIoSUNDX1BST0ZJTEUAAQEAAAIYAAAAAAIQAABtbnRyUkdCIFhZWiAAAAAAAAAAAAAAAABhY3NwAAAAAAAAAAAAAAAAAAAAAAAAAAAAAAAAAAAAAQAA9tYAAQAAAADTLQAAAAAAAAAAAAAAAAAAAAAAAAAAAAAAAAAAAAAAAAAAAAAAAAAAAAAAAAAAAAAAAAAAAAlkZXNjAAAA8AAAAHRyWFlaAAABZAAAABRnWFlaAAABeAAAABRiWFlaAAABjAAAABRyVFJDAAABoAAAAChnVFJDAAABoAAAAChiVFJDAAABoAAAACh3dHB0AAAByAAAABRjcHJ0AAAB3AAAADxtbHVjAAAAAAAAAAEAAAAMZW5VUwAAAFgAAAAcAHMAUgBHAEIAAAAAAAAAAAAAAAAAAAAAAAAAAAAAAAAAAAAAAAAAAAAAAAAAAAAAAAAAAAAAAAAAAAAAAAAAAAAAAAAAAAAAAAAAAAAAAAAAAAAAAAAAAFhZWiAAAAAAAABvogAAOPUAAAOQWFlaIAAAAAAAAGKZAAC3hQAAGNpYWVogAAAAAAAAJKAAAA+EAAC2z3BhcmEAAAAAAAQAAAACZmYAAPKnAAANWQAAE9AAAApbAAAAAAAAAABYWVogAAAAAAAA9tYAAQAAAADTLW1sdWMAAAAAAAAAAQAAAAxlblVTAAAAIAAAABwARwBvAG8AZwBsAGUAIABJAG4AYwAuACAAMgAwADEANv/bAEMAEAsMDgwKEA4NDhIREBMYKBoYFhYYMSMlHSg6Mz08OTM4N0BIXE5ARFdFNzhQbVFXX2JnaGc+TXF5cGR4XGVnY//bAEMBERISGBUYLxoaL2NCOEJjY2NjY2NjY2NjY2NjY2NjY2NjY2NjY2NjY2NjY2NjY2NjY2NjY2NjY2NjY2NjY2NjY//AABEIBDgFrgMBIgACEQEDEQH/xAAbAAADAAMBAQAAAAAAAAAAAAAAAQIDBAUGB//EAEoQAAEEAQIEBAMGBAMGBQMCBwEAAgMRBCExBRJBUQYTYXEiMoEUI0JSkaEzYrHBFXLRJENTgpLhFjREY/AHJfFUc4OissI1VZP/xAAaAQEBAQEBAQEAAAAAAAAAAAAAAQIDBAUG/8QAKBEBAQADAAMBAAIDAQACAwEAAAECAxEEEiExE0EUIlEyI0IzYXFS/9oADAMBAAIRAxEAPwDY8s9kFlb0uW/iHd5P1WB+f7/qg7JA/O0fVaHFsNmZiEBzfNZ8TDa0Tnv6KHZryOiDj6kCxThus7JCXCzZ7lYpQfNce6myCg7cPLJEHADmGhCxzNka+uagtbGmJFB1O2Vmd4JY+7CBxZWRg5PnxE0dHMuw4eyz8diZmY0fE8U22uWUdR7rWMnMNFMEj4PMERAZICHtOoP0Qdfw/miWDyHOtzflvqF2V4TGllwchpNitiF148ri845oc5rWH+Uf6IPShPlcBdFec5eMO+biVezAkcXiLvm4tL9LH90XjvmOQkhrCbW3FHKGAFhsLy8fDch5+PimWfZ5/wBVb+DkfNnZT/eROnHqPKk7Ae5VNwXS/wC/gZ/mevI/4PjH+JJM73eVQ4Nw8fgJPq4p049W/BZGLk4hiNHrItN83D43U7i2J9JAuE3hmA0/wAfdWMPDb8uNF/0p046cnE+Es34nC7/LZ/ssDuO8Ibp9uv2jctUQY/SCP/pCpsUTT8MbB/yp04ynxDwr8ORK72iKk+IcGvhjyne0X/dIADZoH0TU6cQfEMR+XCzT/wDwx/ql/jhfo3h+Vr3ACyI906cdLh0vMDoW8wB5T0W5JG2Rha7quVhP5Hh3RpXTdkQ9ZWD6q9ONNzXQTAc5a/8ACR1XRxuKE1Hlb9Hj+64vHnMmxI3wy1JFICC09Fr4nEbqLLADujwND7oj2dAtBBBadQQokibKwsdsRS4+NlS4huJ3PGd23oVv/wCK44AuKa+oFINX7PLjgxtxpXNGxDbC5XifFmyOEecY3t+zn8Q6LuHjEf4YJT7uAWCfiTZ4JIXY/wAL2kHmdaD5o8aqFlmYY5XsI+VxCxFA2yyRm2OI9FtQ5TJfhkHK7vWi0nJNNOCDfnbTWuaeYHqsBWZh58Nw6sf+yw9EEJjRBFJXSCgCeioRSHaN36LclbzQAN0IFhZoJeeIG6OxQaAxpj/uX/oqGFP0hcum0uPUq/irqg5QwMn/AIde5VDh2QejR/zLp0490tt3Ae5Qc7/DJurmD6pjhj+sjR7LedIxupkaB/mUHJgG8zP+pBqf4fW8jf0R9gZ1k/ZZ3ZeP1lH0WJ2ZjD/eE+zSgn7BEBfMSohxo5OYusAGh6qn50RY4M5rI7LFFnRRwtaY3EhBnOLD0tLyIr2WI8RZ0hP1KxniHaID6oNnyoh+FPy4xs0LU+3yXoxv1SOdKejB9EHQaGflH6KqHRo/Rco5k/RwHsEvtc//ABSPZB1wD2H6J25cY5Ep3lf+qgyPO73H6oO0b/MlztG8jR7lcXmPcopB1pHQvb8UrL72sIyBEaEgkb6Ln6dkwg6f2yAj5nD6KftsA6uP/KuenSDdOdF0a9I5zOkbvqtJCDZfmc3ytr3UNnc02FhQg2Dly9AxI5Ux6tHsFgTGyo2IpnPdT3Wsl0VqM0cCtvogyKfZUPlSKBJkWUIQFJUqRSBtC2GimrAwWVsdEGNwUq3qEElQVblBQTskU0kCQUIQY8plYsb+hcQtXot/NFcOxv8AM5aPRAuq9ZoSLHQLyfX6r1jTqDdaBQUa3DiB0tIAuvle2gLo9a//ACq1rSiAsclNb8cXMLrT0/8AyFlWxKJsccz/ACZWxurQ9Gf62sZZDFzsycSYuBa3mjoDQ26/oQtaVjGPLLexw0cNavqssEuRNMInZHwvcdXAH5tz+yAacatHzRuDdiepdoD/AMq4XEgDxKcDVrSAD6Uu87Lcx45mMkslxI0okUF57Ndz5srvb+iqML9LXYw3Ma2PzACOTr3pcaTYrrxsuOOxfwhBvtbivNOa4DmjHwkf8yRhgMRc2ZzT5bnU5vUHQfotO2Abub/2VAushslk90G/JizSPbGMlk3K9sTSXfy31/Rc7ikUsGFFK7Qy/IdNrpZmuka4GrF2CFqcYcThRXsH0B+qDlySySkGR5dW19EgVKYVG/wlhk4nA1u5sfsu+1rtWiIEyDlaSdq3XD4IWtzXuNhwjPKR0K78j4PNeYp5GAPYyMOF00j4iVjJ1x+B8gkEr2xljpAC3TYDdacYf9nABt4Z+pXRY1zyI454nB0joBzWKZvzFarsc48MEz3NDZHOa2je2iki2oJkjbI7y75WtePU9VklfFB5j3RGoJGuFdS7T+6WPFIPKaJeblD2u13J2WQHJbEPMibJWOXGh8zxsFpkgzEgeB5jm/ZJSDY0Jf8A/lVFjtgdAPtA5caR7X2fmLtv6qXzNp/n4uhx25UhGlvFafsrkfhyeaHeZGXsZmuPppoqMmPBlxDFa6QO5Hv803vd0P3CIpMwHGbLGPjkc2Q8uzdaUyQY0gm5MoNdI5mUb6M0WSXHyizKOPkNLpJGyR/FszS0GNmTQx3SYo5nzOxx0pvf9lyuIzRSPhhgiMcWNzxtBPqu1lv4gxuc+KMPAkj+z229Ov8AVcjjlN4xIxoDQ1jbA7qxMmidCUhsmdkLVcoxTdAvW+EIuThD5Oskx/bReRlNG+wXuvDsXlcDw2kauBf+pWXS/jNkm8gjsAFjVSm5pD/MpVZCEIQDvlKBoAk47JqoaSE0AhJNAISTQCSE0CTSQg5XiB9RY8IPzvLiPQLRxW8+bGK0B5isvGpPM4nydImAfqjhrbklk7ANRW8dTaEdEkApKpQUElQ4qyVicVBLisZKolQUAi6SQgoJhSFQ3QcvjktNiiHXUrlxCytjikvm5z+zfhCxQhBnYByoITGiAbQIjRKtFTlGldbQS9jnNpo1WF0UjPmbS2Y5CwkkWpkcZNOpIAQYDDIGc5aQ3usZXV4tUMccA6NC5R3QFJ0qaBSsNBAUGJCzeWFidugSKvQdUlnwYvNymN6DUqjr40flQMZWtaq3aKrskrHIVWWGQrA7ZZJDqsEh0RUHUk9UBNjbVFpCip2TGiKTq1AhuqrVIBVSDE7Mcfw/uoOW/oAtc31TAUGU5UndI5Eh/EkHAD5QkRZuqVAZHE2SSszDzNvqsHKqYSwoNmNxaVlfIJR87b9SsDTopmZbedo1G6DaZfbX33WQAHdtWuYzmGocQfdbMWVK3cc3ug2nxNkaQ8X29E8SR+DMGudzRO7dFh+35ZcGMYx19KXXwcWdzA/M5W3swBFbYpwBbqCnSvlGwGifKsqUehWR2oU1SsDTZBgI1RSyvbrsor0UVNI5VdeiVHsgnlRSqinynsgx0nSvlPZHKgikUqpLZVGpJmyYuXTm80P4gNwum10UzL0qlyuIRF7w4bFtFJjGvwxHITYG9qjZnY0hzGu5mnZabXMla5oIJbo4dkuHSF8b29GOoLncUEmHxDzYjy8wv3RHZxcuTFIAt8XUE7LrxZEc7OaN/uDuF5vDzosscujZPynqtgtA3Co7jpGNFumYPdwWF2VjN+bKh/6wvI8ViEeSK+VwsLRNdAiN7i4aOISOjILXagjZaKzv+PEZJ1aeUrAgRU7FVSlBu4J5jJH+ZlhY+99EsJ4jy4idrorYz4hDluaNjqEGsUjSZS6KCxlzsaGtIoKGZMzAeV/LZvQLG9IKjN9qyeszvopORKd5Xn6rGCkgsySO3e8+5Un1v9Uk0BQ7Jadk0igEJIVFDZSrIpg7lQNVAJKqSpAkJopAIQEIEhNAQJUki0DTU2naB2nalJBaFKaooAucGtFk7LKcTIAsx0PcLAN7G4XUgwpc+BsuPksdMPmhceU/QnQoOcWluhFLJh4z8zJbBG5rXOuiVuxxz+bymFrZGHVsn+iGSOxOJRZL4SGtPxcjdEAOCzAkeeyx0orC3arul2mZOO9/mNkFE2Cey5Plnke8D4Q42UCadEzaluisoEN0VqqARSBICZCKRFxjVZlijWVFY3qCsj1iKBFQVRO6k7oF03SQUkAUtk0igM14OFjsH4SVohbOUD5UdjfZaygfVenZkAENLbApeXXYbLqCHD9UHT8yI6HmCQLH1U4FdD+v+i0PNNLG+UHcKDpy+aZpLc2XnFl3cnUrCxzS5wc0mwQK6FaLJi06OIWwzJe11tOqDZYyMNABd137dFw8kf7XMOzl2mZhJaHxtNcuvoFwpTeTK7qXlBDwuzA0udGOblaG6lccaytHSwvQcOgfl5jMaKg6UEWToABf9kVAY54NlhoXR6hEkIYSXs2dVg9Qtj/DchgbMW8zfKa+mn8zuVoVvgiNxySvgPM2MFzDVg1Ifp3QY2RtjY3mjcWgc2/fZc7jjeWCABrmgGjY69V3IMZhNs4g2QcszqI6R/J+u65PicSQjFxpC1xI84kDq4Aqo4XVMJBMIOnwGm5sj3N5gIyK9SuxUQHxA6M5fd1rR8M4xmmzJOYAQQ+bX5iOi7jmPxpQ6XEZM3Hc2Z4D6LjKKa2vQqVuNJzIg17mO+QCtbs9Vje9joakY4tYOcD21W83yYOSPIwHB0DJIHlosOmdq2vp/VRmCP8A2L7KPhbGGS2N3Vr+6nFawGOC5znvYGuZkuNaV2/ZZo4zE9tZAqPIMklmvhdsFjicZGsbPj/xmPa4joG7BJ4xciJ/PzxfaIhM49gwoNmFuYDAySpGl72y2L+HXlCmB73jHZk4gvJZJHKeWuUC6CmRjZXTugygx05jyACa5WCrWdxzGulMUjXh87HMG9RmrVGGJ+LlCAuiex+ZC+EUfla1NkeLkMY6GdzHZOMceIHsOv7LK+eWJz3HGB5MkMjIGzXVZ/dY/PxIXFzsdzBhzmNlfzb/ANUFsgm+F2Nlsc04nkR07eQda+i4OW57syYyv5pBTXH1AXdihwoHxVM5jcGYtPMPmL9h+68/ISZpnHXmkcf3VjOSShBQtViNeY/MPovpGHH5OJjR/wDDiaP0C+dQR+fmRRdXytb+6+lSHlEh7AqN38c8G7PcppDQJoyEIQgiaRkMbpZDTGCysEXEsKUfDMNfzNIVZgD4vLc0Oa8hpB6jquZxfHw8TDMuPGWScwA+I1+io7TSHNDmODmnqE1q8KYY+F4wdfM5vMfqbW0iBCEKBpIQqBCEIBNotwSUTSCHHllOzGEoPN5D/OzcmXu8gew0W9w8cuHzH8byf7Llx2ILO5F/UrtQt5II29moqkIQUCUFUQkUEFYnbrI4rESoIKglNym9UAjZCSBgoc8Mjc47AWktbiUnlYT+7tAg4j3c8jn/AJjazR6BYGjVbDRogu0WkEIiw5t/GFbo4jqJKWFBQNzWDZ3MsvD4xJnMbWjBzFa5XR4U0MxsrJJ+UcotFaHEpvOzHk7A0tYUTdIeeZ7nHqUNQW7l0Qw/EhjbOqZHxUNfZBZ2Wu7dbFaLC8IIK6XCoqa+UjfQLm1a7uPH5WPGzsLKqMmwWKQrI40teQqjC7UrE/VZHeikCysqqFmllJwOqzkBsYHVYigmu6AmgDRQIJ0migd0HPIsdlQYQF6HI4JBNIZIpTE4myKsLCeASn/1TP8AoU6riFppJoNLuN8PO/Fl/oxZB4eh/FlSn2bSdOOCGpEdV6EeH8fYTzX01XM4fBEeImDJBpriPqnRpseNlma8DQjQr002DjSxGMxtbY3A1WgPD7fw5bvS2KdXjjmB27BzA9ButzG4Vkz0XM8tp6uXZw+Hx4rdakf+Yhbgsp041cTh+PiAFjeZ/VxGq2qJ31TAKYToA0dkcnoq1TA1UVIaOyyNbomGq2hUQ9gU8gWcjRQWoMfKEcgV0jlQQGBPlVUnSDGR6JUFlpItQYSB2SIHZZS1BYg1pYw5uy1jBE7R7OYe66PIFBhFoNPHgihBbHGGgmzS5/iODmxopgPkNH2XeEA3WDieL5/Dpoxvy2ER4cksdbTRHUdF2uFZ5y3DHmFyV8Lu64rga9VmwJvs2fDL0a4X7LSOpxuE/ZWydWur6LiONlez4pA2bCnaBry2F4zXr0RGxjAvxp4+w5gsA2WfhzgMtods8FqxPbySOb+U0gkqFakjVAA0b6hdTifxsx8j8zaK5Y3ruuprPwMd4nUg0SkhJQAjdI6mNLj2Cv7DkA2Y+UepRGXCRvKaJNWul9gynH4pWj3sqjluxnteGktF+qr7KRvI36Lpu4VK5uk7S7oOVRi4f2gOa6VzJWH4mEKK5roOUfMD9ERwh5+Yj1XaPCoS34pZHFa8mAYCeT4mlU4588DYapxcCsJodFtZgIjZoRr1WvJ3REX6LocIZBLJI2eNrg1vNqucs+MwumDC/kD9CVRnETXh0vKGtJ+Edgsb2VqBot2WPy4mxj5W7eqwhtggoNJwKilsujo0sJFEqKx0ilR3SRCISpZWjnHqpc0tOqCEJotUJCaECpNCEAhCdIFSadJ0gTQux4fxhkyTxOAIDQfYrkgL23hThb2cLOU5p55ya0/CP+6DmRzxMyJIMl5k8t3KHO1K6wwo2tsN2WeTw3jSZxynGUEuDiywGkroSRxtY7zJI2CurgEHjJYThTufEzngcbcwbs9QtjH4Vk50T34+XjmN+w6j0Kc80LXOPmt/VdFx4E9kU7OItw8nkHM6EnU11FUUHl5I5IZnwzN5ZIyWuCYW3xeSKTIEreIR5jyKLmx8hobX3Wm0goMrRYT5VcFOPL1Wcx+iDULEBq2SxSWIIY1XStrKCCEGFwWF262H6LXdugg7qSmSptAJJoQJBGiEIFmZAkxYIA3WKyT3WkskushUAE7AlQJdmXhGXGByBsg9DRXLbBK5wphq+y9q2IvfbZA5hGwRXlJIciH+JFI1YhMdqv3Xsjgc3zPJvoUf4PivH3kLXfsg8cJNdW0mH9iV6mTwzw9/yPmiPobC0pvCmQATj5McnYOBBQcdkpHzHRaz9Xk9yujk8D4njAufhvc0buZ8QXNu0RP+9afVdaOcse17CWuGxBXNDh2WRsnTVB2IuI5EYAbKSAGCj2abA/VbLeMTFpEkbHktmF+sm64HmHoVbZTW6D0bc/h88oM2NygyQ38P4Gto/quR4kdiOgwTjuuU+b5gJsgc3wj9FqjIPUUtXOkD5W12Qa43VDfTqpCpu4Qej8LtxHMl+1c1ea3zHCwAyjufel0Io43BgZmODnRSSyhzrNxu+7GvouTwTLOPw/Mi5A4TubfpWq6r8rAych75YK83LbI4cuzA2qUXrYEmZHc7zHKI/Lz36Vbnacv6LDxRzxA3AlAinjcZXOB7m91MEeLJ5bW5D2eaZTIObZoNsCx5wp2JPOTNLksp7h0v/wDCKTBIC4teCHStcOvwULVsL+dgkxg4OmdBVbRkb/ssMbYpIwxkpjdJGYGAjbl6rM4Tuimfi5DXukYwxa/l0cipaMebkaYnRumY/EBB2aLTbFDKA6DILXTYxxomkdW9f2WWZ88RnkEAe1kjPKobh3zH91LpseCRznY7mjEn5Gcp3Lxqf3RWTkzCHvx8hsjDjBjNbuQdUSTZAEnm4zXtjxhKSBvIOixxR4sLow2dzRiSujpw0Jd/+VlxYZ4zjMGRzsge8T/Fve1/qgxPfj5Bkgkx+R0mO3LeQfxDovPMdzMvvqu9nT5sPDWmWJvM8vZI+tQ29FwaoADZajnTO6CdDXZA3USGoz7KpGx4ej87xBhtPR/P+gte9yHf7PIe5XjvB8Ydxp0h/wB1C4/U6L1uUfuWDu5RutdCEIyEihCDXnNzRN9z+3/dcjxE/wC5x4W7vJNft/ddSXXKv8rP6rk548/juJDuAW/1v+yD0DGeXHHH+RoH7KkybcUkAhCEAhCFQIQhQC0ONv5OFSN6yODFvrkcff8AHjQdNXlUc6NhfLHGOpC7DtyudgjmzAejGkroIBJNJAFQ4qisbigkrE5ZCsTlBDlJCoqSUC1QjdCBhcvjcnxRxdhZXTAsrg58nm5sjhsDQQYohZWcaLHENFlQCEihENCkm0bBUB2K38sfZODxRX8UmpWpjRGfKji6Ocs/HZOfKEbflYAKUVzTvSoDRS0WVlAQSLWfHaBbuqx8qzRFosOQRJzNkJ6LA8rNKb2WudTaIy4cfm5TGna7K7Z1WhwqKg+U7nQLeOgVEPK1pDqs0jlrONklBLlkgZzOCx7rYh+GInqVFTKbOixkaq3alTSBUhV0QoJoUhOk1R6YBUAsEOdhzfw8lnsdCtxkb5aETC+/yi1hpjpHKsr4pY6EkL2f5m0lymkEUvO8bhOLxNk7NpKOncL0tFcPxTztZjaDyiSSexQdaFzZoI5W7ObayBtrz/AuIPinbiyOuJ219F6TlokKCOVOlfKnyhFY6FKWtF2s3KEBgGyBBqoBMBOkCTCdJ1oqhbpFOkEKiU6QhRSIRVKkkQIpCfVAqQWqtEWgnlRyqrTRSDdEcnN8JGh0KoJ7aoj59xGD7NnTxflca9lp7ar0HiyDkzmTAaSN191wCN1Ue54eRl8Nx5Rrzs5Xe40Xjs6LyMqWOtnFel8Jz+Zw6SAnWJ9gehXL8TQeXn+ZWjwqONG8xyNePwm1s5rf9pLxs8By1ehW3IfMwYX9W20ojXKkqkjsgxjddbhB8yLKxz+JvMFyeq3uES8mewXo8FpQa9ECjuCmFkymeVlSs7OWMIoOgsbjVeohDpYI5ANHNBXmNwvVcDubhMZG7HFpUUeS+9wsWRgPlLZYniOdmzh19Cup5LuypuO7sf0UVxYsqMO8vMBx5geo+F3sV0I8aKZnMyUPH8rrW47B85vLJFztO4LbWs7w1hPN/Z3sPdryFUrz3H2sbOI2D5AL91ySLXV4tw/7NmSwwh7w0irNrSbiZTj/AOXdXsqy1dAVcLv9ojJOzgtl3DclxsMDfcoHC8gEFxjAB7oOhOLjFdFqgLM6qp8sY7/EouBu+Qz6aq9AwDctBICxSwh4sCirM+K3/fk+zVjdl4w253fRQaj2V7hY1tvyoXH+CT7lQcmMfLjt+pQYY3AO1Kzloe31WN2SSNImD6KfPeNqCCTG4aUSgRSO2Yf0TORKfxpGaT85/VBQxpT+D9UHHeBqAPqoMjzu4/qlzHuUF+UBu8BLlaPxhRzICC/h7otvqlSKQPmHZHMFKEFcy2m8QzGRNiZlzsjbs1rzQWoEIM78qWT555Xe7ysZf3s+5UIQVzhFjsppCCg+itiKSwtVMOLTog6UbyCHDoutFyzRB7T7hedZKa0W9hZfI/ffcKjpuYAsRGqzc7XtsdVjdoVADZS7RUFDjugwPOq13blZnndYHaqiClqgpIGhJNAuqvlDYvNfow6N7uPopaA54B26rqcKfiSOnzc63DHAZjQgaOKgfC+CyZJM2SBFCxvmPBNEjsPUrK/h0RnkfjxvZAXXGH716r1EXE+DPxmtki5pKBcANytozcHy6t3ln2RXiX45Z0Use6N/wh3N6L203BMWWMyQztIAvXouBLA2I1G0ukf8oGp90GODOkjZ985ra7ldHCyPtYd5RieWi6DwCfZcfG+1QOmeJceMTtMfNLRIHWgtYQQwSta3iENAaHk6/REeljyseRxaHBrgaLXaELZbyu+Ug+xXjXlz5RMXjzB+ON1X791vQcRiaKn8xrvzNb/og9VDfmAE6Hovl8oHny8ooeY7+q9rj8SicB5eYPZ+h/dcqbw9HKXOhyCC4k66hB5vl1Xd4R4ak4rwz7XHlMjd5haGOboQK6rXm8PZsdlvLKB2NL1HhuJ+PwZkLyGSCRxLSdUHnMnwvxXHBIibM0f8N1lcyfHyMY1Pjyxn+ZpX0oPe3qfoq88ObUgDh2cLQfLw89CsUptw7r6TPwrheVZlw47P4m/CV4nxLgwcO4w/Hxr8sMa4Am6JCDkhUCpOyQKDq8PNQO13ctxruy40L3BvwuIWwyeUeo9UV1o3NJGgtbkerW9a29Fw2ZLR80dHuFtw5bRVPr3CDsMji+D7sfASRQ2J3UswomCLy3OaIo3saB/MteLLcR+Fw9Fsty2CuZrh60ilHjTxRtbFPfJjlgB2L+hQ52awEPibK1uMHnS+aQLOyeFxpsjb7Ws4J0rZReudLNARI3IxCPum5UhH5h0RLHiZDJmNmdG6cMy3EjZopdMgOBDgCCKNjookxYJQ8ujFvi8okfl7IjlcX+DGzJPtDXtzHRuiZeobWppcWtTWy6vH8WKA4TmXYZ5QF/hC5h0tbjNSNljnNMJ7q1jyDoweqJHovBUX/npiPysH9V6DLP8ADb2FrleDo+TgsknWWYn9BS6eUbnI7BRqsSEIRCTQk40EGp800h/m5VzMEef4ne/pEHH9AB/ddOLZzz1Jcud4bHmZOZOewF+5JQd0bIQhAIQkgaEIVQISTUULz3FJPO4tLR0jYGj+q9C3e+2q8qX+ZLNN+d5P0QbvDW6SyVoTyhbiw4bSzEYD+IcyyqhpJpIqXFYyshBOyxu03IHuVEQ4rC4pySxt3lYPdy1n5WOP/UR/qgykpWpa9sjQ5jg5vcItA7oItK0IFJIIoXvPQFedvmcXHqbXY4o/kwy38xpciNuqDNGKaqtDRomiAoQhAiEh6qrtI7IOhwZg+0vnO0bVzMuQy5Mrv5l14/8AZeCl+zpCSuGLJ9Sgpg1WYKGBWNEAhM7JIIeVh/uskhVYsfm5LG9AbKDrY7PKx2N9LKt2ybjqpedFRryO3WLonIbKhRVMFlZz8LaWOEUbOyuQ2UEHdFIO6EEp0mUIFXVNACNTsg3f/DOvw5rPqxZsXg/EcOQPw+J+W/8AltZ28Zj3GONPVZGcdhdo6WaL0DNFhpnjj8SSMcyTisJZWvnGrH6IwfO+WX4iNz0TjzsKUX9qa4/zHVbLHscPu3tPsUDpafF8T7XwuWMD4m/G33C3aKY1NdOqDwELy2pBu0he6xpBkYsUzfxtF+68bxPG+x8Sniqmk8zfZd3w3k8+K/Hduw2PZUdoBH0SB00BKY5jsxRTQBqpLJTsAPqkI5er69kGRCTWEfiJVUeyBJhAHoqAVCQmkSB1CCSkqLm/mCOYe/0QTRToquYdii/QoiKKdKqvomB3UVFFOldIpBIaildIpBICdaKg1UGojh+KMfzeFiQD4onX9F407r6VlY4yMSWE/iaQvm72FjnNO7TSqOv4UmEfFjE46TMLfqun4px+fCbK0axnVeZwpzjZkGQDXlvBPsvd8WgbkcPna3UFvMFR87Iqx3W1i3JjTxdWjnC13CiQdws/Dn8uY1p2eC0/VEYtwhU9pY4sO7SQp2QZsfh0+VZi5AB+Z1Lai4NlxPa/zYBykHV60A9zR8LiPYqHOcdS9x9yg6XG2gcQc4VTmg6LnreygZuH4+R2HIfotBBS6fC+NzcNgkija0se7m+IWQVy0ig7zvFGWdnAezQsMniLOd/vnj2NLjWi0V0n8azH7zPP/MViOfM6yXuJ97WkhBsHNnuxIQp+1zneaT9VhKlEZHSvP43H3KkvcdyVKEAjTshCBITpFehQJCrkd0a79E/Kf1af0QQhWIykW6WqJQhCAQhCgFljaC1Yls4jOfnHUCwgXIE/KtXy0qBFIMBiUlhC2QgtBQanKilslikxoMCFlMaRjKDGkrLEciCEUq5UqQANKg6jYU0hBtRZkkY3KzDibvxAFc9CqOq3iTCNQAmc2J2xpcrlPYpcqDoulYdnaKC9vcLRqkWitzmHdSXtHVa3MaSslRGz5gCh85A+FYeVxOioR6aoKjldySEnpS7vCmYrsR8UrQZXMBY4n5Ta8+CAx/uF2MLEdIzmc/kGgGiK6Bw5WbU4eigiWP8AMFhc3LxrcyQvaO3+icXFDJpI0Ed0VuwZpx4jLM8gDYE7rd4PxdkYyJJWNL3gnnPRvQBaOFmQQ8UYZIWyNMbgwPFtDuhP7rjSzGMyMYRRNGuyAyMj7RK551HNYHZYy/Tb9ljja6aVkUdcz3BovZdybgeLjyyROmdM5unO00CfRBxhKQdFkbkvH4isWXAcWcsGrD8pKw86I3RkEuaXBpHXRbDZ4wfhL4/8ppcvnsLIJDSDsxZsrR8GS4js/VZxnz/iZHJ7aLhNkKyNlPchUd+PiZj3ZIz2NhbkXGYD/ENjroV5tuRI3Z5tZftziOWWONw/MBRQeuxpsfMHNjvBI3HULxXiyz4hygT8oaP/AOULZxcx2LmMlhNs6+3Zc/j07crjWVMz5XuFfoFBzDspHoqeKSbsUH0XhOFgS+H8FmTiRPcY7Li3U2e6ibwvwubWJ8mOezTY/RbuA0N4XgtI2x2f0Wah2RXnJvCGQ2zjZMUo6Bw5SudkcF4hig+biOI7s1H7L2dVqHEKvNeBobQfPSPLNOBYex0WVmRMz5Hml7iXyZ21kY8bx6gLkcY4bw+Ph02RjR+XIyqo6borhDPlB+JjXfRbMPEYx+dh9CuTJKyOQNdp6ptljOzx9Sqy9FDxAn5Mhjh2eNVtszXdY+Yd2uXlxXTX2VB727OI9ig6HHcluRPjsbf3bSSD0JXNKZsnmJsnqkqhAWFhnDq5g1xaLBNaArONl67w0wDgIJa0+bK52ovTb+yisvhyLy+A4bergXH6lZZjzTvPrS24qAAAoDotG7JJ6m0AhCEAkex6ppfi+iDhf4LxGBrhBnc7DfwusLf4NhSYWLK2YNEkj+ammwBS30IBCEIBCEIBCEKhJoSUGLNl8nBnk6hhr3XmGNIjYwbmgu3x1/LgNj6yyAfpquZjM58yJvQG/wBEHT5eRrW/lACEybtJUNSml1CDjccznxEY0Ti0uFuIOq5GPjT5byIw53dxOgV8Tm87iMzjtzcoroAtjI4kIom4+CzkYBq6tSVBEvCJo2F3M15HQWue5tXYpb+HxCcTtbLIXtdpr0WLiMYZnOY3Y0g6HDgW4TAetlbKiNnlxsZ+UAKr1QCAdUrQKKDm8XkuVkfYWVqRDW08p/m5T3dLpVGKCC00I6KoEIQUCTa0vc1g3caU2t3hMfm54J+WMWVBk444Miixwfl0K5AGq2uKTednPPQLXagsDVUkCnaA6pPNBFqJDogxk/Fa6HC4yA+U+wXP/qu1js8vHY30sqjIsUjllcaC15DdoMDt0hqU1TBaisrBUdqSbVu00GyxoBFIT6eyBIRuhQMI22RsjT1VFf4LxJl8jY5a3DX6qDj58I+8w5gBvpYXa4dC+R5Ake0NdzOPKQT6X1XZaXAfNoo08OZYialj5D6tpbeIzAeRz5MsZ7xletcGvb94xrh/MLWrLw7hkt+ZjQg9wKKnByPtE/DsmMwZD8zFd8zT8wXomjnosIoi1ysvhHDsbFOQ3PEHZnOCf0XCk4oIiDCXPe38ZNIjf8XRtbkY7x/EIo+y5vC804OY2SuZp0cPRYpM6bLcX5Dudw7rAL+qqPoEMkU0bXwysAcLAJ1WTypT+Kx6L57b3ABznEDYArLFlTwH7rJyI67ErLT3vI4bkoAJXjWcf4lGK+2OI/mZatviXiA3maf+RB7AA0jl7rzuD4qaxx+3RPmHTy3Bq3ovEeLkZYZFEWxu2t1kFB1eUBHKE2uDmgtNg7ICKXI3sjkaPwj9FSYQTyjsEUFSEE0ik6QgkhMBUAikE0ilVIpAqQAqpOlAgEwEUrAVCGhBXz/j+P8AZuL5DK0ceYL6FS8r40xqfj5QHzAsKqPK/hPdfQuESjL4LjSHW2cjvpovnx0cvXeC8jnxMnGJ1jcHtHuqjzXFIfI4hNHVDmsey02ktka4dCCvQ+Lcbys5soGjwvPOFINvPbWUXDaRocFrFbUx83Bx5erLYVrHdESUqVWEuYIOrw1rZ+EZULzXlnnauXRpdTgUTZ257LId5BIHdc1zSywRRCBDdBCYTAPKaUVjok/KT9FlZjTyfJjyu9mFfQuHSMl4ZiyxxxjnjFkNG62eZ/R1eydXj57HwjiEgtuDMfdtLYZ4c4pJti8nq54XuuZx3cf1ToncqHHgc7gOdw/HbNkCPkLuX4XWbXN5da6r33iWLm4FKa+R7XfuvCED7Q0dyqnGMijsl9FbnaV2KglVGeEYzxTra7uSsjscAW2iO61AV6vw54fx+KcNdkHLljlbIWFoALR2RXmizlOyyQSmFx+EEFbuVjHFzZcTIAEkbqsDQjusEkHLqBYRGT7Q3luj9Frvlc8+iYaOU10UHdAq3vssVCqWYhYnAKjERSmlkdqoKApOlKLUFhhKz47/ACJOc7bFa4cR1W7hcSOJi5MTceJ8mQ3k814ssb1pBkcI5SHRmieil0Y+q0Glw2NLocNysGIS/wCIY8uQSAI+STlooMZBb0QHKpcvHMp8mF7IzsHu5iPqnysc3madCgWhT5bS5CNtUucjcUqK5EciXOqDwoILEjGsnME7CDB5aDEFmJCVhBgMagspbJpYXoMXKmBqhxpSXINwP+6FALE517tCnGfdtKp4ooJdynpSkBo2TpFIDTsnQQAmgQCUhpp7nZX0WCYkyUOiBN106lekwLOFGXAg9iufwPFDny5DwKjHw33XSBLdyi8ZwS3ULlcTxxDM2aPRkm4HQrf83RRMGzQPjcdTq33QcyWUh7aOoWs5xJJJ3W2cSeaRzIYXyGNnO/lHygdVpO7oNrhbq4gw6WGki+9LsebPI5oj5as8xd2XnY5XQyte3cLps4nC2PXm5j0pBi4q4ksB3XPJWTKyftEvNsOyw2iKtZIySKAJpYQ5bOHIG8w6HdAAqg+lDyOc0bStBlEifmLDaLQZmvp29BTmcj5WPZ1bTvdReiBqEGtMNVDNlc5+OlLL5hXcIPqTB5cEDPyxMH7J2tf/ABCJxAe1zaACyNmik+R49rRWTmRanlcp5q6orJytcDa18zEGRiSws3c2h7rIZmt3Kwv4ljxfPf0CDwHEonxTlsgpzTRC0hoV7DjuRw3iMRdyyDIaNHNGh915R0D2/gJ9giH5tVykg+63uDxZHEeIR4zXU0n4nflC08fFdNM1jneU0mi5w0C9rwvHxMDGDMZwfer5OrlUefyoRBlzwtPMI3lt91iKySO58id5/FI4j9ViO6qHdMcewXs+FDyeB4bdqi5j7nVeKd/CcO4Xq8XKEhxcZvZra9h/2UV2PljJ7BaY2C25TWO/9FqoBCEIBSPmKpS3r7oGhCEAhCEAhCEAhCFQIQgbhQcTjkgOZBF0YwuPuVi4aObIkf0a2v1WHiEnm8TyHdGkMH0W3wxvLiued3uP7KjZQmkgFjyJBFBJIdmtJWRc3jkvl8Nc0byODUHm2MdNK1g1c8rPxGKKDJ8uEkhrRzH1WbgrGu4oy/wgkfosUmNNNnSgtIt5skdFkWYWR4+IQPjkdZKqYefxgDsR+yyktflsogx47avoSseB95kTTH2Co6F2UFFgBQTaB2pfP5ET5NNAatO1p8SfywBnVxQacswnMYbEyPlbR5fxHuVkaKCwRt+JbGwQNJHTRF6KoSEIQC6fDfuOHz5DtC40Fy3bUNzounxI/Z+FxY43I1UVxy7ncXHqbVAUoA19FlAQCAqAQQgRNLC42VldoFhO6DLixebkMb0uyu0Vz+FxkB8p9gt9EQ86LWe6ys0jlrk6qgq1lhb8dnYLGFnA5Y76lQQ824qQjcoRQmkgIBCAEIHfdBpASPqg9bhZUWfgiXH9nNui0rmulz8POkh+0CaEC22NaXn8HiEnDcsTM1YdHs6EL1cc2PkSRZcTWycw2dsfQ0orO3JhkZH5UDy/l+PzH6X7Ba0p4m+2w5cGPGejIhf6rVzsuKLPHk4TYJ+WnASkhw6aFQ/PzGmpOHye4KBN8NwSkvyM2WRx3oLT4zwbGwIWS4/mPBPxcxXVxsmWQfFF5I/ntPOkjOO5rp4JQdCwWorzMzY6Z5LQ3moaLG+N0cxYQbC6DcPE85r/AD/LDTYbzbLd8vhL5hJlZbnbXyEIjV8PhrOKxOmprPXZexodGMr/AChck5nhqCKsbhsmS6q5pe/1K58nGoI/g8p7ANmg2ivSExD5mxD3aFD5IANIWu9Wx6LzTONs5gRBY7k6rfi47iPaGytmaPQ6IrqhkJZzSDHjHYtBcfoFQbjOhcyHFZbxTpXtANeg6LWgzuHyV5czAf5hRW20tfqx7XD0KAjY2KMMaKAVo5T2VBQKkBNOkQqtFKgilFTSKVUikCpFJoQKkUnSKQFIATpACoYFJpJhEMLl+Jcb7TwSWh8UXxBdUJSxiWGSN2z2kIPlZ1orteE8jyOOMaflnaWH/wCfRcrIhME8sThRY4hGLMcfIimaaMbw791Uet8X4/PgRSgasdRXi3br6VxOJubw2QNFiSMPb+i+byMLHFp3GiozYzufDmi6ghwWC1lwXBuSA7ZwIKxvZyucOxQQQl1VJIjo8Am8ri8YJ+GUGM/UKeJxGLNe06aLSieYp2SN3Y4ELt+JGh+THkNHwytDh9RaK4wCoBA0TCg9r4UmE3Aww7wyFv0Oq7ArsvKeD8hkc+VBJI1ge0ObZrUL0n2rHbvO36aqK2ObsAi+pWsc7HaN3O+lLXyOM4sIsj/+cIM3F2Gbg2XG0WTHYAHVfOpDyyNcRXKdQV7F/izGjPww8x/zLzXFs2HPy5MgM5S8/KBQCqdc9xt7iNibRVpew0RqqHVL2HgOcMfm40j2sa9rXt5jQv8A+FeOs3ushmfVWg9h44GLzYk8UkT5jzNk5HAmul19V5tmSxoNkrQLuqVpwb7pohZ1orWdKLNBYCkiMxnOwCxl9qUBUMutJFIpQCEw0p8pQJCfLW5RoOqHAAnSqNpcQGtc4+gW5Hw7Nk+TByHe0ZVVpUssEvlmj8pXSZ4d4vJtw6QDu7RbkPg3i8urmQRj+Z6qOY0hwtp0QQDuLXeb4Gz443SOzYG8ostAJWm3g0pAudhcfTRQcoxN6W1QYX/hIK6ubwnOwHff47i387NQtMU7ZQaRbK06sNeiXmEb2PdbjraoJJ3o+4Qa/mJiSwsjmNP4B+ikxs9kEl5Ul1hUWdip5K6oMblBWVzVidogcTuWQLbeNLWhdG10AeZg9kGJJURqppAhurSAVAILiZzPAWOPHfkZbYY2lz5H8oAW5it+Bzuuy7XgvBE3Fpsp7bZjjT/Mf/hXPPP1x63jOvS43hrh8OBHjOjcXADmkDiCStDL8LztaTiTh7fySb/qvSB6C7RfK/ycu9dvV87yYZsaUxTxOif2I39lqyS8vuF9EzsPH4hAYclgcDs7q31BXheM8Kn4VPyyfeQuPwS9/f1Xu0eRM/lYyw4iHijuHvmewF8OTGGPANEfVcYvD3OHLygnQdltcoosdfK79lpSRlrnMJ1Bq+69TmlzS1SsnOQKItXDG2eURCw47IjXKS3ZOHTM/DYWB0D27tKoxBU06oMbghoIcLRGS6TtSmNUFBCAhAJs3pJOPR4Qa8/8Uoxhz5MTe7wP3Sm/iu9Cs/DG8/EsUf8Aut/qg9k9vxlAbRVO+Z3ugI0trpB8sjh9VlZI8inm/VYmrK1EMssGlo5ED3XYsLpNCy8oO4QeRyIXMJttLTII2K9q/Djf0WnPweN4J5Gk+mhVHlh6rLFOYz8BItdCfg726ssehWhJiTwgukYA0dbREUsZ3WTosZ3VZMCyB3K73AvvOLMv8DC7+391wWmnAr0Xhhodk5Uv5WNb+v8A+FGndyD90B3K11myT/DHpawoBCEIEdkDYIdshAIQhAITSQCEIQCEIQCXNyNc87NBcjqtXi0vlcMnI3c3lH1QebDi9r5Du8l36rtwM8vGiZ/LZXIjj5jHEOpAXac4cx9EAUki4JcyopcDxHLcsEXRosrt81leV4nMZ+ITO6A8oQVFHk4TYs3y/hO3qs03EJcv4II+QncrJi8ZDMcQ5EZcGigR2WDK4j5gLYI+QHr1UGLIe2CL7PEbJ1e5beBGWYzdPmNrk+/1XoGPiETKe0NDQNSgRCVFN2Tjj/eg+2qxHPxG/jcfYIMlG1zOIv5pw38q2pOKxBp8qM83QlctznPeXONkoMkQoLLaxs2VqoaEkIhoSQUVnwIvPzo2dAbKrjU3mZZYPlZstjgzA1k+Q78I5QVy5nmWd7idyoE0LKFDRorGyBpIQUVEh0WIDT1JTkNuWXGj8ydja0GpRHVx2eXjsb6WVRNKisbyqMMpu1hCp51SA0QWxtkBZpTWiWOLt3YKZHXaisYTSQN6NIHSetqXOo0NktSaQXt1CVjuoJo0gaoLtG6EINF7fiLXCj2K2OGZcmJlxj5orssOy7nEcXHy3F3I5sh6tG65beC5rn/dxgjoS6llpfEJHz8Y897wGgNI7ALpZHimNpLcWEvI6nZcrM4XNFC10krOYuoi9QFl/wAQOLiMx4I42AD4n1qSiIyOKcQzfmeI29gFrio/iJLndylH9oynEQROkPUjZdHG8PZEpDsuURNP4WmyiuVNNzdrTi4bmzM8yLEkc3e6petxOF4eH/DiDnfmfqVvskc0gXp2UHhceY6sdo4FbLIIsyVscsgheTQeRolx7F+ycUeW6Ml+NtLHGWzx/wAwCo6rvCU4Ftz2H3YQsD/DWdE0v+0Y5aNyXELqcF4g6WEY2QfvGD4T3C2eLxun4VkRssu5bAHWkV5RuLkumMUZikI6tfp+q2xgcag0bjSAfyuC52K97WvoEAbnsvZ8IyHZHDIZHE8xFFBwY8rjeM63R5RA6cthbrPEk0bf9pxZW+royF3mvcNnLIHEijR9wg48HijAeQJOZt9ey7EEseREJYXh7D1CxzQYb4z9qghDCKLi0BcThMZ4Zxt8LMhrsGUHlJdp6BRHobI2CoX2VOFGqQoqdUBVSKColOk6TAQTSKVUikC5UUnyp0glOk6CeiAAVDfVIFBOiDwnivEONxl7uUhkzecGtCeq4ncd17TxvG+TBxZd2xPr2teMNWqy+heHcj7XwLHLjbmAxO+i8PxnHOPxKeP+YkL0PgjI+HMxCdRUrR+x/stbxlicmTHkAaPFH3VHB4a/GZxCB2awvxw4eY0GtFs8cgxsfi2RHhO5sckOYbvQhcw6GltytLsKKbfUsKI10imkgRFrrCV2XwenG3Y+g9ui5QXU4GBJJk45/wB7GSPcINHsgpgVbTu0kFBUVIe5juZpIPcJ/aJT/vH/AEcocjkJVA6Rx3e8+5UkquT2RTepCCCksoDXaNsn0CysxMiT+HizO9mFBqoXTHA+KOZzNwJuUCySKWhyFDjGirWTkVMa0VzXXoi8YuUo5T6L3UHhHhRijkfJPJ5jA4fFW6s+HOFxH4ccu/zOtTp6vA16hBC+iwcKwInCsOL/AKV5njOE3E4lNG1gDSeZtDoVYljgcpPQ/ojlPZbrm0sLwtcZYA0krs8H8N5XF8d88EsTGMfyHmOq5YC9d4JnIhzoB0c14/oosRF4H5dZ+ID1DGrbh8IcIb/HyZ3em39F32xzu2j0PVWcc8jhLI2MEVZOyjTkR8D8Nwj4cZ0x9SSs7cfAjoY3DIIx3c2ypgx+FcPZy/aZptebV96rNFxeOSQx4kINDdyCo4w1weIWiuzKXViyXSt+E8p6gLluyMuQU6ZjB2a1SwvjdzeaXO77Kjque6yHkqHsd8zNwohyWTANkNO6HushY9hJafhVQ2HzIZA4G+Uj9l5EA+WR1BpewjLTqTQ1teDz81rpZYMa3OLyA4bDVSo9geIYbWRiTMgaS0W1z/TstPJ4ZwPif44PMP4on8pXmMbCZDGXzSMB/KNSVhyHMfoBXsoq+M8Kx8DLbDjZrZ7B5mndh9SuVKx0L+WQV2PdE8jGtLGGzdkqoOJREMjzYPOa073RpEYklscTGEIY58CYG/hdDrY9dVzvtDgaIFINgqCs2JBJmMLo6HL0Kwv+AuDhsaQQ5YntKzWDXqm1nMg1xGSt2qaB2Q2OtShxQQUk0IoAVNbZUkgLYfG6DJ8p2/IHfqoRlxdI5PQr3PhfE+ycGa4in5DjIfbovFYELp8gQNGssgavpTWNiYyNgprGho9gvB5efJx2witkISK+W7JJWHIhiy8d+PkND43iiD0WQlSUmVxvY3zrwHFuGy8KyTC8F0TtY5O47e65Em57r6TxbHxszBfDluaxp+V5NcpXznMxpMTIfBL8zDVjqO6+z427+TH682zDjCCOq3+DxNdO+atGigfVY+ESRQ8TgkyI+eFjreOW/rS7sox/Pkfit5YnmxYq/ovU4sT7O658p5JHDRdB+y0M2g7mJoUqNOdwJPwhYKH1RJK1x+FYxuiMoFpltJN0IVk7IIpCZFKSgfVWxvMdN1ivVZI3U4Ug1Jv4r/dbnAxfF8b0da05P4r/AHK6Ph5t8Zh9A4/sUV6q00h3TUVbVmYsLVmYqMzVkAWNiyhEUE1KobIrR43O7F4PPPHQkbQaSOpIC8zJn5OREY5uR17kCl3fFLy3g4j/AOJM1v8Af+y84a0FfotRmpOiwk04rMQ2j8VD1Wu8Q3/Ed9AqyttE7r1HhMtOHkOHzGQD6Af915aKSJrhTS4+q62DxluJJzGPlbVEN2UV6jI/iD0CxpMk82Nkg2e0O/UJooQhCBHoml+JPmiZ/ElDCdrFqAQjy536wGKUfynX9FgkORGaka9h9W0g2EitXnLvxH9VNG9SUG0XNH4gpMrB1P6LAi0GYzN7FIzaaN/UrEhwYWkSRmRp3aDSKyCYkW0j6LmcbkJjhjJ0c6z9F0+GnhsrzjMidDIzQRyO39u65niQMbxZkMbeURRCx2JQaOMWjIa5xAA1FmtVtvyYGn48iMf8wK5c8LZoyxxrsVoP4fMz5Q149N1Ud53EMRrg0Sl7j0Y0lYZOM4rCWlk1jcctUuLF9pxZWyxh0bmmwaUTSPmmfLIbe82UHTyeNl8ZbjxlhIrmcdlxje5Nnqrq0uVQShXyo5EEIoKwxMMKC8XKkxHOMYaeYV8QtYK0WXkKBGgw0gBZ+Qdk/LHZES3ZWmGaI5aVUkKuVLlRCQdGk9k6VQwmfIjhG73AfRB0ZQMTgbG/jl+I/VcVoXW8QvrIjgb8rBS5jQgsKggBCAG6TjTUwokNAoMO7l0OGxkB8h9gtBuo9Suxjs8rHaz0tQZFildQWQrBK5UYjqm3ZSFkibzODe6gzj4Ifda5NlZp3a8o6LCEUJdVR2UDdAdfVO6Q6hQ3PdQTQtAyLN3sqCkbqwOiAGyE0IPU0BsKXO4lxTyCYIK5/wATuy6BdQsmgvP5cXLxjzCWmOR4P9FhppSTl5Opc7uVk4Z5T+JRNyGCRrtKPddPifC25U/mR1G4711WHF4YcWZsvPzOabQd9gbGOWNrWtHRopVzLUZkuqnMVfaW9RSDZ5kc4C1vOadigv8AVBrccwzn4rTGQJYrIvqOy8xjuImaAeUk8pvovXcx3HRc1/DMUymR0Z5ibq+qDW+9xcwMl+F7TbXDYhd9uYXwtc3UkarmZgjyYSwkNcwAtPZZOCFrsd0byC9ria9EVMfDI/Nlc4uDZN2g1a6+IyLGgbDEKa3oopqYoFBtBwPUK2u1WqBeoCysBQaviPnPCC5l/C4E12XmnzmaBrb0aOi9qYi+Mtdq06ELmDw1g8xJMlE6gOoIN7gWQ/K4RDJIS5wtpJ60t9YcTGixIBDAOWNuwWdAIQhAJ7JIQNCSagLStMIpAk0UhA0JBMINPjOL9r4RkRVZ5bHuF84AsBfVRrodjoV804jj/ZOI5ENUGvNeyqNzwxk/ZeP45Jpktxu+q9H4pxTNwl5q3RarxTHmItkadWODgvo0oZncP5m6tmi5gPcKj5g/U2tzE+94dlQ7ubUgWCeMxSvjO7CQVl4U8Nzgw/LI0sKqNbdCpzPLe5h3a4hIBEGgOq3eES+XxbHLdQXcp9ivQ+F8PAyeFufNixyzskLS5wvTou5HBjx15ePDHW3KwJVjwnEofI4lOwDQnmH1WqV2vEsHJlsl/NbSuMVlUnZel4T4e4fmcMhy5ZZnPfYc0GgCCvM9V67wfKX8NngJsxS830P/AOEI2Y/DvCWf+nc8/wAzytuLhfDoq5MKHTu21s0mAqoYyOP5IYmezQsnmOrQ19FACYCgyNkcDq4leH8R4IwuKP5G1HKOdq9uAsWXg42cxrMqISBp0N0QivmpoGtz6LpcO4Fm8SI5IzFEd3v00XtcTg/DsM80OIwO7u+L+q3r0rYdgjTDDCIMaKDm5vKYGc3ekPasu6KURr8q4viqAPjx8gDXVjj/AEXfLdVq8RxPtfD5YB81czfcKxmvAPGpCwOFLblbRN7jda0m66uTD1XofBsnLxeSEn+NEQPcargLb4ZknC4jjZINBkg5vbqpY1HsuMzZGNjMOM93mudVWtP7W59B+OCSNbeb+i6fHG8j4JRrHqL7XsuFxF4aGOvlddWstB+Q2Jg5uYna2glbHBHOAfI5pHM48tjos3AHNHD3OfVOkJbfbRdMPZewUCYXOGopWGFHmAbJ+YeyC2spbEGQ5h5JNWnY9lrte53RIucDTgqVuZhh+xTNkyGwMewtEhNUV8wfleRJI1rmv5HEBzRo7XcLs+KZ8h+V5EjiIWND2gbFeaij817Gj8bwP3VZdeV+VDHzOjLgWhxrWguXLlSPdzNdXsvonDIGckltDmuAY4Ebhef8SeFzjtdm8OaXRbyRDdvqFFeVLyRruptLogoimOaHDmvl60ocRzGtuloSrVB2/D5tsrVpZLeV0oO/Na2OBGnS/RTxBtSSH2QakTeYD0WXVuoWPFN2Oyy1oisZnI0pZII5clzhEzmLRzEeiwvbqul4f0zJr6x1+4QTj8Myp3acjP8AMVPFcH/DmwXLzvkuwBQFL0cUfISe64fiZ5dmwRfkjv8AU/8AZBpR1JDBDyDn82y7qQVvcUYRxOHlHzsLf0Wrw9vPmwN7OtdHiPwy4c35ZKP1UWOj4QxTJxaSVzfhhbzfU6BeyGy5XhuARYEk1UZ3k/Qaf6rqr43lZ+2b0YzkNS4plQSvJa6RJUE6KioOyxXSObxXh8nEWwtilDQ0/ED1C8f4lfHJxd7YTbImtivvQpe6yZxjYss5/A0ke6+bZD+eV7jqSbJX1PBtscNzY4PIY+JBjRYkaWn2XdcyguJwRnPxBz60Yxd5xX03larwtPKZz/CeoW+8WtedvwA1sVR56RnI9zR0KAs+czlmcR11WBo0tBlB0VdL7KWbKvwnuogcsbjqrOoWMqhWuhwnH+08Qhiq7sn6C1zuq9H4Sh5uJSSnaOOvqdFLeLJ15c/Mfddfwy2+KE/licVz8yLyMyeL8kjm/uun4WH+2zu7RV+4VOceiGyaQTUVbVnaNFhathmyqLYsoUN2VtQNNCEHD8VyUMCH8z3P/QV/dcF266vimS+K48f/AA4Sf1P/AGXJJWozUSmoytMlbM5+BapVRUer1meC5nKN3EALFENbW9gND87GYRfNK0fuoPZ8oY1jBs1oH6BCbjbikjQQhCgQ+YrVzNZmN7NtbTVingMkvOCNqpBqUBqLB9Cs8WZlximzuc38r9QsEpZDIGSyNY92wJ3VAGtNR6KK2vtkbzWRhsd/NGeUpgYUpqOd0R7SjT9Vpo0KDedhTnWPy5h3Y6/2WBzHMNSMLT2IWFo5TbSWn0WdmblN0Mgkb+WQWqJ3SWb7XjvNTYZZ/NE6v2ViLFl/g5XKfyzCv3UGlJjxzUJBZBsEbhcWVzpZ5ZHyOkcXVzONkgaBemdiTRgu8sSDvGeZeezGeVITHjyAdQRSpWuUvZT9pjBp7Xs9wrD43/K8FVktVDoo3/MxpWWkiEGq7DiOxLUvsTejltUileDRdjcp7qfJ9F0EV3UGh5XomIwtwsB6KfK7JwahbRqkcvotrkI6Jclk/CnBq8hRyra8lw6hBhJ6JwanKitFtfZ6+YpeU0mhqg1wE1mdG1prspLAqjGWgrd4RExueJXva0MYSOY9Vr8rOlqrAFKDBxDmnzZJLsXQWEMIWd2+ynTsgijSKV+yK7qiFhlOi2QwuvlFlYHxP5qLSPdRTxouedjegNldYmytPAjrnefYLbQS9a791lkdujEGM/KaMsvEZOpadkGALZxxTXP7BY8hsTcmVuOSYg6mkrNIPKgDep1Qa7jZJSQUKKCdFN6oKkHU0iKu20prRMWmewQDd1krqpYFe6KlHuhGiDqcakliET23ya83uuG57nkuLviPXsvXTRCWMscAQehXHfwDmeSJuVvYBc2mTheZJlY7mSfPGavutwNcowsFmGwtYSSdyVt8qowhhT8q1mDSra3TZBr+SOiZiJ0WxR7I5T2QYRHQpS6MVS2RGSjySVFeSndJFJJA+w7mvXqEsWV0ebCWu1LgDR3C9PkcIx8wh2QCSNqNJ4/BsLFka+KH4m7FxtUZuUWVTYx2WdreqfKoqQ1W1moKYCsbqoyAaJgC1PRNrQDagsBMBK0WgaEkVaoaLSpMBQG6EJIHaam0wVQ0JWE0DQEqTQO6XjfGWN5XEo5wPhlbr7r2PRcTxfjedwhswFuhdd+iDxRHwkL3Phef7RwGIE26FxjPt0Xhuq9N4KnDZ8rFJ+dge0eoVRx/EmN9n4tLQoPHMFyY3mOZjxu0gr2XjTBe7Ghz2i2A8jiOi8a8alVK3OJsAznPHyytDx9VrhbWV97w/En6tuN39lrBEek8GS1l5WNf8RnOPcL1PLRXhPD+R9l43iyXTXP5Hex0Xv3s5XEdjSlajzviqDmxS9v4SHLyZXvuLwibCe2t2kLwJaQCOo0UKxndeh8HS8vFZoDtNEa9wvPlb3BMj7NxnEmvTzA0+x0VH0AbJqnt5XkdilSilQVaBFIpAwUwkmEFhCSaKaEk7UCKBoQUnueB8DA/60k0vIt7Q0+htB4/xFhfZc6RzW1HKOZvv1XAcF7/AMQY32rgsxHzw/eN9uq8AdRfddZXKoQdInJkKXfI72SkfTIj5/B8UygOEmOwuB9lxsngOPObdLKB2BXawqk4HgFhDm/Z2Cx3pQWrLTWgw2sjawE00UFsNx69VbBRWTme0XHy36hRSZGCNWn9FlEGugXKzeOyYUwhl8tl/iDbUY/E4uIyCN3EJGOOga0cl/VFdeTkiFyPYwd3Opar+JYY+FkjpiOkTS5WzhmE13M+Iyu6mRxK22tjjHLHG1g9AqjzfiZzJ+DS5BwJGvbTWyP0LbI6LyfCojNxLFjb8zpRVr3nim3eGcwXdcp/cLwXDJvs/EsWboyVrj+qI+gRYmfCHNiy447Nn4L1WxFDmt+fiANjUeUKWxKeWV3qbCXMg+e+K+D/AOFZ7S13PHkAvaaqjeoXDXuPHrOfh+FL+SRzP1F/2XiHDVEK1kEo8oM5RfdY+iEHT4Gf9okF9Nlk4gPvZB3asHBP/NuH8v8AotriAp992oOdh/xSO4WbcLVhfyStP0W95MpjEjYHuYdi0WitZ63uDHlnmP8AKFqSMkqzDIAO7CtvhrS3mf0doiPQxv5mtK87x1/mcZl/ka1v7Ls40lho9V5zLk83PyZO7yP0QbvBm82aXflYSuhxGN0mGA0fFztr3tanA22Jn9qC9BwyEZHFIGEW1n3h+i57MvWWt4vTQRDHx4oW7MaB9VkSu9e6F8HO+169UBWN26tyxErnWoRWN5VkrE75lzrpHF8UZPk4DIgdZXWR6BeIdrZXb8U5fn8Texp+GIco/uuHq4ho3Oi+94mv0wjybb2u5wKLlxnykavdp7LpFY8aIQY0cYHytF+6ydF63BieFBZzAt7rK5Ju4VHD4hjF0rQOhorUewM+GqI7rpZL74hks/I9rv2C1MxzZJ3vA3AQa7dwqqioCt2yIW7VjKyN1aVDlFJeu8KwmPhz5iNZZNPYLyPRe/4fB9m4biw7EMBPudV5/Iz9cXXXHjPEUXlcayR0c7m/UWtzwsPiyz/K0fuq8ZRBnEoZOr4hf0T8Lj7jKf3c0f1XbXe4ysZfrtoCSoLSMjVnZssLFnb0VGQLIFAVgIikdUJj5gg8j4geH8fnH/DjYz+/91oLNxF/mcYz3/8Au8v6ClhW2awZJ2C1StjKOoWujLLCurwJnPxzHFaMDnn9Fy4Pl+q7fhll8SyJejIa/U/9lFj0l3uhIJo0EdEJE6FQA2T6oQ0W8BB5HxZLz8WDOkUYH1XJhzMmD+FO9vpei2eMS+fxXLk6GSh9NFzzuorsQeIsllCeNko77FdGDjuFLQk5oT66heVTQ69zDNFO24ZmPHo7VZCHDcFeDa4tNtJBHYrdx+NZ+PQbMXNH4Xaodev3S06hcOHxKDQycf3LCulj8VwMig2bkd2foitxnMw3G9zD/KVsNy59pOSUfzi1gbThbCHDu02nRQVI3BmsS4vJf4mf6LVl8P4WSLxp2Nd2f8JWdBDSNkRyp/DvEcYXEXub3HxBaDxmQEiWEOA7br08cksRuKVzfYrN9tke2siOOcfzN1/VU48gMyPaRroz6hZGvY/5Hgr0smPwvJB8yCSFx7ahac3hXGnt2Jkxl3QXylE45PKQks8/AOJ4htnOWj6haTnZkJPmQ8w7hUZaQsIzIrqRroz6hZQ+N/yPafqiGhPlKSqGhCEBugADYJJoE5gcNR7LXcwsGoK2bKoP9EGkXbWAgrcdykbC/ZYzGDuK9kVq0kQFsGHsf1U+Q69kRgpKlnOO8blv6qHRlu9fRFY9QbBpHO53zapkKmM5ngfqg2om8sbelodoq6eyh5URiebWKlTtSoO6Kz40fmTNb0uysua4GWhsFjx5eQ8w0ISeeY2d0Vj3QdAqpS5QSRZpSAWu91SAe6ASaCFVhAQUNAi0qKCCAC4EA9SEACEr7JGgOqL0FIPYcqOULJyp8q5tsXIDsmGLKGgKgEGLl9E+VZdOyCL6IMfKilk5UUgkBMBUAnSBUilVJ7dEEAJ0qCdIEAqakqCCgnakJoKTUgJoGmEqTpAIsoTGyogkpK6RWqCE1VJgKCEWsnKOyXKFQhaaYCagFhzIRk4E0JF87TSzJt0IVHy4tLHuYd2kgrf4DlfZOOYst00v5Hex0S49j/ZeNZDNmuPOPqufZHxDdpsKo+geI8YzcJyIm7DWh1pfOCF9TikGdw2GXcTQgn3pfNM6H7PlzREVyvICIy4Y87h2VB+JlSNWq06LY4U8NzmsPyyAsP1WBzTHI+M7tcQVUW1xaQ4btIIK+mQyjIx4ZwdJGB37L5i09F7zwzkHI4DEDq6FxjP9lGo6nLC88s4JYex2Xz7i+N9i4rlYweHhj7BG2uv919AqxXdeJ8Rw+XxDzOrxr7hQrjFDXFtOG7TYQd0h1HdUfT4ZhkY0E4/3kYcqXN8MzefwCCz8UTjGV0yooBQik0AEwhACB2i0UodIyNpc9wACDJaep6LRHGOGlluynOcLHlxsJcufxDPypwfswfiQn/e5DgCfog7p+HVz2tH8xpa8vEMCEfe5sQroDa8TmZMAYWjKmzJurho1cx1uJJAATh17XM8U8Oja+GFr8jnBadKGq8aQAKCwiuYCxqe63JWAGh2W4xWq5JW7cqKWmXd8PcfdwuN+PO0y4zviaL1afRdtnibBl2ic3/mXjcWKKWeOOeXyY3OAc+r5QvVx+DMEMa88Qmla4WCwCiFjjpHQx+LYeTII43gPPQuAXSjx5ZGBzAw30DwSuRj+GeFY0rJAySR7Tdvd/Zbb+GYTxpG5n+VxCiuZ4hw5nZ7XvxpPLEYHMG2L+i4c0TQC+P4XM1BHRetYzIwGudi5Ej2VrFJ8QPsuecRvEmGHKaWvkJ5ZWinNP+iI2+F508+NE7Iic0lgcH3YcF02va4aHVcqBsjIGQxi2RgMBvtorEcoNiwUGxxiPz+CZ0W5MRI+mv8AZfNImOkjcWj5BZ9NV9NhLnAxyjRwLSvBYbWcP4+/Gyx9yXmGT/Kev91R7LgHFI+LcPYwkDLhaGvad3Dut5zi3deAzMTM4BxXka9zHtNxSjZ7ei7+H4vgewN4jjua/S5I9QfoiNjxTGcjgEhAsxPD14F+tL3XGeOcMyODTRYk/PLLTeUtIIHVeGeKc4DoURBQE9kkG9wh3Lmj1BW7n27lI7ELm8PNZjPY/wBF1MgWxn1QcUt5d16vw9OHcOMXPUsb/lJ3BXleY8xsWLXQ4fkRx5HM+2tcK06FB6nNkD8CZr9+VecwD9xI38ryF0ZWGWFwjltrhva5LOfDkex2rXG0V0YJOR/sLXAaeYud+YkroyZIDH8v5StCIAMQdzgreXCc78z/AOgXqPDkJrJySPmIY32G685w8eXwxnrZ/de04bB9n4djxbHl5ne51Xi8vP1w46642ggoQvkPQhxWMq3KCsVuJcdFrzzNhglndsxpKzP2K4nijJ+z8JEQNOmdX0C1px985FyvI8XkSGWaSRxsudZWXhMH2jiDbHws+IrVeatdjgbY4YS57gHyd+y/R4zkeHK9rsbpFTFLFK57YnhxZ81dFkI0VZYXIaPiHumd0N+YFEcLIP8A95yh3Nfstdw1I7KshzmcTle8FpMmljcJyipiOhVGtsVf4VDtHFZG6ilEJgppUPHZZwKCxuaisbR8Tb2sWvpGRNFjwDJmeGxcgI9fZfOQFndkSyMa2SV72t+VpOgXLbp/kkbxz9V8ezXZ+QJ3Cm2WtHYLo+GhXDpj3l/suNk/FjE/lIXf8ONrhAP5pHH+i6Y4+s5Gbe3roAq2pFqbQqMrVnZssDFnaqjK1ZFjarB0QUqZ849FKTn+XFK8mg2Nx/ZB4R7w+fIk/PM937pdVig/gsvrqsg3W2K1sg29YVc38Q+6gINiIU0L0HhZlQ5kv5ntZ+g/7rgsFAL0vhxnJwcO/wCJK539v7KEdRNJCjRoOyEuqCkFwjY+Q7MaXfohaXGZTDwXKeNyzlH10QeHJ8wlx/ESSsbm0VlAqgmWPe9rI2F73Gg0CyVBg5Ui0relwcrG0ysSSI93N0WIsDh8NINWihZnREHZQWIIQqLUkGSLImhIMUr2+xXSg8Q5sQp5bKP5guShFeng8SYslCeF8Z7t1C6MOdiZA+5yGE/lJorwyY01/og9+Aasaj0QvEQcQy8f+FO8DsSulB4lyGUJo2yD00KD04QGgnZcrH4/hzUJOaI+q6EOTBOLima76oNtmRPD/DlcPRW7MbKOXJxYpe5qj+y1+lqCbKCpcDhOVu2SBx7/ABBaGR4SbJriTRv/AMrqP6LeaFVIcecyOC8Twju+vVthapmyo/4kPMBuQvaRZeREOVshI7O1VvmxpwRlYUbz+Zooq9OPFNzoTo9roz6hZ2yRyfJI131Xop+D8JyRTZHwOPR4sLn5Hg99F2NIyXsWOo/oqljn0eySibhXEsI6+YAPztWA5GVEPvYA4dwhxtUha7M6A6PDmH1WZskbx8EjT9VWeGhOkFAItJCKeh3UmJh6JoRGM47fzFOOPkO9q0IArFIVkOgWF5UVjOqgglZQqDgB8uqDE1rgqAd2WTmCy5IxfscT4XvMzj8QJ0CKwUUnOFUP1UONkJbUoA7pIQgEIQgYcRss2RmT5GPHDIQWRmxQWsS0fiCgzNugST6BBkJQoDpH/JE4+p0ViDIcNmt+qD3fKjlWUhKlzbY6TpWjdBNIAtUAmAgmikbVkdjabQUEtsBPdXWinlNopcpS5aWTld2SrVEIJFXy10Ry+iCQFQATDCeifIRugVJ0qDUctIEmgBNAIQnzAIFRQkZGk7osHYoKQpVBUCNUWi1AwUJBFoGmkmihMbpIVR5TxvjgS4+U0aOHISvMDXRe98S4pyuCTAD4o/jC8ADsVUr3fhDJ8/gflE27HkLfodQvOeLMYw8UL6oSC/qtzwXk8nEcjGuhNHY9wtzxnjGTDjnA1YdUR4thMcrHg6tIK3OKMDc5z2/LK1sg+oWk7VdDJ+94Xhzk2WExH+yo027r1Xgqen5mL3AkC8qNCuv4Zyvs3HoHE02S43fVCPddl5nxZAfKEoHyuBP1XqC2iR6rl+IIBPgSitSz+iy08C7dLqnuElWXrfBE1x5uMTqCJB/Qr04XiPCE4h49Gw7TRln13/svcV07KLCQik6RQEBCEGLKkdHGOQ0XENtcPiPFOHte6LJneRG4jyoxqT6ruZMDcmExlxYd2uHQrVxW4kMrW5sAbMQeactBaT+iDzv+K5sv3fCOHGBn5wy3H6rD/gHGs+TzJwbP4pn/ANl71kPmN/2eeF4PRppScfJDiPLLiOxVHkYfB0n/AKnOY0VtG21vweFOFRUZDLOf5nUF3XQzN+aF/wCi1p8qHGB+0OLK6VqoIx+HcPxq8rChHqW2V53xDwX7LKcqB48iZ/yflPUBb+V4njjtuLjOkPRz9AuBn8Sys1wkyHC2/K1uwVRouiF6WpMYatnDDswytcA0MFkhRO0RGhr7q+yerXjDXyNa5wa0mi52wXvuDYM3D+Hthlym5DCeaMtGgHovCggG3tFHsutw3i0/DmOjafMhOrWnXlU9utceytUvLO8WTbNxYge5csY8SZcjXtLYuZwppuuU90R6swSSnljaSVpZubj8PBx4CMviUmjGR6hnqT0XEx45Msh2dxWQD8kZXawoMDFYRiFoJ3cfmP1QZcSB2PixxSO5pGj4yOp3WZALT+NpPug6IEV4/wAZYXl5rM1g+CcU70cF64m1gzsSPiGFJiy6B4+F35T0KDncIyMbxDwIYWe3mnxhyh34gOhC4+f4azsS3Qj7VD0LfmH0WlA/L8P8WtwqSM05vR7V7aLPiyoGzYcg5Xja9WnsVofPuUxShr43RuvUOFLA/WV3uu/xQ5mZxBzJcaV/lEtZyRk362tdnhvis77iwJADr8eiDiu3U0V6uLwPxaUjnEUX1tb0f/0/c1vNlZzWj0Ff1RHjcIluXGfVdXJPwNPYruTeHvD+DE8ycUBmDTy/Hev0XAmBMAPsojnyYmQAX+U7kOtpRNdrbTQSmyJA8sMjy0aVelJtzXsYWNaACg3YDLCAWEi1ly5WzRjzRyv7hc2TIlAHK88p2WB0j3fM4n6oN7kBNP8AlPULE+MwvLd29CsEU0kZ+E2OxW4MiPIZyvHI7uNlFj0HBmty58TFG2hd7DUr3JonReP8DYjvtGRluotYzy2H1P8A+F7Abr5PmZdy49OucgScaCahy8VdIglSmVJXKukQ82a7rxfi3L8/iHlNPwxCvqvYTSNhjkmeabG0uK+bZc7p8mSR27nEr6Hg6+5eznuvIwtYZJGsG7iAtyWdjZTEAaZ8IWDFIa6SY7Rj91rtdzHmO53X2I8bp4WQ/HJMJon5geq6kfEmuFTM5XdxsvMPL436Ei9Vniy36NdRtVHoJs7HiALpW6qocqKZnNG/mHdcBj4nvPP819lswMZDIXRkgO3HRQdp7Y5m08NcPVcjNgOPNyuGlW32WfzvyuIS4q4ycMxMnctc6N39kHJkNlDXV0VPCkFBkv0SKAgoieqEdUFUURzRPb3C9FwJtcEx/UuP7rz0eq9PwZnLwfFb/KT+5RWz1TCqkUgtgWVqxsCytQWFYUBWEFLU4tJ5XB81/XySB9dFtBczxI/l4Bkfzua39wg8ozRjR2CoFIjVDjTD7LbDSebcUm6uHuh26cY+MINgnljcewXr+Fx+VwrEZ/7YP66rx8msZHUkBe6awRsYwbNaGj6BQh0ik0lGgn1SQEFLjeK5OXhUcY/3swv2AXY6Lznix95OJCPwMLyPc/8AZBwzuuv4TnxoPEMUmS9rA1juQu25v/lrkELUe74yoPtIniyY6ljjmb6UVzMvw1wbPstj8iQ9W6L53w3iGZjgGLIe3sCV6PD8T5UdDIY2Vo69UVeb4Gy2fFhZDZW9nbrz+bwfOw3EZOK8AdQLC9vieJMOUgea6B3Z2y68Wa3IZVxztPYoPkLoxZA0PYqXREdF9VzOC8Gz/wCLjiN56t0XDzfAd27Byr7NeqjwRalyru53h3iWET5uKXNH4marlvjDTRBaezgoNUhIrMYyCpcxBiTTLUqQCbXvjNscW+yVIQb2PxjNg0EpcOzl0YPEhBAni9yF5+k9kHs8bjWFNQ8zkJ6Fb7JI5NY3tcPQrwmPiTZWsTLA63SouysKUs53xvb0tGnvNUBeQx/EGZCAHkSAd108bxJA8ATMLD6IjuoGhttg9wVrQZ+LkC452+xWwNRYII9EVsR5uSwUX847PFpPfiZA/wBpwmX+aPQrBaQNoIm4JwzK/hTeW4/hkb/dc3K8HzNBdAA8b3G611xXUKmOdGbjc5vsVenHkpOG5+ISA94ro4LD9pyotJoeYdwvdDNmrlk5JW9nttY5IeHZP8bEMbj+KM6fonU48Y3PgcacHMPqswdG/wCSRp+q9BP4bw8gnyMlmvSQUf1XKy/CGVEC5kZI7xmwica/KRuElqvw8/FJAe7To4KDmZMf8aDmA3IVTjcTWsziEDvmDmH1WdssThbZWH6oE7ZYDuszyCNHNP1WEmtS4BAIWN08Td3i/RYzlMJprHOPsorYUELEJMh+jIq9Sj7PlO+Z4aPRBkKh0jBu4K2cPa7WSR59llGDjt/DZ9UGp9oZdNt3sEw979Gxlb4jY0aNaPYL1+PDFwZkbPssT+dgc98gsklB4QQTv6hqyDh53e9zl9EigwOKP5HYUbXEXzNOywz+DoXEmKZzfRB4SPCiB/hkn1K2ORsbdGAL083hTLjafKfG/wBzS42ZwzMxX8ssDvduoQc/mJUndZSyjRFHsVJag9pol1VUpK5ug0QlY7pWgaAiimGoBU2jpeqVKhogdFppCVpoAEjqjfVCAgsSOGmiCGvGriPYqE9EEmKK95He7lYoCgKCKQgaEIQFhLnany2l5YREFxJ0SIJWQR+qC3sgxhhKoRkKuQ90cru6Cgyk6WOnXXMVfKB1JKqg0jRCVoKBCdilNpghAxqmpvVFqAcSAKSTu0kA9oljfG7Z4IK+ZZMRx8maE7seQvpvVeF8V43kcZc8Cmyt5vqqlaXCMv7HxbGyOjZAHex0XveM44yeHzx72LC+a0eU919L4dO3M4VizaHzIg13uNFUfMnt5SQRqNFvYVz8Ly8fq2pWj2U8Wg+z8Tnj6cxIS4Q/l4i1h+WUFh+qqNVrrFrLFIYnslb8zHBwWN7PKkfGd2OIQDpShH1MSCaKOZp+GRgf+oWDMb5mM4LU8N5H2ngOO4m3RXG76bLouFsI7hRp81yI/KnkYfwuKwLq8eh8riTtPnFrlnRGWfBn+zZ2PPdeXI137r6bI5pkJadDqF8rPyFfR+GTfaeFYc13cQB9xoqsbdoJSSUVVpWkNTS18jOx8cEveLHS0GyhzeYU8Aj1XCyPEcLPkI+i5WR4ikmsRgn91eI9FlHhkNmSTkd/7ZXGyszEa4mKWb3Lza5JZn5jrbjTvvs0gLNH4e4tPqYBGP53oOlB4sy8SMRRPc9g259SsU/iyaU80mHjyE7lzEovCWR/vs2Ng7NFlbcfhbh8TDJk5M0gaNfwhBxX8R+1zvccaOMOGzBQCxGeItA8pvwiie6riBxoXuZhtLY7oWbK5rpKbVoOtiTsdizSMjDNQwV1WCUczrPRPGhf9jha0fNbissmO7Ya97Wa3GtVnlUva5w8sO5exW02EtNnU+iPIOQaZo71SFYYOA8TyGc0UAkb3Dwsn/hviw3xa93hbuJjT4buf7cyIduZdJ3G8eNn3mWwn+UXa1HNwh4e4sDpEB//ABFlbwTjTNiG/wD8Vb0niXDb8vmyH0FLUk8UH/dY3/U5UT/hvHY9Q667SBbeC/xBBO0ycrox8zXuFELlTeIs1/yCOP2FrUk4rnSfNkv+hpB792UxrbqvcrVl4tjxg80sTfd1rwT55X6vke6+7io3QeyyeKcGynxnPcJgw6BjdVus8X8DxG8uHwx3pTQ1eA2RzHug92//AOoDx/A4dG0fzO/0WlP474q/+G2CIejb/qvIBxO1p/F2KDu5HivjM982c9oPRmi5c+dPPfnZEsl/mcVrU7aqWZmI+QWHtQYQRzAruztrGB70uUMB4Fk37LsPBdgg9m6oOBkD79/usYBW5kxPFTMFg70tWyTe6IyMaZIy3q3ZZBhS8t/CtjBg+5e9w1ft6LYg+JtO3GiiuY6EMLQ4myFlZEA0kLZy8R0kvO1wAAGhKvhmMcriEWLuXuA0Wcrydan2veeGMT7HwHHaRTpbkP12/al1UBoZTWimtAAHZJfB25e2dr04z4ZWNxVnZYyuWTcSVDlRUOKx+ukcbxPlfZ+FOaNDMeX6Lwju69D4wyvNz247T8MLa+q4DGmSRrB1K+54mv11x5N17XR4c+DFxneewuMp2q9FhyYcOUgwNfH310WHKmJlLGmmt+ELBa9rg2TBj0PMddeqYOHFq0DRapAIUlnw0iNp2bA0/Cyz7LGc838LNFqOYR0SRXRjzGO+bQrfbWVwPOiaQTG5sra/Qrz267Hhl18RdjONMyY3R/Wr/spRqnVlqVmfEYXPid8zHELCdCkFjZNQ0p2ANVUI7qS7RVIyRrPMLPgOzrCwkkmkFNk+8DehXs+H1/hmKRtyALxGz2n1XsOAyeZwpo6xvc3+6K31QCSoBBbQsjQsbdllbsgYVgJBUAgFxfFjq4ZBH+ecfsCu5S894ud8WBF6vef2CDgnUlY5TURWQrFkaRj1K2w1VcXzrGdCskW5UG1jR+bm40X5pWj917d2rifVeS4HGZOMY7qPJGSSa0ul6tF4aEk1FCBshNAwLcB6ryPH5fO43P2ja1g/S/7r1zfnB7Lws8nnZWRLvzyuI9rQYlpONuPutuQ0wlajRzSNb3IUHZxIW+TGC3WgVsux7+U0nA2jXbRZ0Gk+B7dxzD0RFkTY7rikew+63SodG1wpwBRW1jeJM2KhIGyt9V18PxPivoS88Dj1GoXmnYzD8pIWF0Dh0sIPo+NxSOdv3cscze16pZWDwzOBGTjNaT1ql82BfE62Ocw+hpdHG49xDHAHnea0fhfqg7ub4FxJxz4WQ5h7HULzuf4S4ph24RCVg6tXcxPFMRIGRE6J35mHRdzE41HMB5WRHLfQmig+WTQSRO5ZYnMPYhYiwL7DPHg5g5crGab6lv8AdcjL8F8Nyml2NIYidq1CD5mWHskWUvV5/griONboKmaO264OTg5OMamgew+oRGiWqaWct9FJaqvHbigH2LGMLuUaF1LW47kNm8gkDzWiiR1C04MvIx2lsZBbuAVhkc+V5fKbcVBiQFXKnyoiQSNQSPYrax+JZePXJM6h0JWvSVIO5j+JJW0J4ub2XUx+O4U1BzjGT3XkAE9BuivexzxSfw5GuHoVlC8JjNyC4fZ2yk3uwErucTnzeCZzYPNMsbmBzS7cqK9AmuDj+JGHSeIt9Qujj8Vw5/lkAPqg3dFbZXsNxvc32KxhwcLaQR6FGoQbBznvFTxRzD+Zq15IOF5GjoHwOPVuoSJUOICdONefwzjZF/ZsiGTs13wlcvK8KzwWTE8Du3ULrloJtZYsjIh/hzvA7E2FenHkHcGcHV5pHumODO6yE/Vezfm+aKysWGb1qisbsbhk4+F0uK725gnU48q3hbWa8oPuq8nyzXIB9F6N3BZzrjzw5DewNFac+LLBpPjSN9S3RXpxyW2Nwr07LK8xuNMI9kCIp1OMYros2JAcnLihAsOPxeygs5Vs4EoxxLKfnqmqBPix5OIvjjYPKYdRe668WbkABgLS3o12oXBa0tJdZDjqSs0Uzxs4n3QenxJ5IHGQY8TSdy3RdBnFgP4jHD21Xlos6RlBwtoNmit+PiMDvmtvuqO+ONYVhskzWX+YELZbPizRl8b45B6OC84ZMWbTmY73C18jGxW6hoH+U0ir8T5WMIRBHHH5riDbRqAvNADqFtZDYA8nmYwepWs7KwozXnE+wRHrwkRad1ukfRc3QuQdkw1ATtAAUnSSYQCEFAQOkUmjRABNJMIEUIRSBosFCEDRfokhBYKLUE0pMjW7lBltIlYDOOgtY3SyHY0EG1qi1rMc8v1cStkUQgLRzJ1oih2QK0J0hAigWhBRTAJT8vuUAmk0C5AElQ0SQAXnvGWIZcODIaLdG+jXZeiCxZbWyYU0cjA9rh+nqiV82bg5L3fDEPq6l7LwkXswJcSZzS+J3O0NN6FeY4nhy4eQWuc4xu+V3dPheZJw/LbPEfRw7haZbvjLF8vNjnA0eKPuvORvMUzJBu1wK9v4mEfEeBtyoPiDdfb0Xhnakqo3+MsDc8yN+WZoePqtIHVb+b9/wrDn6suI/wBlzwg9f4IyPu8zFJ2IkaP2/wBF6Zrl4PwpkeRxyIE0JQWFe52JCy08v4sh5XxyjbmpebO69r4khE2BIastHMF4rcAoyAO+y9n4Sn5+DPhJ1hlP6FeMXovB0vLnZOOTQlj5hfcKrHq7RzLE6WJnzysb/wAyxHNxmn+JzewU4vU8XyHYvCZ5mGnCgD7rzvCOGDjLJpZ8l8bYnAEN1JJC6eY6bOjnhcahc74NNgsPDYG8IDyMyKnG3BxCqNzG8P8AC4RbonTO7yO/sujFjxRCocaJg/lYvOZ3iSZji2CWI+rW2uTPx3iMpN5cgHZuiHXvz5jW/E4NHqaWvJlY0f8AEyoge3Na+dyZc0l88sjvdxWMSkbEodfR4smGY/cuMnq0LV4pBNlRBhlEEXW9CV4dvEcuNvJHkSMb2aaWKSeWUnzJJHk/mcUHem4Zw2PWfPDj2Dv9FqvdwWLRodIe9WuRQ/KkW6bIr0zA18EU0TSIyPh0UkjW1HAuJ47cRuLO4Mey6Ltit+cYh+Ivi/5XLNajmPkAFALCWOkikDSQS0ralONfwHm9tUoQ9xqKFx07UpC154nmHxEk+pSoLrx+HcyRxL3Rxgm9Ta2WeGWj+Ll/9IW2Hn7QSvRyeH8Xy+Vkrw/udlycvhmTiW5zOZg/E3VVGkA52jWkn0CpkMr5RE2M852B0K73CeJiRox3ta2QD4XBu6rJibLP5jvnHUIOJDhTT5LoByse3fmOgXSi8Pk/xcpg/wAotVHiRxymVr3cx3vqtgEg/CSgI+AYg3mkf+yzDgeOwW2EOr8xWeB7iBotyyW6qI5f2eKLTymtPsofGwj5B+i28jlBsvH6rX5g490Vpy4cbxXLRK1ThZETvu287b7ruRYcsx+EUO66ePwTHLOfLzo4gPwlwVHlmHKZ/wCnH1K22knh7w4USDp2XpK8N4hHPmiRw6N1XDy5caWbK+yE+QXEssV0QceGLJkJEcRdHdErdh4DNKbZC0e5WLH4jNiROZFE14vmJPTRZmeLOJxN5YTDGO4ZaDqY3hfLe0BzuUegWy3wjFEefIyy0dQ5wAXmMnxBxbJ/i50ldmmloSTySEmSWR9/mcSg9pLg8AxL87KhcR/NzFbXh/8Aw3IznyYLARA2y/koWdl4BvcDZfQvB2J9m4GJXCn5Ly/6DQf3Xn8jP111vCfXd1QhC+G9SXbLESrcVBXOtyJKxueI2vkd8rGklWVx/EmV9m4RIAfilPKPZb1Y+2cjVvI8VmzuycuSUmy9xKeLUbZJz+AUPdYBoL7LrY2FHJwzklBujJoaX6LGcjwZXtcUu6ncob8R0BPst0RRivgCzN5RsAFthqR4eVLXl47yD1OiyY/DsifLkxjyRvYOYhx/oujDlyR9bHYqMnKEeZj5rNHA8kg7hQYOHcIGbFI+Wcs5JCwtaFlm4Pis4lhYrXPcJLdISen/AMBW1wogZPEGNPw+YHj62nhv8/jOTkH5Ym+U33/+Wg1Mvw6Wkuw5OZv5HaH9Vz8fzuH8Rx5Jo3RlkgOoXqpZ4oI/MmkDGjv1XK4hny5eK4xxNjxqrzJRq72QHHoRDxacNHwvp4+oXGmDo2Neap2lXqu/xf7/AAeHZYo+ZCGuPqFwpmAusqRamN3Mk8aFU0ADRDtlplJxi7EOT5gADg3k6lY20ZQPVKZ5prb+HelLNJgUGR4p/sV6PwxKOTJhPcPC89Jq53qV0+BycmeY/wA7CPqg9UFQWpHI4dVsMk5twiszdlkGyhpBCyN2QUFYUBWEDXmPFb+bi2PH0jx+b9T/ANl6deV8TRzDi5mfGRE+NrGO6GkHK6rDlH4WgLPsVrZPzD0W2WA6rc4dhZGfMIMZnM87u6NHcrBj48uXkMx4G80khoBekzJ4+A4I4bgEfaHj76Ub2oN3h8ONhNOFDIJZWfFI8dyttcTwww+VlyuNkva2z1of9120U0ISUDtUp6otURlS+RhZE35I3H9l4WMVG32XrOPy+VwSYDeQhg+pXliK07KUY59IXFYsJnPls9NVmym/7MD/ADKuFMuaR/QClB2IBoSsqmIUwKyglCaSgVIpNCCS0HcWFidjMJ00WZCo1HY7x1sLHRadLaR1Gi3ik4A7hBWLxnPxaDJ3OaPwu1C6+L4pbtkwFh/NGf7LguhaTposL4nDXdFe/wALjkM4HlZLXH8smhW8+XHyG1lY4cD1IsL5aXFuuoW1jcazMSvKncWjo42ER7XK8K8Iz7dEPLcfyn+y8/n+A8uKziSNlb0B0KrF8Vtsfaoa/mj3Xfw+PwTtHk5bf8smhRXz3L4RnYbqnge2utLSIo0QQvsf2tkrAJ4Q5p6gWFo5Xh/g/EQSGNY89W6IPlNWnyr2uf4ClbbsOYOHZy89ncA4jhE+bjuodQLQcrlCXKsha5p+JpHulYREcui7vA8SCTh0+QMMZmUx4DY3OoVW9LiWskckkbuaKR0bh1aaRXfi4vk8Nma6Xhn2WI6P5BofVdLiPC4uOtZkCYtf5Q8l3Qm71XA/xTLz8B3DprmfI5ojd1u13sniEPA+HwwPIkyI4w0MHf1UHF4VwB2XnZOPmSOhEAoluvxLX/wSabiuRhYBE/kbvJ5V6Tg/PHwx/EMt1PncZZCe3RbWJ9kZFJm4rGtbKOdzx+KkHjHDiPDpnxkStdGad1AW1Bx/JZpIBI1elw8h2LwebOmABl5pnAi99h+lLncK4RgScEdlcQg5pZeaTmBogdAisUPH8aT4X2wnuFuMyYptWPB+q5mL4Typog+SeKEu1DHakD1WlxLg+dwuWNsg5vMJ5DEbuvRQekTC8oziWZjO5S8mvwvC34PEBGk0X1aiu6noVowcWxJ9pA09jottsjXC2uB9igshvSwfRZY83LhFMmJHZ4sLBaRKDNJkY85/2vAiefzR/CVgfhcNl/gZUmM49JW2P1UF1KXEEaqxmh3BMwAvhdFkt/kdr+i05YpIDU+PJGfVq3GDldbC5p7grdZxDKY0NMolZ+V4tVHEBa7W1bI3u+VpP0WzxnikUccfl4cLJju5o6ey8/LmZMxp8zgOzdAiuu4ti/izMZ7nVa7+JYsegc+U+g0XGeWh3xan1KOYdkHRfxd5P3MIb6ndYH5mTKafK4A9lpl3qkX+qqNgtaL53Fx9SoIadgsBnA31U/aezVFfTLQhK1hs0JAotBQTU2hFUmpRaCrQp3QLQVaalPUdUFI2U2gIKBTvupUmUDSiUGTRS4v/AAkUoMrugCGym6cKQVTzuQpEIJsm1lAsJ7IIELPVUGtbs0J2laIf0Cam00U0xRUX6Joiq/RBA7qU0CTQhA7QknaKaSEIAFDqLHA9QhLoiOHmQR5kT4nUXM2PYryrozHK5hFFpor3GVHK18uTI1hsgksFfsuJxjBbIPtUI1A+OuvqrGeNfhUzvvMNx+6naRR6Fedkj8t74zuxxaV1Y5TE9kzfwOBWHjkQj4rIWj4JQJB9VoThtM3DMyDq2pGrndF2/DOO3K4m6F0wjLonAA/jPZZJ4IMKQ48+IOfYHuiONiymHIimZdscHaL3L+P4B+JhkeSLqqXn2SsZGWRwxtad9FpZULjF50ZNN0c0dPVRXpxxSHiL3YzYywuadzdrxr2mOR8Z3YSCs/DZ/s/E8aUHTnAPsVl43D9n4tkN6OpwRGkrildDKJG2S31pQEFBtO4nN+FjB67rG7iGWR/HLfQBaxIvVNjXP+VjnezbQU/Imefjmkd/zLGeUnUE+5W1Hw3NmP3eJLXqKW7F4c4i/UsjjH8z1Vcn2CRBXoovCsh1mzI2js1trZj8M4Tf4k80npsoceUqkrC9qzgvDYtsYO/zG1i4pjwQ8LmMMDGkAVyt9VUeQAJcGtaXE6ADqt+LgvEJaIx+Qd3Gln8Oti+1zSyFvNG0cvMeq9I14kFh3N7FQefj8M5LtZciKMemq2WeGsZo+8ypHHs0UusT2UO5qRXOk4FhGFzYmvEhGj3OulqQ+H5Y5mvkyY+UGyAN105GzHqQFrOkEZJfKB7lRXSdIwE+W1rR6BT5zvzLnHiOKwfFML9FifxvFb8rXvPsqjrCS+qfMuC/jrj/AAsf9SsTuMZrhTeRnsLVHo+W9VjkcxjTzvby9QSvMPzcqT553/TRYHOLj8TnE+pRlm0hz/MiPwNksey6MmfjuNguv2XGLwAp8woOuc1nRhPuUjnuGzWBcnzCdykXIOm7iD/+MR7LE7Prd0jv+Zc+0IN7/EHfhjHuSkeJZOzXBnsFphMBBsOzcp/zZEh9OZQX82ri4+5tY9lTddgT7Ird4UYn8Uxo5mExSSBjgDR10XqJvD+PBMS/LlEI3poJC8rw1jxxHFcWOAEzTZHqvoObqHn0tRXlzwyBsuVF5rnuijLr2s9F5pnyheqkd5fGc0dHxf8A9v8A2XHh4fAAC8vdfS1Uc40EN+LRoJ9gu0zGxWfLAD/m1WywtbXKxjR6BZ6ri4+NJkSNiY08znAbd19VghbjY8WOz5YmBo+gXjvC8P2nj0zqtkVPPv0XtLsr5vm5/wD1d9cNIpqSvnOqHbqCqcoK510iHnsvIeMcrnyosZp0ibZ9yvXFwbb3HRosr5txHJOVnTTu/E4key9/g4e2XsxtvIwMBe4N/MaXafPHjtka91As5Rp1XN4e25w8/h11XSnEJYHPLfMc7YdV9iPE04280QcNk9t1nDdeXbS03Y7JWcrjXqqjFYA1SewSRltXY0WvNiSskbHHKJG9ST8q2I2eWwM5rrqqNbBzH4ks7jqSyq9ei3sLMjweHsYG+bkyku5e5K4+UQMx/LsU2yFpJBPMevVB1ZXRskE/EH+fkfgx26ge61sovyZRJnScoHyQR7gdq6LBBjTPeHucWDv1XcwYsOMAxD7zq5+pUVT43yeGQDD5XkSW1pNnlPX91wpqu165jDPj5MBPzxmvdeSkHwhYn6t/GJu6HIbumd7XRhhdEX7fhQI/i5uyyVrohAtytnCf5efjv/nA/Va/VBPKOf8AKQUHsBoaWdmyxAEtY8DRzQ5ZWorOy6WdmywM2WdmyDIFSkKuiA6rz/izIZz4mLdPFyG9q2XoFiyMbHyo+TJibINviGoQeH66rVn1cT0Xpsvw6GkvwZeX/wBuTb6FaDuA5b9HOhZzVoNSr1OMnBg3hPCZuKSj76UckIPQd1yHyPeTLISZH633XZ8QOYzyYNfKgaGtaOpWL/Acl8AnsCRwvkI27BBv+HGFnBw47ySud/b+y6a1+HwnH4dBC4U5jfiHqSthUCEIUDCEk0HF8USAY+JD1c8vr0A/7rgHUrqeJZefikUf/Ci/qVynaG1BgkmFuYdgurwo4xhDGPAedXWuDIbkcfVZoYSQHFxYehpB7AYTiy43Nd7FYXwSs+Zh+i89BxbLxTyh3MAeq62L4mGjchlj1QZ7H1QVtsyeH5oFENcUS8OdVwSBwQaVpcwRLFNCakjPuFi5r6oMnOAlzqUkFcyXMkhAXqgpIOyCSL3AKxvxmO20Wy2KZ0QlbC90Z/EBYQ1vmHlZq7siue7Ge3Y2FipzD1BXWkx54v4kLx9LUiB8sReInOYDRIGyDXxeMZ2Ifush1dibC7WL4sOgy4L/AJm6FcR2NG46CisLsV7djYQe/wAHxBizgeVlcp/LIutHniQVJGHt7t1C+TFrmHUEFbWLxTMxCPKndQ6EoPo+VwnhHER95Cxrj1GhXCzvAcb7dhzUOzlz8XxbIKGVCHjq4aFdzC8RYk1eXkmIn8L9kHj87wrxLDJJiLmjq3VcmSGWE8r2OB9V9ei4gXNtzWyN7sNqJ8ThefpNCyz3FFB8ia8tcCCQQbBHRNz+dxc9xc47ucbJX0PO8D4c4LsWTkPQHULzmf4O4jiguYwSNH5EHLPE8uTBOGZyYCA2q6dl0H8e/wDshwYsfkfyBgcDpXVcebDyMc1LE5pHcLDzOCD3HmYXG+DjHZk+UKaHDYiuiXE3ebjs4ZwwtknABoHQNb3/AEXi+cdiD6FZ8PPmwcjz8Z3K+qN9Qsj20IbxWB0U7JYJmauF0QfQrmY8OT/ikv2ycyjFHJG731Wr/wCMcpsRBxYjIR81rLhcWxXYMks+SPtHKXPaRVu7BRWxnQY+ZxA5ORC10MTOVjNh6krkuxOE5QkEJlx5GguaAbaaXTyIvtXh4ztlBe5geWg7ehV+FeFY2Vw77VkNc5/O5o7UlvFedw+A8RzsI5cGPzR3Vk0T7LUa/IxXlrJHsc00RfVdrj/GDLOMXDcY8eEcjWtNAUuFY91Z9OOjDxnKjNSNDwt2LjcD681pjPquCXqHutOI9a3KhkFska76o5iSvIA0baSD6LZh4jlQEcsnMOxV4leta3lbqdSpc6iuJB4hc0gTxX6hbZ4zhyRONkGtiEYjT4jL52a/XRugWnKQ3QGih2VHbi1peSb10WpJI5ziXaX0VbJz/i0P1RJJZ0uliQgbnk9UrQhECEIQfUUBOkbLDoEITsIDRCLCRRTCamynSAsKgRSmgikFWEWkAE6QCoVSlO0FELH5Y7quZTzIHyMG9lMNYDsVINq20UFgoUpoHojRCEBohCKQCE6CECQU6RSIlMJ6IpAItIoCBpoCECtAKZSQRky+TiTyVfJGTr7LgeFOIQZL3YufqQ0ub/MOy9DIwTQyQnaRhb+q+cTxz8Oy+XVk0DtFYjscVw48fJk8kVC8ks9AtHizTLw3DyANWExP/su9DLBxnhoeND+Lu1y5boXvwM/DePjZUjR6hVHEjkME7JoyQ5jgQQvXcQxmcRw2SN+ct5muXjtHM9wvUcBz458SPGLqmjHLR6+yqOA7nbI6N2jwtrHe5lgkEdQunxrh4N5MTfi/EFyIGW8uvQ9FFV/g+TkO5sJgkj0N3XL6LZ8SwOa/GneKe5gY/wB1kw5pMDIErDbD/Eb3W74iY3J4V50ZsNpwIRHlEa0aRdpg0VR6zgOPhS8Ihl+zRmUOLXuIvVdVoaz5GMb/AJRS4HhWcCDKx3H5XB41+h/suu/MgZvK0fVRWdxcd3FTfcrUfxPHGzy72CwP4o38LHfVDrp+yKK4kvFXgGqH1XOn4nkv+XJc3/KEHqyO5A91ocWyYocRwEjHE6EWvLSTyyfPPK73csJAJvX6lEDdC4k7ra4bxB+BI46yMcKLb6rWpKkHXk8RZBFR4zG+61ZOM8Qk/wB6Gf5QtMIVFvyMmW/Mne6/VYiyzqSfdUhQSGN7J8o7JopAqTopWB1QJRemvsgCCsZu1txiWT5IJHezVss4ZmzC/s3L/mNKjklSV3G+Hp3aySxsHpqs7PD2O3+JK9/7IcebtMWTQ1PovWM4Rgs2g5j3cbWdsEMQ+CJjfZqHHkY8TIk+SF5+i2o+C50mvI1o9XL0ji5QXFDjiN4FI3+LM1vtqrHC4GfNI5y6r/iFrWlexmrnNHuVDjA3ExmbRA+6ytDW/I1rfYKPPjPy2/8Ayi0F8h1ZjyuHtSDK15EsZ7PH9V6ycc0Y9WLxxGUQH/Zi1oN25wXsWuE2LHIw8zS3cIPN8TBZxNzvzMaP2K0mCmj2XT40Kla4dCL/AEK0Y8KeRgLMnG+UHlcSCAqqNlQduTsFts4JxF8YcyTDcD/71KZeDcVaxwGPG+xvHKCsWNT7XZ8FYxZw/IzHDXIk+H2C9F0Wtw3G+xcMxsaqMcYDh69f3Wwvib8vbO16MYFDiqOyglee1uIKhx0VHZY3nosOjmeIMr7LweV106X4G/3Xz8316r03jLK5siLFadI22R6lebY3nla311X3PD1+ut5N17W9is8uJp6nVTmS+XG3S3A2tgFugHQLn8Svzx25F7HF1GvDyx7dnNC53F5HCaMNJFMv90+HZTGRFkrqDdvVa/EZ2z5AdH8obSI6PDy2XG8z8d8rj3KMt/2duvzEaLBgStx8Eh41LiQPotaR7p5BuSSiMQDnyXVucV0cfHEYtwt39Fj4fETLI4jRvwhbxaUVAu06RSaK3eF5b4uIwRudcb3cuvSwuZxCHycvIiquSQ17LI55jcyUbscHLa8RxgcRErflmjDwsflVwxoSFSl2jlXRbZSgplJVCQRbT7ITCD2nCpBPwnFk/kDT9NFteWFy/DEnPwlzP+HKQPY6rrhFJraWVopIKggoK1ITQCRVILbCDBJusBIbb3bNFlbL4zWmq43iHIOJw5zG/wASX4AEGpwmP/F+KPypBcEB+EH8Tl6mMCx2WhwjDGBw2GCviI53+5W8LDSewVGlpZ90LA3LxuaRnnsBj+YE7LXk4xgxf7wvP8oRG+hcaXxDF/uoHu9SaWlPxvMk0YGxj01Qem0A1ND1WCbNx4R8UgJ7ArykuRPKfvZ3n0tYqBNkk+6DezRBk50mTJPQfQDQLoBYbw2j4Y3yHu7RYRSzT5AMBju3aAabAIMUrozo2BkY9FiJKZKSDVljBfd1ah8DgLGoW62NrzTtlf2Wh8Dvog5jXvjPwuIK6GJxrJxq+In6qZIDXxs+q1n44/CdVB6bF8SQy0MhovuVuhmBmi43BpP0Xh3RubuFcU8sR+B5CD103C5WaxO5mrTex8Wj2FvqtHD8QZEBDXkuau1j8cxMoBszQD3QaO6a6rsHEyvigeAfQ0tSbh08RNDnQaqOhQ4Oaac0tPqlaD13BMvF/wAKix8WaMztb8TJNLJVZPDcXLJGXj+RJ/xI9LXkKB12d0IOq6OHxvOxAGvd9oj/ACyHX9VlqV038IzcQtk4bleexupjkO6zcL4hHLLJjZGKMTIbRLXCg/2VYnFuH5lNDziz9nbX7rdyYWT44blwtnBOj27gd7RfjDkcMxMgnzYA0n8TdFysrw0SbxcgO/ldutwYWXEObhWcJGj/ANPka/oVH+Mthf5fFMOXEk/ONWn6qynHn8vhmVjX58Dg0bu3C0HYzHbaFes4pxKCbhc0UWSSHDStb9F5qlWa0nYr26t1WItc35gbXRpIi96KI18biGVjOBhmcPqu1i+Kp2UMqNsg79VyHY7HbaH0WF2M8fKbRXt8LxJhy1yzOhd2dsu3BxHnaC1zJQerSvlDmub8zSFlx8vIx3B0Mr2kdig+qyDAzG8uRCwk/mauVmeD+HZQJgPlk9l5jE8VZkQDchrZmjvuu3heJcKUi3vgdf0VHIz/AARmQW6AiRo7LgZXCszGJEsDm16L6lBxLnbcckcw9Dqs5mxckcs8Y1/MEHxpzS3Qgj3UV6L6xl+GOGZoLmMDHHq1eez/AAJK23Yzw4dlODx0WTNE0tZI4NIoi9CF2MDxTk4HDxhtgjLA0hrhuLWtmeH8/FJ5oXUPRc18T4zUjSCpcYrJmSwvlBx2ljaF2dz3WtZTISpVOgFMpAKqURKadIooJIQEzskEFjZY3nVWTQKwk2UAhCFQIQhAIQgor6haeqdIWG0oTpMBFIAp6JqSEQ9LsJ3ZSAKeyKYTU2mDogEItIlAyUIsIsFAI07IQgEwVIBKoA9UFWnaQCdIC6RzBBFpBqC+YHZFpAJ0iDVAtCYCKaN0EEphqCKQVZCmkE8oO4TCdJ16IBCEIgtIpFwHqmCD0QIDVczjfC8fiEXM/wCCUChIP7rqqJG8zSDsg8PiedwTO1cJYH/C8Dt3XfkgZLkRzxkEEFrv5mlTxXBBb5jW7bjutXhc/IRA86btP9lUeYmiME8sR/A8hKKQwTsmZoWOBXX8T4YxuLc7NY52B7T3PVcVw0IVZe8cWyMBOrJACvO5+M7EnJY34XHQrrcLn87gcEh3j+B30W8zBPEoXRsZz03mB/sivOsg8xtulaB2BW7ixNdhz4oeXBzTQOtLnT4zsWd0UjSC07Hos3D5fK4hCPwvPKVRwAC22ncGk1scSh+z8SyIunNzD6rXGyIyY03kT8xBIIo0to8QH4IB7laKoKDO7MnO1NHssZmldu8qKRSAu9yShGnUhIvaDV37IGhWyKWQ1HBI72atuLg3EZRbcYtH85pFaSF1m+Hcurllij9tVsw+HccfxsmR3o0UoPP2O6Rc3a7PovWx8H4XF/uDJ/nda2GR40VCLHibXZqvTjxzIZpNI4JXH0aVsxcI4hLtj8g/ndS9S6bSrodgsL5SoccZnh/IP8XIiZ6DVbDPD+MP4uTI/wBAKW6ZLQHlDjFHwnh0f+55j/MbWwyCCIVHBG3/AJVFlWHjqi8WHEbUB6J2T1U2DsgGk6ikwLUqgVegLVjLVmBtc+TiOO6by+dwiF80jRuewQ4ySPa13KbJ7NFn9AtaTKdX3UWn5nLcjzZQ5x4bAMSN7A1z3avPra1xiBri5xLj6lBr8vmNuad5/kjFD9VUTY49WYcRP5pDZWVw5dhosfMiiQzv+eUNb+VgoLEW11d+qyFyTqRGtOS2Mu3rVd7hMmZw1pLR5sUjQQKsDquLIAY3D0XpuHO5sKAdgAf0QcPO+05Ekkr2V1rstSM0wc2q7+SObzPchcFjbHsgr4XaUtnhUT5+NYcDCQObnfR/CNVrhtEFdvwnDz5+ZlH/AHTBG366n+i47cvXG1vGfXqCbNpIGyF8Lvb16YTtliKyOWIrGTeJO2WIkA27ZupVuK5fHsr7Lwid4NOf8Dfqrqw9spGreR4nimSczPnmP4naeyw4/wAIfJ1GgWEnqtpo8tkbDu4cxX6PCes48GV7TMuQPnDG+qxTOEht8rSQNqWWMGSYk7BbzCxsZc9rA1o1JCrDhhjSa/oskcbG6kWs+VMJDzNaGN/CANT6pYjA9/O/5Giz6qjJHFbDLMajGw6lW1v2eA5BbUsp5Ym9R6rG+QZEtvNQs1rutzFjM0v2mYVWkTD0Cg2MWEQQNjPzbk+qzFgI0KQ39VdFFYHRjspLfRbJBKkxk6oNR7OZjh3C3OJ/f8GwMjqy43f/AD6LE5hHRbMTfO4Fmw9YnCRqmSx52RpDkDZXJrr6KBsrE4R3STSK0yEkItB3/Ccv3mXD0IDwvRt2C8j4ckMfGGNH+8YW130v+y9ZHI2qOiKyjdZGhQ0aXYA7krHLnYeP/GyY210u0RsoXKl8R8PjH3fmSn+UUFpSeKJSahxGtHd7kV6MAnoqILRbiGjuTS8dNx7iMugmEY7MC0ZZpZnEzTSPPq5B7WfiODj/AMXLjB7A2V5nifEYMviuNPTpMeBwcWbcy5dN7BI6bIO9keKJ3OP2fFYwfzG6XPn4zxKcEOyS1p6MFLRNoRAacSXWSTqT1WWJrACSG7dVhS3QZcktMx8sANAG2xWJLohAIQj6IC0rQSkgExqlSYQZYRoSs7dlijFNWUILGyh+PG/WqPorCaDTkw3fh+ILVfALotIK66CGuHxAFBwnY7uhsLEQ5p6rtvxWu1aaWs/GcN22EGpBnTwEcjyuzheJpYwGy6j11XIfjj2KwugeEHtIeJYGa0B4DSf0VScLikHNjvH/ACleHBcw2CQVu43FsmCqeaCo70uHNF05q7LBdGnCj6qsTxK1wDchoPqd10mS4Oa3RwBPQqDlkB24Wzh8RzMF33EzuX8jtQVnl4WQOaJ2n7LTfBLH8zDXcJwjv43H8OdwbmQnHl/4jBbV34/KysYB3l5MX5t189vos2NlZGG7mxpnRnsDofonF69Ll+G8SV5dAXQHsNrXD4jwjJwvioyMPVoXTxPFMgpmdCHD87N128XMxM5nNBMx38p3/RDrwISWxnyifPnka0NaXkADalgRCpFJpIFV7i1ifjxu9PZZkKjTdjPGrTYWJzXNPxNIXRSIvdBpw5U0Dg6KVzSOxXYxfFObFQmqVo6ELnux43bCj6LC/FcPlNoPYYXifDlrzOeB/cHRd3F4l5oBimjlHa9V8tLC35mlXFkSwuuORzSOxQfWvtUMg5ZmV7jRamVwLhma0ny2gnqF4bE8T5uPQeRI0fmXbwvFOHMR5zXQv7goqc/wI0gnGeL7bLzed4XzsS/gJA9F9CxeJtlA8nIZID0J1W79rY4cs0ZA9RYRHxqXFmhJ8yJwr0WK19jl4dw7MabYyz1C4fEfBeM9rpGOa0AWSdKUHzhFrPmQRxTyNgJfG01zLWO6CkglaYUCedFjTcbKlUNCSEDJRalNA7QkhB9TSTooAWHQBMJ0kgEItANFBQBqypcFRdYpQbQFJ7BJF+iKEUhFFAaI5kw0dSnQGwtAhZTTp5GmiPKeeqABRza6KhCT1T5A3raCRaoA0guaNkc19EQ6VBqnmromC7sUFgAJEtKR5j0U6jrSDIGik9uyxizu4phqoqx3TBSDVSgRPYJGwOlp0bSIQQS7v+iQB/MU6SBANWgYodE0tFXRAjaLVAJUgkFXy2FJoK2m9EGKSIOaQRuvM8Rwziz226JsHsvVkLVzcZuRCWka9CkR5XjL/tPDsfKr44SWO+q8891uK9rHwWTN4bmsa4B1U1p6karz8Xhfi8sHnNxgIx1c6tFpG74UmD4MrFdrqHgLp8NzsnDzZcRkhafmaO4XH4NhT4HE2ulLaeCwgFdHiP8As3F8PJ2DjyO/p/dUHE4HzsM7iXSbuJ6rjPdyDnG7CCvVyMokHYrg8WwTGDLGLYegQaniWMfbIchu0sYXIK7XEP8AafDeNONXQO5HH0XGKIkeuy38XheblRNkhh+B2ziaC0OlL0/h7IMnCfLJ1ieR9FCNSLw3lO1kyYox6arZj8OYzT97lSP9Gil0xKNki9RWtFwXhcWvkGQ/zuW1HDixfwsaJn/KpDrTs1oisj5y2gDXsFHnOPW1glcSCOqiF5+V36oMzpXHdYzIVkFHsjy2lQY+cnqkSVl8odFPJ3QQilZalylBjIHZMBXSdIIAUOFLPyoLb3QY2u0VgqeSiqAVDtPoika0iObxnLfGwYsVtLm8z3DslwzhzSxs0403Yzp7pcUic7I8wC6ZylP/ABhkUTGiEkhoGp3VHUI0Ului5B47Mfkxo/q4rE/jWY66bEz2FojrPZfRYHxHo1cp3E8t285H+VoCxOypnbzSH6oOqY37kUlS5Bmd/OT6uWWPiE8XytZ9dVB0/L5hS7PCHExvb0a9tfoV5j/GMrQGKIj2WzicTHnNE3NBzaczTog6PEMl0Xm+XqTkAf8AL1/otOJvPLIwdyVll5WOPMS6+o6rn5XEZIpvIxIWscRZduUV024rat8nJ70vQeHIGQ8Olcx3N5kpN96AC8DHE54dNkyFxs2LXsfC2fjjhjMNx8uRriW3sbK83ky3C8dNd+vRBydrHqCna+K9XA4qCmVDisVqIeV5TxllAvhxGn5RzO9yvVEgHXYalfOeL5Ry+IzzXoXaey9vhYdz7/xjblyNWJnmTtYOp1WctMuS4N6aewUYp5GyTE1QoFZIGzltQM33e7qvsvFWXGADHlxAp3VYs7JY+JscZunWa6q8fFbkyyCS7j0IHVVkQNx8pjxCTG1ugaL1VRog+Y4lwPsrdJYEcYPstprH5T+aQcjewGq24sWNh+BtepRWth4R0fMNBqGLpVdaIa1XSgQarQAmAooCoBAaqA0VElodus3DYx9rliPyzxlp91FK4T5WRHJ+VyzfxY83MzkcWHdpIWFdPjUIh4nO0bE8w+q5h3WolJSqKkrTAQki0HQ4DkfZuPYMvQSgH2Oh/qvpmZwvEyXFzfupL+Zux9wvlGOY2vc57i1zRbKH4l7jA8Sv5WjLbYIHxBA+J8DlDKl53M6PY7b3C87Pwh+Pb42CZo/VfQsTOiyGB0EjXtO4tTk8Oxcqy37qQ9W9foivmUzwXhoY1nKNa6qF7HinACAXSQhw/wCJGP6rzeTwuaEczPvGem4Q40kJdSKopkUiEhCKKBItBCSgOqSEKhJpUmgSppF6qUiUFyNaBbSsaZKBqgSYQmwWUGduwVhQFYQZAmk1UEAhCaBIQgIMb4WP3CwPxDuwrbQg5ckPR7Vgdji/hK7ZaHCnCwsLsVh+XREcV0TmojmliNseWrpPxnt6WPRaz4g46tpFbOJx3Jx9C4kLtY3H8eemzMF99l5Z2OR8qxlrmnakHufJxMsfdubZ+hWvNw2RnyH9V5OHLnhPwPNdl1cTxFNFQkJI/VUbj45I/wCIw+6kGjbCQe7TS38fi+HktAeKJ7LM7CgyBzROafbQqDlVQqkltT4E0Z+H4h6rXc1zNHNI90RKEIVUkJoQCSZQoEhNBVEkWsboGO6UfRZU1BpvxXNHwutYixzfmaQuhSKBGotBpxyyRm43uafQrqYniPOxqBeZGjo7VajoGO6UfRYH47hqDaD1mJ4pxZaGRGYyerVPiXjbTwbysPKLjMad3AXkC1zb5hSxzuqMn9EGAZMkbTGx3wHcUsLjZtSdSmgAU9m2kh/QIIKEIQCChCBJpJoBAQgIPqiEIWHUIpNCCaQqtSa6lECaQIOxRSKeiVp/RKvRA7RaVFOu6Bcw7qmu9VIDR+FUPZBYeKT5lICrlQIyHYJUTuSrDAeibmHoERAAVih0U8ruxTDHndBXPWwRzlMR/qmIz1QqbJRSyiMDqqAAVRhaL6FXy+iyXWyRcTugikKilr2QJFJ0nQUVjICksWYgKTSIxgUVYS62qpFJBCaEEcqYFJphBdAi1JAQ0kaFU6kHMyy/DEmVCSC1pcQOq4c/inJcyTHbE4CQfm3teqkiE8b4iLDwWrwE7DFkeU8VJB92/wBwVqMpHE5fPileOXy5AHAdl3+OM8zh3mt1MZDgV57Kw5p8sQ40ZkfMAWgL0kolx+HjEy4ZHSuj5aY3m1pBuwuGRixS/nYCsUjA5pjdsVqYGWcPh7YsuN8LoiWkP3A3C3mvZkQCWJwLXbFBxY8TlxuIYRHwkeY0LzTNWAle5jjBmDyNeUtPqvG5cXkZc0X5XlEYF1/Db+XKyIej2Bw9wuRWq3eDyiHi+O47OdyH6oR6atEUszo6cR2U8lFRpjAINBMihSyhqlwQa72t/CKUBuqzPCmlF4lpVWbRSYRGVjhVHdVQWIBWCUDICghVVpEIJpAbadJgIEAmQhM2VRCVaq6RSBBPlQUAoNcwyt4gzJY5hYALY4dQlLwT/FJCYCyOY/EWHQb9Ft7oDdb1vuFUcyfwvPiD/aRKwfmZ8TQsA4AXi4s1p92ruslma4ls0gB3BNgq/s3Dsn5/MxpT+OI6H6KjzTvD+UzX7TDXrotSXh80O8sTz2a5esPBpJnf7PnxydAJxVqTwXi0Z+HEx5PWNwQeR+x5R2gJQcTJb82NIPovWnh/FhvgS/QhUzh3EXEB2LMwdy26QeP+zyj5onj3CHsJbRC9/k8Lw4WiOcZmQXDXyxQC4GfwFnm/7B9pLD+GSM6fVQcmGdzscNJ1bp9FrZXMHslZ8wK6X+DZ8TvhxpHj0aVlZwXLlkYJsLIbET8RaNQPREciXIbM17vL5ZHb1sszJCI4i00WjouhmeHpTlO8l3LD0dKQ0n6LnPh8iR8XMH8hokGwpzqy8d7hvieSBojy2mRg2cNwu9Bxrh2QAW5AYeztF4FrS4mknAR/NovHt8THK9jrNtj6S2aKUXHNG72clISyNzg0uoE0Oq+aee5h+7kcPYq2cTzIz8GTIPqvP/g//t0m56ebiuU7g+dPNH5bdGRaUSTuvFudp6lbOZxPLzWhmRO6RrdgVjwofPyQD8rdSvfq1zCfHLPP2dLDxWtxmNeLPzFbEsrcWF0hb8uwC6UOG90THtaCCAVjzOFyZWO6LRl1qurHHD4Q8uysi93N5q+q6t0o4fwPIw53yPcH8zeXRdAYjhvGShxp6HoEcq2/szgf4DkzAf8AguUXjTqkwtowtGvlOv2WXHwWyQO8222dAg0dtyB7lZWtsXoR3CzTcCwsiQvkdJZ/mWbF4VDixlkMjqJv4tUGmRSBqtmfhRfIyQ5Ba1juYtDd1pNcQ6TnBbTyG+otEZaVaUoDgdlW6K0/EDOaTGyPzx8p+i4bhRXo+Js8zg4P4opf2K888UUiVBGigrO6Jv8Ahzsjzh5gfyiPqQsA1C0ylCsNLthqs8WNRBkN+iIxRQOlN7MHVdpjP9njcNQW0tUAcvKAuhh64bBWxIVGOKaWB/PC8sd6Lu8P8SObTMxpP84XIfE1w00KwOjc31CjUfQMXNinYHQvD2ncKMnh2LlW5g8qTu3b6heI4f5pymtgyBAdy9zqAC70viCHEj8uOT7XON5Kpqzc+NcYczwy6WQh4jb/AO6DS57uAcLxmudl8TkdyakRt0Cx5vGMrLJL3kDoGrTlkldAYJmv5H6/EKtcr72tf6xtsxfDMgpufkNPchX/AIDw2b/yvGWa7CQLgS4EJ+Jjyw9lrEzQGnt5md1r1y/qp2PSyeFc4C4JsfIH8r6WlPwPicIJfhSUOrdVoY2Z/wAOV7D6OpdSDinEIR93mSj3Np/vD45ckT4jUkMrD/M0rHzNPVekZ4i4ly1IYZh/Oy0n8Zx5v/N8HxpPVuie2U/YnrHnaSrRd8u8PTWX4WRAT1Y7QLm8SiwYpGHAnfJG4Gw9tFquOzqXBolIpki9whdZWbCRsikwEQlcY+JTWuqyxjQoLCoKQqG6C6JGixDIDX8sja9Vu4fl+YWy6BwoH1XQmxuF5MBFGGdrQAALDvW0HKaQ8W0gp7LHNw18T7ikoLJRAAOpQCEJoFRRSaEQkJ0hFJQ+Jj9wrpMoNN+Id2m1rvic35mrppEXuLQcZ0DXbaFYXwPb0tdqTGY75fhK15MaRm2qDlAuYdCQVtY/EsiFwIeSArfHejmrC7HH4dEHdxPEZNMm1H8y6keZh5QokC/qvEujc3ohkj4zbHEIPbScNjeOaF2noVpyYc0fTmHouJi8ZyMcjUn6rtYviKOWmz1f6IMJ00Ir3SXWDsTK2I+qxScNFExkqjnIWaTHlivmYSO4WKwgSE0kAhCAgEIQoBCexSVEmiNRa5vEi1pZGN6srpEgAk9NVw8iQyzOf6qDEhCEDHfspcbKo6D3UIBCEIBCEIEhCEDTSTpB9SJpIO7AotFmlh1Oz2pGp6pC00DoEblTyNtUEIANA6UqpIJoCkhqU6VB1bD6oIKFW6YCCKVAJkBMBEMBMphPTqgmymHO6ItnRMUgOY7FMWighreUklxPugoWjVK6VAg7Khap0mhRBqmkqVCpCaECtBQhQJKk0ICgjRSbRqigoTpIoBCWqaBdbV7qaTBQPlXm/EfCYWQzZ8fMJXEc3ZeoAsLBlQNycWSF+zgQqjx3B+J/YczHm5Q4PHkkn8Nnde0ZxcNc2MYxcO5cAvneTizwMfCI3211tIHZerxZTkYkUjmkFzRzA90Ri45jl+QX5UjMUSHmaNy5aOBxjHifHgyEho0bIRQv1XUzM3hc3DZYs7lmlxT9238QPZeOfjz5LvucV4vqeiqPaFojmY57bjBBIHULy/ifG8nigeAA3IZ5jWg3Q9V2uEYsuNiH7RO+WR9XZsN9Fo+KIvuIJvynkJ9EV5ukBxjc2QbscHJlSRbSO6D3xp7WyN+V4DgoLVi4NJ5/BcZ/Vo5D9NFt8qisACHNJWUtSpQajmkFKgtiRuiwEUgVJUqS6oKaFVJNWQNVEIpZOUIoIMfKkre0kDlNJH2UEp62i9ShAHdJNFKiTsoWTopLdUCa6lkDrWOk75dXGgqMoTIBGo0Ws7KAH3Mb5XdC1ui6mDhYRxo8nimQeYizBdAenqiOP5eVPk8mC17j0oWF3sLg3EiwHLzPJaNwzdXLx+GCPyuHY4DRsaoLk5mdlzt5sjIcGn8LdFUdXLkjwWjyuKyc/UHVc53iDJbYM7nAdQVypIy/XUBT/hsz2cwjcG9yFR03eJpG75E3/LSwSeL5WCo5J3n+YBcebFdGa3WuYzWuhU4O2PGGedQ19f5qWOfxNlTVzscT6vXDOhonVSXhupcAg6juMyOPxY8f11XL5qLj1JsqWyiQuA6dUAW5FZ4N/dc/LlMmQ8g6A0F0XuEOM953qguPrVndGT5j3QHO7o5Ty30QoqgV0cHkigDg74nk2uaAulBmeVFHEWCmitk4r02NmNGJCDr8NaFZRls6seuAyGPKBLSQ6rFLPgzPcXQyk87dllrrsjLj/K/9E/tsX84/5Vogp2g3hlsJ0e79Fk+0tr5yubzJh/QlQdH7Sz/ihH2iLrK1c7mVg+iDeGRD/wAZn6qhkRH/AHzP1WhQ9P0Ryt6tB+iDcysuJmLK5sjHODdADuVy4p80C3wxPB1o9Fs8kY1Ebb70ggqjEMj8+DR/kcn58Fa404PoVaY3UECWLKx8jGZHI0uYXDm7heekhLtR2XpgeSVrhsN1xs6LycuRg+U/E32ViVzxjnqWhPyWt62shTY3mdRWmUNZ2CzsYiNnK4g7LM4NibzPcGt9VUDGahbWP8LXN9bC5o4lEJWhrCWXq7sutB5PmxyyAvhv4gw7hA1immjiHxPF9rV8Sy8KRvJhYr4aOrnOu1xZowSXb+6K3Hvx3H4XgnsiOSOOVrpWGSMbtBq1yzoeyyNedinDroQiXNyjFhwfG6yG82w91hyJp3yOZkSP543cjtebl70tbmIdzBzmkdQaWw7GfBG0kGnakpxDyhjtnrDmlmi5dXSN5Taw1e+qY7BVGx0soiiY6SQ7BotS/Fn1rTYTXjmi+F29d0Yjsh0giiY+V+waBa9XgeFpOVsvEphCzfy2nX6rtQfZMCPkwMdsd7vI1P1Xmz8jHF1xwtcDF8O58rA/JdHigi6cbP6LZHhqEfxM6Q/5WrqmRz3W9xJVB2i8mXkZV2muRzmeHeHt+Z88nu6llbwXhbP/AEpf/mda3LSLlj+bP/rcwjB/h3DuUt+xRAEVYGq8VnY32TOnx9ajdp7dF7kuXl/EUJPFy4fjjafqvR42zK5crntxnHGpC2W47fxuJ9AsrYo27N/VfQeRpgHo0lXHeo5SK7hblkVVBMnmGqDVAVBZTH2UcpagbdCszZaWIJoMrpLG6xhJMIBNCEAmkmgEaIRugEk0IEQikykgSCmhBDmhw1AKwPxAdWGlsoQc58D2btWB0LT0pdcrG+GN24r2QcZ2OR8ptYnNLTqF1n4pHymwsD4iNHNQasWTLD8jyPQrp4nH5oqDiaC0HwA7aLA6FzUHr8bjmPOAHgX6La8nEytWltn9V4TVp6hbEGfPCdHEj1Qeqm4Y9msbiR2K1JIpI/nYR6rBh+InsoSE167LsQcUxMoU6mk9QqOXd7JrrPwYJxcRFn8pWpLw6aP5RzINNCpwLDTmkH1S0QJCEdUGrny+VjOrd2i41Lc4lLzz8g2atRQJMalJUNGlBLzZ9lKEIBCEIBJNJA0IQgYTSTQfUg0J8qNUarDoKQjVCKVJ6IpFIgpMUEIQHN21QNUuSzvSprA3raBgJ0gGkWgKRdIKEDtCSSBlMJBWAKQHMmHLHGwtcb2WQBA6tUKCkaqw1EMFO0BqvlAVEVrsmAVYATQRRQAmgBAcqfKmhESWqSKVqSEVBSVkJAKDHrd9FQFhV6IG9IqeX1RSpCBdEhQd7qlLhYQXzHUApHagk0WLVAINLJxw53Nyha/llvsuq5oLaWB0YoghVmvH8ZjGPx6GevglaCdNyN1gyeLzPdIzGcGhu3w7rocbY6SdsbtDEbYe4XAefKynHoVSPUcGn+0cNE+tvcbBN0fRLjUXn8JnAFlo5h9FoeHJqxsiE/gksfVdfzRX9iorwwPMNGuJPYLaxOHZuWSMfGc6tydKXsI+QglsbGgflACw4RMHF5Ib+GVhr3CJxPAsLJwMF8OUAHGQuABul0QEyEAI0khSQstJFqiMJbYWCRlLb5VLmWNkGkRSSySMorHSKY0WRpWJZGoi70QkUUqDVJOkUgjqmFXKjlCCeVMtVgBTJJHCLkcGj1QLlpDyxjCXkAeqxNlyco1iwFrP+LJoFf2fCx3h2S5+ZN+XZoKoxwtyM08uDCXj87tGj6rYGFg4R5+JZP2iXpEz5QnLmZU7eUOEEXRjBS12Rsab5eZ3c6oNubiuRNF5WHC3Hh6U2lpfZ7PNNIXu62stkpe6IC6GEauDfS1znTmeXmPyj5Qp4nDDLPFOARIzTfQrFEdyPwqo6eHxOOCRtxte9v5hoCu9DnR5mORKBZ2AC8VE175WtY0ue5wAaNyVuP4ieHOeJg5kkXwmM72qOnxRuPiQmSQtHYdV5WeV8pJiZp0tRNmz8QyPOncTr8LegXV41n8H+wRHFY9uXQDoxsPW1Eefmdkx/M2gtVznO3NrOcuUuvSu1K4WwzFx5eVwF10QVhU2N17lZ49XBYomvc4iNjnewW5DhZB3Y1n+YorWz5LhYzuVoHRd53BZHPDpnl0dixGP7laDuF8hJmyYYhexfZ/QIOemN10WYXDiPizng/yxEhZW8JxJdIOKw8/RsrCy/qUGPgnCZ+L5phgHN5bPMeLrS60/VdDN8PSw/FjPLyPmgkHLI3/VZ+CQZHBZZZpHcj301skZ5mke/wCi9RFxbFzmCPiMTH9pWbj/AEQeEw3vhlp1tc06g6Uthkt8Q5x9V6/O8PQZbDJHWVERu01I32PVcP8A8POxuZ2LIZ2t1cwint9wstIa8OVrBRa+qII6Hosw1UU0BPlKKQA3Vg6pIpBdp2pCYpA7KeqQCYQFITop0gg7FanE2B8Mcl/eM0ruFvBhc4NaNSaXn/Ez3x8SMLX/AMIAfD3pQpFuuybQtJuVPjhnnDma4X6hb0TmSM54zbf6LcYbUMYNWuRxAObnvbkF3KBbO1LsY7rFKc/DGbBTdJG6tKqPOPfdgCgvQcFdfDWjs8hceCLG8jKbkmRuS2hE0DQm9bXU4O18eJIwjZwIQXnMMbuZux3WoZLFVYXVeOdpa7quTKzypC130QYq0IRXofqm40QUjob/AKoL5Q4D912Y83GeyRs7qazdcLzAL1/RasslyO13KDdaXZmYIcVhBlfysavoOFh43AcIRwhpnI5pZnfuvG+Dgw8eY53+7YXN911vGGTK3EiawkCV55yOtdF5d2VuUwjvhj866MPE8bPncyKfzJB0pZvZeW8JY738QfkhpEUbCL9SF6oLw78JhlyPRhewBUCkBZ0WpmcVw8H4ZZQX/lbquWONvyNWyNwuoEkgAdStWTPxIv4mTGP+ZcPPz354pslRno0rkv4fzH4HEL2YeL2drjltn9PTS+IOHR6CRz3fyhcrOyvtuV5wBa0N5WgrUxuHSRm3NJHelsvgeBbfiHovTr0Y4Xscstnt8YkwjTZFL0OICoBATCBp0DuElQ1QQYr+VS6N7fmaVsNFK2vI9fdBohUFtPjY/WqPosD4XN13Hogm0Je6aATQhVAhCEUUjdNJAdEI1QgSEf0QgEJpKBIKaSqEkQCKItUkisD8djttFrvxnt1Gq3+qCEHJfGDo5tLE7H/KV2HMa75gFgkxAflKDkOY5u4Qx7mG2khb74Ht+ZthYHQtPSkGXH4rPDXxE16rt4fiMEBsx5vRy80/HcNRqsZBG4UHu2ZeHljX4b76hTLwxjxzRGv8uq8TFPLEbY8hdLF43NDVk+4QdabEni15ecei1ZHljHOcC3lF6rexeOxytqQNf+xWr4izsZ+KyKA3I824EagKjzr3F7i7ubUpopQKlUhApo6KmtoWeixONklAkIQgEk0IEhCEDQkmgaYSCoIsfVEJ0hYbKuyKQmgk30RynqqRaBUnQCVlOwihCE0QteifukmgEITQJK9VVI5QUA02dlkASFAaKggKTpK00BSsbKQqtEMKlF6p2qKTUotBSSAU0CshO0JgIJJoIFkbKqB3TQQQpsdAVkUuFhBNEp8iY2TUE1aA31TICRQFAKDuqKmkUA0SOioKCqCCknsvUJ2mg5XGMD7Rj87RUjNQQvE5bC2c87S0+y+lOFtK0cjFjk+eNp+iqceGxpZcVs0sLC8urSl0cPOfPHb2FruoIXedhMbo1oH0WpmYha3nb0ReFhP5nSMPVthRxBxgz8XJA0Dhf9CseK4MyWHuaK2eKR82Ie7HIOgSHElu1pLS4fkBzGhx3C3igSEiaRagEIUkoiJI7C1S3VbhsilgkZXZBh6qgUuU2qAQUEIAVUqJTQUtUAhJCBsY+cPbG9rOT5nO2ChsOHA/n+LLnH4n/KD6BVyhzC0/K75hfze6wxSxyyzRxCvJIB+qDLLNPP8AxXBo6NapbH+UUqbSq0CDR11VadEkIJc3QlYXOK2CtedpokKjSmbzNvso4f5bo5Ob5nHRZG7Pa7flK5GPkFjfREb+TIMPlmY4tcx1tI7riZ+YeIZJlcD5jj8Tj+JZOKZRk5GNOg1WjH81qst3GLWRySOOjBoFz3OLnFx3JWSSSmcncrPw7EGTJch5Y27nugjFwpcoFzRysG7jsu5icD5IDO4eXGBrLLoF1G8Q4fw6CEtxfNkA+6h6E9yuZxHMyOJStEspyJ9zE0VHEO3qVVasuTHESMYvkrTm+Vqx/wCI5Qbytla31Yyz+qzN4a8jmlJJ7DZZBj+WdAG+wQc6WWeUF0jpngb8x0/Ra/mN/C0D2XcETC0tcOYOFG1pOjjxCeblDb0NIjQuU/K130CTjKPmDq9Qt05tfICR+iyRZnM4CRg5T1u1Br4PE58M/AeZhPxRu2K9Biy42ZD52PbHD5m3q0rgZmOGvJaKvX3WHDy34WU2Vh02c38wRXtcPJmxnAslLT3Gx911mcSgyeUZ8XLINpo9CF55sjXsbIw2145mrIyYt9R2WVd3M4ZHkx+Y6p2H/fxfOPcdVxp+HTYzDICJoP8AiN6e46LYxMp8LubHlMZ7dD9Fk4nnPmxXAwtbK4gOew1zD1CK5wpBHZDdQFYCgxUVQWTlCgjsikUwNEJoAKkgFQQIWrCOyKQbOA0fbA47MaXLxWS/zuK5MkmoMpJ/Ve0w9HS//tleU4m2J0n3AHw3zkdSsS/7LfxGW58rATjPfpo8BY8fEysbHZmmMtx5Xlmp6hQzIc1nK8kgbUdlmimDsdzPNe5jSSGONgey6ubagkbztIOhW+w3S42KSIgHH4jZrsF1MV4NBUEuJHNLz8lPPUJu8vH+AbnoFszTNx4qbXmvG/YLUYXeQTQZG02553cUQy+ugWnmsGRHoOVw2US57Q6oxY7nqsMmaSwmgKCDUJkFgg0N0eZbRYsrc4nFBExnk5HnF0YcaGgNLmj5dkDe6xusR3tUSNrTjDS63bINzg2cOH8QZO4Hl2Ndl6+TifB82INnmjc27DX9F4Qg9Aiu4XHPVM712w2esfQYs/hkcYjhyoY2DZo0RLxPCijL/PbJ2DdSV8+aBzBbbH8lVouN8aW/a3/NXazuM5WQC2EGCL03K4M+9kkk9StoztEZJ1PZc+d7nu127Lvhrxx/HPLO0453wu5mu17LqYOfHM4MkPK899iuXDh5GQahhkd6gKxjPZo5tFbvGHtMMloG1duhW99hxcnUfcSnq3Y+4Xj8LMysSuVxez8rl6LA4tDNTX/A/sUiHm8HfELni+HpLHqPquVLhyR/E342dwvb4eXTA0kOYeh2RkcJxcr44D5Eh7bH6KjwY9lQXd4hwiSE3NEQP+IzUFcmXEkj1Hxt7hUYQra3VQNDXVXaAKNUJogBT5kkwNUF8sbx8YF+nRa8mOR8h5gs1Ui0GnqDRFJ2tsta75haxuxj+A/RBhQhzXMPxBIFA0IQgEIQqBCEIBJCKUAhCEQkIQigpJoQKkJpIJIKxvhY7pXqsxSKo0nYzgbabWF7DtI1dJIsDtCLQch2O12rDR7FYnwvZ8zdO4XXdghxsW1Q6OOAEF1qDlRtt415fUqyHOOpLq6lbD52l3KG6d1hc4XognlpPRIlIalA3uptLCqebcpQCEk0AkmkgEITQCEIQMKgkFQCLH1VJDrrTdYxzF2ugWG12mnskgWqVFUnSCaTo9AqATpFTSdKq1QgmkUnSKQKk9kIQNuqdIaNE0QqTCEBAJhFKqQATSTpEMJhACaBG02i0i0k/MQqGioYFJ0nqkgKTQjogEaJA82yC1AHRIlIhSd0DvWgqCxjR92sgNqAUlUkUCtSVSRQTYQHC6SKRHxBFZbCdqANVRQBKhzbVoQa5YokhD2FpGi2i1TSDzOVE6CW62NhbsoEuNIN+dnMFt8QxhLGS0ahamKfumB24tpQc3ENRV1aSF1saTzWeoXIjHlzyRraglMUgPRVHSLe6SYdzNBHVNQSUldKaQJQWA7BZKQg1zHRUkLZLbWF7aKCEXqhCASTSQCkjsrQ0C1RqzSStf5bcgR6fKI+alrwNnwWTvYwZBmIcTsdP/yuL9ol8+SbmPmF5s+l7LsYGa3zGl3yPNH+VyDbxsyPIFtAas5cAuVmhsHEA+KmtlGoH5gt1r+ZjXdwgzF6nzFjslHKd6QWZFDpLBCOUpcloNcgeZ+q4DKbGbHdem8v4h7rz88XI+WPs4/oqlcmY29JpVTNp6gKsqawyytY0WSu5jQtjhLjpFELce5XP4c0t82WtCOUe66HF3+U2PDj2jAMn8zz/og0i+TJyCQfjdufyjsF6Hg0MEBDS3TqT1K5GLF5cYJGp1K3opOUhUd7Lwx5Ykj1aR06LkTQ1dhdDCzuQcrjbDuFmy8Rr4/Oh1Yd/RB58iik+NsjS14sFZ8iMt1pabp2N0O/ooMX+HY7dbcfS0nQxsFNbSp+UDoG/UrC6bX4nCuqBnQUdR6rDJDHKKA5T3CyPyMME/DK/sl9rxCK+zvH83Mg3uEyuGI6B+pidofQrfDwuJh5bI5qumO0srr8pGvQ7KNMxNsPKSHVoQs2RmQnDaXOdz6X8JWiZPLBedANSsLONP59Yi5gO1ordhyYngU7fYFbA1FjZYo8vFzI6LA0nr2KwslONkiJxJa86EqDbR+6pwo12QAopNaD0T5Rd1qmNE0CQnXomB6IEExqnSNRWiC8d1SkdxS8ly27IHaZw/derAINjdc3O4eyON8sTaJcXOA62pJ9X+nm3NNlJoLAVmnbTjWyxcxIIK05nA5wyWn82i7GKfm7hcrC5RmQFwtvOLW/GeRzj6qjZf8AG8OedBuVpZ2U6b4RpG35QOqzRPxn5FZz5GwFh1jOvN0XNOzRd0qJAKqu6ygAVaiQgnQUAiLx8dmRMY3zNhaGFxcetdFz3WHV2Ww5wJNAmutbLFIxwN1YKLxiAsrZx8Sed3LDC+Q/yhRjsDpmNdoC4Ar3uVnjh8mPgcPiAbytNgbg7rlsz9XTDDrzeN4W4nMOaRjYW93n+y2ZvCErY7izI5JOrar916l5PMdSVF1tv0Xhvl5d47/wzj5/lcMzcJ5E+O8V+ICwsTHBzfXsva8LkzXSZEuaORjhytjd/Wlhy8PhTXedJEwOGtNO/wBF6pu/qxzuuR5rD4bPmv8Au/lHzPOzV6TD4Ji4jGl8Qkcded+oWrkZj5GeVCwQwjZrdLWKLJyoBUM7g38jtQtW2szkb/E5c6GItiib5BHzRdPouI2nj4V38HiTZvu5CIZhsD8r1WZwzGyHW9px5z+NuxVnwv157kIS5VuZWDlYRuaPnj6SM1H1WENa8W0hbY4z4XE8nDeKdzt/KV6fh3HsbIprneVJ2dsvHGNzdxol/VVH06KcFtOpzT9QVqZXB8bIt+OfIkPb5SvG4HGcvBIDXc8fVrl6fh3HsbLpvP5Uh/C7ZVHLz+FSQu/2iHl7SsFgrmSYr4xY+NvcL3zZvhp9Fp+oWnlcGx8i34zvJeen4T9FR4hAXYz+FSQGp4i3s9osFc1+NJGLHxN7hBiVBLqmEDJ0Wx9pie0Nkw49BXMwkFa6dUgzcuM/5XviPZ2oR9lmP8Lll/ylYdCmBRsbqCpI3s+GaNzf8wWF+O14+7pru3RZnTzvYGPle5l3TjakINR8b4v4gpQCuiJC3drXDs5YXwMkNtph7DZEatoVPifHuLHcKAVQ9kItCAKCkhAkJoRAkmhFJCLCQNmgEDQszMWaQWG0O5TfHDAPv5m32CHGBU2J7tmmlL81rT/s8N/zOWtNNkTH7yctH5W6IcbTxHF/EkF9gsDssN/hR36la3wt9T3KRcguWeR/zPNdgtWR3UK3vDRZK1ZJgdAECN7pJcxQgdp3TSUkSbAIMaEIQJNCEAkmkgE0kwgE6SVBAwFYCGsJ2BPstqPBneLbGa9VOx0mGV/H0lFDonSKWRKFVIAQSFQQRpoLRSKYTSqk0Q0JBUAgVJ0nSKQTSNFVJEIABMJJoGikIQA31V1akDVUECpUEqVAIgTRSKKoaKStMWgaOqYY52wJV+W9otzSrxEpG1VhIIoApBTSKgkqTRVFLlCDG5t7dEDdURSQBJ2QUCmkBSZUCSItOjfogoIISIKo0kgUbiRrurWMGj7q0U0JJoGpcnaRQQRYXMyIvJea+Um11CFqcR5fs1uNEa/REcPNAZn8w2eLVLV4lm47mxGOQyOGh5WnRZ5pWRBhea59lRvYk/L8Djotz2XJHQjZdDFlD28p3CDKkVRGqAFBNIpUikE0oexZqQQg0y2ikszxqsRCKlFJp6IiUbbJlJB5fiMJxc6RhHwSfG0+6iCQsDhtpY916PMxIc2Ly5gdPlcNwuV/gT2n/wA2HN/y6qjTyeIsypYmRglzXcxJHouxw9xfDyvBBapxuFwQkHlDndyFvtZQoCkEhqfKq5SE6QRyo5VdIIQYy3T1XK4pjFsjZmi2uFO912CFLow9hY4W0jZEeSzuHTRYsWXTTFISBR1Gp6fRc46L02Zw4Fjo+avy67Lzc0L4ZHRyCnBXqcdjhABGKHfIHukd7N1/stISOyMl0zybc4vPuVvYg5eESSjduO8fUupc6P4QFR1oZA8UTqsrmlpXMZIR7Lfx8trgGyajv2RGWOQtK6nD+IGF9E8zTu09Vy5Yi0czdW9CtGTM8k2NSFejveIMnFxwDEbc8WG9l5aTIc42AAsM08k8hklcS4qLQWZH2DdkG6OxWXLljnyHzsYI3SGyxuzfZa9oLlAy6lBdakm0kDJ/Ren4DkDKw3RP1fCdPVq8uu34XNcSezo+IqVY6nE4v/t85aNQ2159rhWi9cGBzSHCwRRC85m8LycWRzoozJCTYLdwo0xY8jmSjlJomiFu5coc6H4vjBv6Lms5+YVHJzDoWroYHDnuLnyklzupQ47TZBL8bToVQUQ44ibosvKopIG6rlRSBjRVupFqggE0bp8tIEirFHY7p0hBwuK8HkBdPhjmG7oz09lx3R00DZ9fED0K9sDSwZGFi5diaIE9xoVUseJ5+RzTdEFdJrxIwOHVejh4bgQ/JiRn/NqtfN4TH5fPhsDHDdg2KqccAxyTCTy2OeIm8zyB8oWIj4ltPdLiGVgLovNHK4d1rStka2N743NbILaSKDggHH1oLHI4OIazYbk9UO21WbAwp+IT+VjtNX8bzs0INzw++ppo5A04sgHmWNz0FrfyOBwv+LGn8u+jhYXWgwsWDDbisYHMG7iNSe61ZMWfFPNCfOi6g7gLNixy/wDw5KXa5EH0tdnBiOFAGzzsk5fldWoHutUNhywfLkMMva9CteWKSB3LO1w7EmwVxz1XL9rpMpHUl4pCzRluPoFqScSmf8oDVp2OiLWMfFxl6t21ck00p+OV30WJwA1VFSV6JhI5XK1JSVFStcRLmhwohbeNxLIxwI5R9oh/K7cfVa1IUsXr0GFmQ5ReMeW3HUwyaLV41w/Gx8X7ZCwxSl7Wlg2N+i5HLTg4Ehw2I3C2J8zJysaPHneHsjfzA1qfdSTh1iAUuia7UaFUEwtI1nMc06jRIaGwSD6La9FD4WnVuiqN3A47l4dNc7zYxu0r03DuNYuYB5cnlv6tcvDFrmnUJNcWuBaS0jqEH0/zeYcsgDmnvstHK4LBMC/Ff5Mh6fhP0XleH+IMrEps33sfY7r02BxbGzGgxSBrvyOKo42bw2SA/wC0Qlh/O3UFaD8d7RY+JvcL3bZWubySN0O4dqCtDL4HDPcmI4wuP4fwlB4/+qa6Gbw+WBxGRCYz0e3UFaT4HsFi3DuEEUkUgUi5A0WlzWhA7VNjkd8sbnewUK48iSE2x30KiB7nR017Cz3Cxuijk1Hwn0W8zid6T4rJR1K1JHMdM90TPLYTo09FRqvxpGat+IeixWQdV0GuA1ukntjlHxN17qHGhaazPxHf7s83osBa9mjxy+6q8NCG27RoLvYJ+U+vicGj90OVJSJJ0a0uKyBjOhLvUrT4hmPi+7hJaRuQp1eHLkyY7wXxNLexOq2zxTHbAx4YA5w+UbrhQXNOzzHFxLupWbHbz5jgRfKTXoqcdCXLyJx87mNPQaLAQLs6nuVkeWM+Z49gtd84OjB+qIp1gdgsZd6qS5ztylSALlBc4qipKIwybLBWqzSnVYggaaEIG1Q42VZ+Fg9VjQJNJNAIQhAIQhAIQhFMLbwccTSW8HlC1QL0XdwoBHBHtd2VjO8j0ePr98vrdixYmtBjjACy/ZtPxKseaONjmyNNE3Y6LYa9jhbJm1/MvNbX2McJJyR6FFITXpfCKkUpLgmDaBoQUkDRSEXSBp32UA2mLQVfqmDop1Qgq0igJoEmAgJhENGil8jIxcjg0LWdxCP/AHTHP9ToFeDcAQXsb8zgPquVk5zoo/MmeWt2pgsrXZPPMR5OI7l/PMeX9t1fVOuy7LhGjSXH2Wtl8UdjNBGPLKSdGxtsrE0AdlkaSOq1w6y4+VLNC2RzHwk/gdVj3Ww1xduStVp11ICzNkY0gc4LjsAnE62WLK2lrxOD2Bzdis7FVRmY0+VEI4c1+Lrq5jQSVkwsQ4cJa7Lnnddl0htZWkLJzjsg58nGOHMnME2QGPBr42kD9VtgQyNDmEEHUELKRG8VIxrx/MLSeW8oDWgAdhSgwOjeP4ZDh2Kxlxbq9vKBud1g4hwpueR5mblQtA+WJ3Lf1WbGgbixNia972tFW82T7lZIoFsjQ5jg5p2I2KKpcjhfLwzi8/DC9xinuaDm6dwuyopUKU/iKo7KSDoUAUk0IFdJE2mRYU8tIApJpKCJAS3TcbJi1SBuiikKr9EjaBIRRCRKAKjGycdscjMsBzmHRvLenuqC18lvLO1w2IoqpWxmZXDX8PLB8IOoYG6/ovNzYr8uUOijLGjTmef7Lqve+OQljiL6d1lzsBufiedhksPLyyMB1B7qo4WXk4mIWtfPbti0DZZo38jg9psHVeZ4gyXEmlgmb8bd/Vdvhswli5GyMka0Ci3cehUHeY7naHDqrpaWNLyHlOxW97bKNFSKVVaKCCUqV0EiAgxuaFhexbBUOCDWIpJZHBQgRSpNJEQ4UlSsi0gD1QIClSYCYCCaRSqkUgmk6tCiaZmNA+eTRjBfugnJnixIvMmNXs0blcPK4llZH8M+TH0DdytaXKkzcgzzHc/A3o0JMEk87cfFjdNK40GtVEcr7Mhe9xHUldzgfh/B48yTInzJPMYadjsABaOmq5zIZsXImx8gx+YwAlrHXXoSlD9owsxmZgyeVK3e9iOxHUIOxx7hGNwzh8kWH5ojkgLqkNkEELyLTbgu+zj2TxLiLMfOyGyRvtnK1gABK4EjHY+TJC/R0bi0/RVGatEBxbstgQc0QcOqwuiIU6nGUZrmY7m9wuY9xJ1WR9gkFYnBaRN6p2lVJFA71SJSTCARSdKg1AgLK7fhhhdxCV42ZCf1NLkcoor1vh3BOLw4yPFSTnm9m9FKvG8G6JixsshbSKWWuINndFJ0hBJalSspIqaR0VJUgkKkV6JgIBNFIpAJKqTpBCYVcumyAEQlQSIVIMU+Jj5cZZOwOB69QuZkeHfODA3PkDIxysa4XyhdkBOlRxIfDGO14M+RJMB0A5QuxFDFBGIoGNjYOgWRKlAhp1CsaBQWAkKiqMGRgw5Pxfw5PzNWm6WbF+6zY/NhOnNuP+y6rUnAOHK4AtO4IRHIkwBIwy4L/MaNTGdwtK9S1wLXDcFdSXhz43mXBeWOG7L0KxHIhyiIs+MxTDQSAUfqg0UFZ8nCmxgHj72I7Pbr+q1+YHZUIpKkkQkJoUCQE9EKgCpIBHVA0ICYQItB3CxPgvVunosyaDTLXN0cENcWHmY4tI6hbZAdoRawvg/Ifog6nD/EWRj1HkDzY+/UL1OBxTHymA48wv8AISvnhBaaIVRvfE4PjcWuHUFUfUhJHK3kkaNdwdiubmcCifb8R3luOvKflP8AovOcO8SzQ0zLaJGbc3UL0+DxOHJZzY8od/KTqEHm83h8kD6njMZ6OGoK0H472dOYdwvoPPFO3kkaDe4cFzMzgMb7fiv8sn8J1BQeM+lIXVzOHPgdU8RYejhsVzpMd7BY1CDFaLRVJadTSgdotJtyHliY6R38oWYYj2jmypo8dva7d+iLIxFwHzGkmOdI6oY3yH+UKvOwIHExwuyXj8Upofoh2blzjkYeRv5YxQWbXSa7V/Zpmt5p544B+W7csRdixn4Y3TO/M86fom3De83Ia9zZWQwwwN5pHhvq40n1uY4z9YHTSSaABo7NCgRvcdVT+IQN0iY6UjrVBasmZkykgubG3swf3SFyk/Gw+MRi3vDfcrRyHwa00yO7qSwE2bJ7lS8LUcreteH4MgSPZoDYAWUyHmc5gDObelJCEZSW2dSmBSaFUCSaSBHdQ80CVRWGZ2lIjA825II3KaBhMbqVWzbQKR16dlCCkgaEIQCEIQCEIQNCSYQbODF5s400GpXcjBNDutDhIBhk/Na6kDdObr0Xn2X6+v4eEmPWQAJODRuArIAAHVYZCHn2XF7o9ihMqaXrfnk8mqoCk0UgSAgpIKQgJhAk06QKQCKT0COYIBCOl9Audl8VawmPGAc/Yu6BEb008WOwumfXZo3K5j+ISy2W/dg7Bc6XIYHc80tvO5JWB3FMdvylziOwWuM9bkH20zF2XLCY+jWgk/qtxrxsNFwZOLuOkUVepWrJnZb/APe8vsFeHXqHztYNXgD3UR5cMknI2ZrndrXkjzvNySPefUrJigMzsZzRR5xaqPYAtBHOSG3qR2XQkHDIoueN3nhjgXFridO2i5pNkhbPD4w+HNirePmVVqycr3yOYHCMuJaHHUBZ3P5YsWavlPKVgjYX4r5Ob5ANFmc0twCx29iRvsoNzh8okikoVTzp2tbrSuVw13LJI38wtdJpVGcOVNUNWQIirCVo6pgGtASisTysRe26Lhfa1mfD5gIddHeiuY/gnCsJ7s14kL2W4ySSE0pRoeKTLiP4bxGNv8CYBzvQr0L65gW7EWF888ReIJuLXFH8GJGba38xGxK91wp7puDYUr3BzjC2yPZRWfokbVlKlFY0J0LNJkdlBKSDzDYWlr1QF0FBcbqqVUjlCCRshUW9lFHqoq7/AHQoFjToFkGyBKT7Jm+gtI2gFMjOeMjqNQqaSGgEJk6IjRe2yD1XncfxJxDh2dkwOax/K4tDjpQ6aL0swLGEnuvG8ejDOMPcPlmjB+o0WupWvL5s87pcmR0sjtS5yqLnhmacYEzXoxv4gsOTlveWBrOUhoadd1vcBnDM2eFwBLmhzXdQhHdo6aVpt2W7jSczeU7hao1VMJY4ELLTeVAKOYPaCED4dASgohY5DKBcTGvPqaVWkTogVkj4gAewKk7JkpWgxPbaxkarOd1ic0goIISTQgQTQE0CTpNCBJJpIgpcHxLOXSQ4bDoBzv8A7L0DBbgvGcVnMuflS3u/kb7DRBmwMKTiUxiitkTP4kg6eg9V38/Ix/DPDRFisaMqUU3q4D8xWxiiHgvBo5ZQGtY2+Xq95XkZZJeJ5kmTkutxNgdvRZ72rzjJ5UmK173vuZ7qcT3WxBKMiMECnV8TeoWTiLPtELwwgSWCPWlo8jmZcWQ13Kxo+P8A0W0coW1xINFp0IXazo/8VwG8Sxx99GA3JYN7/N9VxpdJX0NC4lZ8DOmwMgSwO1OjmnZw7EKo2+HZgAET/ot98AeOZq5+TFi5jzLhkQSnUwuOl+hWOLMycR3LK08qzYvSy2GPI5XNokArXLV1JpoOIwgAhkzPlK5zwWGnA3srEYSEuVZJ2vglMcrCxwGxWMPC0yYYqDE2kKgQoqeVU1t6JghZ4ImyyAHZS1ZHX4FwNvFJIpWxvZjxfxXPOj3XsF65+A8nSWNoqgOyw8E4njZeOzGZG3HliFeSNj6hdI6L5u7yc8cuPRhhLGj/AIdL/wAeL9CscuJNCOZzQ9o3Lei6SYJC5Ty8u/WrrcQgEW3ZTS6eThh9yQAB3Vnf2XOduRRsbhfQ17ZnPjjceJpCdIK7MJSVFFIopGvZFJhAIQqCBUmAU7CEAEq1VJaBAkUma6IQMJpIRDGiWloSJooGmkNQCE9iEAnanmA6p77IK9ljnxocpnLM262cNwrRaDlmLM4ceaFxlh6j09QpEeJxG3Y5GPkdWk/C7/RdYehWpl8Nhyfij+6l7jYqo5E8UuNIY52Fjv2P1UreORNjf7PxGLzIdg4/2KiTADmmXBk8xn/DPzD2QalIRzUeUghw3B6IVQIQhECEJooTSTQCaSagE0kKoC0OFEWsD4SNW6hZ0INI2DqrilkhcHxPLCOy2Hsa8aha0sbm6t1Qd/h/ihzOWPNZzN25x0Xp8LPjyWB2LMJG/lJ1XzEk3qsuPkTY0gkx5Cxw7HRUfVDJFMOSVoIO7XBeR8VzYnDHCDCcRlSCzHu1o7+iOGeKLLY85l/zhcHibvtPFMnJ5i7ncaJN6DZFZMbHnfjNnnyYoozs55tx+iyGXAibzRg5Mg6vND9Fq4GH/iWFJI4RRhknKyUu6e3VdFmFg48IMrTMW6l8h5GqL8c9/Es7Jf5WOOVvRkLVlZwvIJDsp4jvfmNu/RZJOM48DDHitB7tgbyt/wCpaEvEsqX5A2Efy6n9SjUvHSGPh4zeaR111kND9Fhk4tjxmsdrpewa3lH6lckjmdzPLnu7uNlWPRRr2tbEnEMua6c2Fp6NFn9VrFtut5Lj3cUwmgLQki0KCsT1kJWNyrCEv6pkpIgQhBVQFSSqUFEIlasrrKzvNBartSgAmhCBokOwHQaqmjqsbjZQShCEDSQhAJpIQNASTCBpgJBZGtLiGt3OgRY6fCIuWGXJdoxugHcrswtDomuALQdrC12Y4AxsGMdi736rf409sGKyJhrl7Lnnj17NG64fGvIeUarCBa5IzJ2nSSx6rMziUoHxMa71XG4Pfj5GNfQ0lSVLu+OSAqDU6QRSdJ0hAgjlCEbIh0O6alGqKlwOtqJJWQQmSV4axvUrKdRquL4kLXMw4bp/meZXoB/3CJUZ/FHSxkMD2xDo0fE5amLIZmOP2eSEDbnFWkCQbSdmsZmx4pY8veL5ug/+Utxly8wc2bLfQ0sWyz5orOl7GlrlVDQpBQXAbuVFKXPMZa8btIKxnIY0737JjzpwfLgkcD6KD2UTg9jHjdwBVczmElr3NsUaNWFrcNbIzCgbKKeG6g9FuRFv2qLnALeYWDsqLwMeXLdNDCWhvJ8RcdAuqOFxywxQyZIDmM5XcmtrmsmGBxOfkjbJHIOQtBoAbrIc/iD3VjwQQt2Dqs0g2MrhcPDo2ZED5HEPaHc7r0Oi2GkXoucYMzIIOVmOe2weUbWt9pRWw0gDVZWuadqWuNUPe2NpcQSANgNURsucG9LPouZk4fE+I5QY6Y4eFGbPlu+OQ/TYLDicYyMvLEcXCMsR3rK8co/dZ+Ncdh4Nj3JTp3D4IgdT7orYysgYEHPNK1kTBuSvA+IfEMnFH+UwlmK06A7v9StfLz+I8fzmsp08jj8MTPlb/wDO69bwLwpjYTPN4kGZGS8UWkW1g/1UV8+LgRodCvX+BOK/xOFzv11fDf7hec45w13COKy4pvy75oj3aVpwTPxp48iI1JG4OBCzUj6+dDr0SWDh+WziXD4MyPaRvxDs7qtgBGipIhUUt0E0pcAdwrOijqoFshI3aAgClSaECpPQbbIKSB3opKdIpQTaFXI7sgtrdzR7lUamfiHLxHxteWP3Y4dCvF5nmSyBmQAJIbbVar33KQL3C4fHeFfaHCeJv3gFadUR42VtFZuGPLc/m7MITysbJY4tdBICOtLNgYrwS4xuBPUoO5jZIdTT1W51XMiicK0IpdCEks13CjTPE8g0dis3MtflrUkD3KsSRjR00Q93hEZeYpaqA+LpPF/1hVzM/wCNH/1hAFGqDLjtFvyImj1eFx+I8ZeAY8AA9PMKDpZGXj4jebIlDP6rkzeJMdz+TGx5Jz6BaWO3hrSJ+JvyMuY6lgFNH+q6cfiLhmOzkgxnQt7NACDWPFOJu1j4RLy/5ChvFc5p+/4VM1vcNIWyfE2C46l4/wCYLR4lxNmc1rMeQNAN6vo2g62JlQ5YPIHMkAsscKIWel5TDbPiZUeRZcWvGzr+HqF6sSwykmKZjvYooQqLaFmgO5WB2VjsBBkDj2bqiMpSWlLxWFnQD/MaWo/i7n6Qhzv8rf7orsg8tuPQEryGBinI4njsyGPEZfzvIbensukJeIZJprN/qf2XW4Th8bxZnSMaz4hR81oAH91i54yfaSVz+IyQcZ4oIsvJdi47DyRRhhJ+o6Lt4vhThUQB+9m936foEmeHnSTunzMvmleQSWN/uV0cXh2PiyB7DK59Vb3krw7d0nzGusjyPEsYQ8TyYYxTGO+EdhS52ZhSSQuEejjrX5l6Tigjl4jPJGbF0T6jQ/0WmWDY7Ltr3fPpcXjshpZO9rhqFLWOJsbBdbiuE6HIOQ9vmRybnsVrtxWyi4ngH8rjS9eOUrjZxqPiPmX0QciWL4WSOrqDqtiTGmjHxxSAdwLC1nx3tv6haYT9okJuwD3ACs5RezllHMRs4bhYvJf2tHkyflVU5pHSv5nOLnbW46lQEcpGhVAIgaCVlDfVIKwigClmieWOB7LEqadVKOq2R1tkjcWvGrXA6her4PxxuWG4+YQzI/C7o9eKhl+HTYLajeHUHGux6hcNumbI6Y58fQyKOqS8/wAH44W8uLnvsbMmP9CvQ9Aeh2PdfI26rrr1Y5dLbZYp8ZuRrfLJ0d391mQsYZ3C9hZK5D43Rv5JBTh+6hwpdmSJk7eWQexG4XMngfA6n6tOzu6+rp8iZzlcMsONek6TI1QvUwAEV2QnSISAE6RSAQnSKQJHVOkIFafuhCIKQhNArpCaYpAjY2Tbvqgo6oMvmhoprBSxOPMb+X2QlSBWQa3T3QhA0tU0WglzQ9vLI0OadwVzJ+HSwPMmC5298hOo9l1NUDVwCqOT50Ob93ms5JxoHtFEe6158WXH+L54+jgubxDLeOM5b2G2iTlq+wW7g8VB+Hm1O7XLTIBB1CFtSQwzW+E8jzuOhWs5rmGnClFJNIFNAIQhA0BLomiGhIJoBCCkSgCsfVUTaQGqDG6Fr/Q91jdA5nqO62wKTRWmBoiQ8kTnei2HRg7aFa2VowNPUqqlmfNFCIcaOPHYOoHM4n3K13gyv5pXuld3e606RsUFUKRSkaKg5RUkJWQrcoQMOTtQjZF6u0iVHMUcyHTJUEotIlGSNo2QkiKCRTQqiCUimSoe7lBQYZTqsITc7mcsrI6FlBAaSqDFkodk/RBikPK33WBZJTbq7LGgEIQgEIQgEITQCAkmEFtC6nBYA7IdkSD4IRfuVywT0Xo4cd0OJBhtH3ktOf8AVFjo8Hj5jLmydT8K5nGcrzHu160u1mObhYDIGdBS8lkyeZKT0UdsfjGFQCQWdkdjVc8q9GvG19Kqkimilp5Eh2qq0qQAiGkU90UikAhMBFIhAI5L6lUAhFSRQXnPEb+XjWKXfKYCB72vSnZcTxPE1+JjzkfHFJXN2BQrmg3VJMkYZCGSRukA1ogkBa5lD2Fj2EtcKKvGZjwt+5iYy9CRutxhpcXd5c7HgH4xS02NyJjUbDXqvQW07gH3VDl7BUcaPhWTJ/EcG+i2ouBw2DJI53oum1gGpIHuVYAqwbHcIMEPDsaH5Ymk9yFuMaGCgAPZIJSSujcAMWeaxdx1Q+pQZWmis4a124taTZskvaBw9zGk6ufKNB7Bb7GqoyMAAoABZ2las7siKEuxccTy9Gl3KP1RhHiRa9/EG40LK0DTqPcoOgw6arK0hcebjvDMWw/JD3DcM1XGz/GTiOXAha3+Z+pQe0L2sbb3Bo7k0uTxDxRgYFtjd9okHRm36rwOZxXNzHf7RkPcD0ugqj4bIdZXBoIukHazPG/E8i2Q8kLTtyiz+q89NkTSSGWd73PcbLnnUrPJPi4QLYWiSX8x6LnSSuleXPNuKivd/wD0+yogcjH5WiR45g7qfS17LlLjoF8l8P8AEH4HEI52H5TseoXt8njGXki2SCKN3Ro6e6il444czJ4UMkFoyMbUC9XN6hfOw4L3OjnfeEvvQlxteO4piHBz5Ifw3zN9R0RHb8Jccl4e+TFNOhf8Ya7oetFfQIZGzY8UzD8EjQ4L45G4teHDcL6j4Zc9/hzFdIdNeX0FqLHTO6QTBHdGyKRFqapWkQgx0kVdG9lE0kWOwvyJGRtGpLjScQkDVcuTxDhWWYsc2U+9BG2h+pVRzcUygCGQ4Te5+NycHRINXsPVYzNGHaO5j2aLWuMeBuuRLLku/ndQ/QKnZDWtqJoYOwFJwYczi7MSVkRx5HPk+W9AfqtWXjOW7SOKKL1PxFY+INOVE4N/iN+Jh9QtON4kYHjqNuxV4MsmVlzH7zKkPo34QuLxF3m5jmOJIZ3PVdZvzBcWf/zuT38xVHT4DxeTCymY88jn4kvwjmN8jvQr1sjdCF8+MYewtP0917HgWd9v4b8ZueA8knr2KzYrI+MOsELA6AdluOabNKeVZVpiEDosWbkswcZ0xbbq0Hqujyei81x/LgnL4Ync/lDX3Qa+PwviPG3faJZDFC86Od+L2C2P/C+Gy/Nyp3H0aAs+FwPPlfDPmZzonRgGOKI3yj32S43xTlmOLhAyZDjRcOh9FRx8/D4Zhghk2Q53QEhakGLkSt5msLWfmfoutj4OLg/7RxCVkk515SdG/TqsjuNcNaeaQSyuGzQKCDVxeCzzi/OIHeltv8M5xryMuP15xSwv8SZkpDeH4LI29C5vMVrz8U41X32QYwegof0UG8PC/FeubjD9f9FgzuDcUwcd0xmgnA/Cw2f0XIlzciSw/JkeT0DiVja2Y6kEX1cUqNh0mUR97gcw63GsJMMh+LD5fY0s8GLkznlhjfKf5Wrf/wDD3E2s55IY2ejpBZ+iz74z9rUxrnQQ44InEExiaaJ15Se1rKQ0DmhkdzdGucCFus4bxTyTC2J/lE2WNk0v2TgkPDy6PM4XDKCdfNaQ76FT+TH/AK161GOzPnrlhlmIF/dnnI9wqxIG5mSIJ8oxOPSQ8gH7LahPDpJRJw/Lm4Xk3oyRxMZ+v+q25MqKeRuL4ixWh5+TLi0J9bG4WLnTjexfCmKwB0sofeoLBv8AVdSHhOBABywB5HV5tcduNxLgjRNhSfbsEjm5dyB/86hdbhvFMbicdwnlkHzRu3C8O7PZ+y/G5I3WNEYqNrWDs0UnfdCS8Vyt/W+GhCFkeb4zgOwZ35kVuxpXXK38jj19lp2CLBBB7L2BDXNLXtDmkUQdiF5bifD3cLl5owThyH4T/wAM9j6L269ntOf2k+NctZI0seLadwuLk8PfBMWx/E06t9l2/ULV4iOaNhXp152VMseuOXzQmgZIz2I0WOTImf8AMWu92hZsqXIZCWiZ/Id2k2ucXOO7iV7pevPYpznXqGfRJsobfwB2ixlwS1Ow9lpkjqkN1sZWHkYcgjyGhri0OoEHQ+y1+qDIEwoBVXSCrSLkgC46BZY4wDbt+yDLjgtj+Lcmws4KxAm9VmArdQZmPBFO1tdrhHG5MKocgmTG2vdzP+y895rRpzarZx4553BsOPLITseXT9Vx2Y45TldcLX0JjmSMbJG4PY4WHDqqWhwXGkw+GxwzEc9lxAO19FvL4mySZcj1T8NIhrmlr28zTuE0LMys/DjQycN0YL4vij7dQtXlJojZdkGjutDMY2KcNYKa9vNXZfT8fyPb/WuOePGpWqapzeyle5yCpSqCARSaeyCUGhumlSBDRH0T5UeiBUhNFogGqNEvZMHuEAkVSkoAIb+6EiWtFkgIKQpDg7Yg+xTuuoVBaCkSlagNU2kAl96NBKS1uIzeTwvLl2IiIHuVYPFl5lc+U7yPc4/UrBO6gKOoWZvwsaPRa2QbfXotMujwziUodySfEBsV22TNmG4v1Xm+Hs0vuV1Wkt2NKDddHWyx1SUWSQeV+o7rYpsgtptBhR7KnMI1A0UoBHuhCgBsmki1UO1JKCVJKAG6sBSArGyKaEIQIrRync07uzQAt66BJ2C5jjZJPU2ilaPdJARTpKkwmgV6JboKVICkiFQGyKQYykrI0UEIFaSCEiiGhFIARDWeLCyZhzNicGdysGoII3Gy38Xi2RCQJh5jB1GhVGOThr+UeWC4+q05eGzC+YkHsQvU4ubiZVcrg13Y6FZOJzRYmA98kTZC74WA90R4dsBjeQ/cLIm++Y8253UoBJ7uVpKFimdsOyDHukhCAQhCAQhCAQhNAJhJWAg3uD4wyM5pd/Dj+JxXpuFt+0ZcuY75WaNXLwYTi8MAA+9yTfsF3XtbgcNbEPnrVG8XI41l8z3C99Fw6srPnS882+gWOJulrFrtjO3i4mW5bkbABSxQsrUrZjZz3S4ZV9LVhHvdEWSlsmu75BaJczemqZCYAGwRC17IpO+6EAhCECF9SmgFFooWPKxocvGfjztuN4ohZbSOqI8xL4RdEC7AzrPSOQV+64+TDxDAeRmYUoH52DQ/Ve/oUmHFoq/oVqVK+eM4i01yyAAdH6LcjzWFoc4NI7sdayeOII483FljiYzzWHm5W1ZBXmDJy6UR7K9R6PIl4blcpyHcwYNuYj9lbOL4EUbY4w5rGigGtXmeZrhqTfqtrKwhjRsk5y9jgDYCqO7/AI9hDpL/ANKf/iPDbsyU/RcCOPCe23TyNPXRZosbhpPxZjv1pUdg+J4B8mO8qX+LXBhEeKGnuStNmLwZurpg/wB3rO1/CIvlEJP+UuT6djXHibiXmc3nDlv5Q1GdxXifGGNi8t3KNw0UCtz/ABPFYPuoya/LHSg8Yc+wyKv8xTlT2jQi4NNVzua30G6p+FBCCXnbq4oys3KcdJCxp6NC509vYXOc5zvUpxJkWQWGQ+WbCyHLmljaxz9AK0Wq09FbTWijSH6OIUlZJBseylwtocFQ4X8kgK9jwqfz8Fvdh5SvFDRei4JmNhd5O7Jmiz1aQoO+uN4hwnSQHMEjnGP4S2tAF17SfGJWOid8rwQUV4gL3vgHP83Cn4e826I87L7HdeFlhOPkSQv3YaXR4Blz43F4Psk7IZJD5Zc/5aPdRX1AN5dhskJmF4jYWvkOzA7Vap4RJMP9t4k8uG4jNLPicPwMSRr4myySMNhznE1/ZEbEcWQ8nnYyMX3srk+JYczHjiy8WeRrWaPa3b0JXbOQ8jRob7m1rZ0b8vDlhcbDmlB5RvE+LZdtZlOFaHlYAQqi4OZnCXNmkld153WsMEn2DiUD36RZH3T/AEcF1pZS1xAWlZIhj4rKjjDaWN+bqaWq95J3WMlEbDsgu7rEZD3UWpNoK8zleHLWI8udzfwyfE336rKW2lPGX42n8SM8zUEbH1XL4tCY525LB8L9HH1XSDg9oeNnaoIa9hZIA5h0IKI5EbtN1u8LzP8ADuIsmcSIpT5cvsditPJxJMR3M23xE6HsgSNniLHaghZqvePbXt0PcKNzXUrh4HiHGx+FMjzi908PwANbZc3oVq5HirIfpiYjYh+d+pWbGm34g4hK1zOGYI5smbQkdFzuLcJxuF8IaWZMcmYx3NMC7V97gD0XHlJmmdNLOecmyW3ZQzHa5w5YpH67vdSg7X/iEng7Y4g4T8vI5/Tl/wBVxMcZEkjnRP8ALJBtxdWnuqixZ5884+BE6Vx/AOw/osk+CMfIEfEYZMdx7ix9FOxZGxg8CjzS98+e0tYad5fxV9VgkZj4k0kWPi+e5jiPNLtCuqMDgGHiDIkyX5LjtGz4b91ypsvzpOXGgEYdo1jdVPeLxL5soj43sib2aiPElytWxSyj8x0H6rvcH8PykCfJaC87BwsN+i9HDgxx1zDnI77D6LybfLxw+R0x1/Hj8TgOVJoA1gPRov8AddnE8NMjIdLTnfzar0QbQoAAeidLxZ+Vnl+NzGRqR4vlMDWuIHYaKvsjDq4cx9Vs0nS89zyrXWuMZg2FLHPhNlaWmnA9HC1uUilZnlDryfE/D/Ix0kDLA3buF5+XzoYvKa9xiB0Y/XkPp2X0yqXnPFXDIm4T82IcjtntGx9V7tHkW31yc8o5XAuPzcNk8qW3QE/Ew7t9WrucR4ZBmhufwqQRZBHM3kNB/wD3XCz+FtZw3FzcezDJGLveN1a/QlX4d4qMWX7JlEjHlNX/AMN3f2K7549+4sx6Pg3FPtzDDkDlyox8Q/MO66a8rmNdwzxJiuLwed4sjq06FerNXQNrwb8OfY3KEJJrzNBKRjJYnRStD2OFEFNCstlSvJ52G/heQI3EuxpD90/t6FamaPuh6DRezyceLKgdBMwOjfv6eq8jxDFk4e/yJ/iYf4Uh2cO3uvfq2TL9TrzeQ6Z/XlaelLWLB1s+y7Mw+6cx8YezpY1H1Wg77sfDQ9aX0sL8cMmqIiflYPqk+MAfG4D2Te58hq3H2R9nm6sIHqV065sbiPzOce5ULOIa+ZwCguib0LlRLRewtWI/i+LT0SORQ0aAoD/MeGueGX1dsEGYva0UNEvOA2C1S491JcT1Qbbsl3cBYXTud+IrJhsZI4seLsaLDNGYpSw9EHU4dx6fh9eXBju9XR6/qu9i+NmPcBl43IPzMN/svFJgrGevHL9bxzsfWsHOx86ESY8oeO3ULatfK+FcRm4dlNmiceXZzehC+kx5bZImSDZ7Q4L4/k+P/Fez8erXl7Ny0iVqHJHdT9o914vrr6ty1qZpvJi//bP9UvtB7lY3uMsgcejaXq8Xv8kY2T4SnlVJ0vtvIikVSohJAkyj6oQJMXSenRCBJEJo6IJKOiZSQLS9EH1TCl2tFEAKdJAeydhFFBBAI2CXMEc1ohUBsEEC7QTqhAinVbIRaBE9O65XiWQN4NyA6yytb9N/7LqaXquB4nd8WJCNgHPI/QBWFcM7rSlNyFbjjuey0fmd7lVl0sBhDG37rfWvitpn6LYQCpkjmG2lShEbsWS12j9D3WZ0QcLbV91y1lhyHRmrsINhzS2w4JLNHLHKK/ZEmM6uaPUdkVgStJxIJB0Km0FE2kElQRFBUkE0U0IQN0ViyncsB7nQLnnstvOd8TWDpqVqFFSUISQMFUCpTCBnVJCEWBO0kkASoKukwEZ6xchKYYOqyUUUiJoBKldIpBIanyKgFQCIx8lGxYI6hVkZM0kDWSyFzW7WrIWrlOqmhUaztShCSAJoE9lrONlZpXU2u6wIBCEIBCEIBCEIBAQmEDC2uH432rMji/DduPYLWGmq7nCo/s+BJkkU+U8rPZFdjCjGVxEuA+5hFALDxzLtxAOg2W/jsGDw0Xo94sry/EZzJLXqjpJxqkFz/UrYjb8QHZYYRZLu2y24W62Vxzr16Mf7ZWigt2FobGLqzqteFtuHYbraXC19LGcj2PqnaKHdFdl6nwSvulzBOu6DQQIuT1A0S0QSQgNe9IFJKgNEBugJ0kgaEIRAhCaDzvjiHm4TjzjeKWifQheEeNV9P47i/bOBZcNWQznb7jVfMDrqVqM1IXZwyMrhr4Xauj0+i4p3W9wyfyc1of8AI8cpVRqgGOQsd3pJw5Xei2+KwGKfmA0K1L5m67haiNmI21ZQVqwO6LZC3HKsoKBodFAVKp1bxzR+oWq4a10K22n9FrytolLCNAjkfSo7q8htEOHVSNQuddpQ42KSZqC09UjoVbI3SvDYgXOPQKDGAbql0YYTiw87tHnWuy2cbAGMOeT4pP2CuePzG0dyiuviz+djRSfmbqs3P1tcnhsoa841/KLC6HOiuZxSCBvFYsidnNFINRdAn1WvxBmECDAGg1dN6LocUh+04Lm9WnmC4bIQ0WBug+ncFyPtHC8WbcvjF+/VdIbbLy/hPMAw24jj8g5m+x+v9l6XzA0fEeVv82g/ev6KjJ9Uia9vVTz6HlBPsND9dAo8zmHwEO78tkj/AKf9VEed8QYV+fG27NTRmvxDelGLP9rxIpxrzN19CutxXl8lj7DZInCxYBLT6WT+q4nCWeVl5WBXynzI/wDKVVbHKkWLa8gg6jVMQHsUGoGJ+X6Lebik9FmZhnqEHNEN9FYxyDY+q6gxQNwrMUbG26gER5V8f2fKkgPyn42e3VC2ON5MD3tfDq6E6n06rVL7ojqgsGgeo7LVlwIpXc0TvKd1oaFZ+ZTzUVFcSYAThkji2nBpI910MzhD8bikHDWuJkmIs811a1uJwgyE9HjVPB4lkY+VDmh8ckzQI+aayG9LPsFjLv8ASx62Hw9g4tMcZJSNPyg/osXiGPC4fwkiHGjZI86GviA91pZPEc58j7zQS0/C+IU0/ruuZlZmTxWRgyZWucXsiHKKG68vps72127HpvC3C/8AD+H/AGmQf7Tk/ESd2t6D+63uLy4rOHSvzYmTRAaNcNz6LdkAb8I0A0AXlfGszxDjQN+VxLivN3LPY1z48u6N8bPNDQI3k8rDuulwvKbwnIbk5nDpOR7RylzSK9QpwIPtmbjwnYABe/5GGIROY17AK5XCwuuzdMf9akx/to4XGOH5wAhyGtcfwP0K6HKd9wuRmeGeG5JLmMdjyHrGdP0WiOC8awTfD+ICRo2Y51fsdF5Lrwz+ytdelQFwRncfgAE2EJT1IZf/APSm7xDkwtuThj3HqBzD+y5/wX+l67yF5v8A8XEfNwuYf8x/0S/8YR//AOtm/wCr/sr/AI+f/E69KmvM/wDjGIb8PnA9/wDsrb4zwT/ExshvsAf7p/j7P+HXoiuB4uyQzCjwwbklcHEDoAqPi7h5jcYo5jJWgcABf6rj4A/xTixyM/IjZ1pzqvsAumrTljfap3r0nC8UHgTcWUaPYbC8dgcMOfDmuiszY5Dg38zeoXteK5kfDeFyTczb5eWMA3Z6LyPDcx3CuGZU4/j5HwM/uV6dPftSqwGzcW4hF5ri9mJCDzHsNgvY4by/GYXb0vF+GJpI854bfJIyiO+u69vC0NYAF5vL/eN4/jImEk141CEx7KZHsibzSyNjb3caVktZ6pY54IcmIxTxtkjO4K05+N4EO0jpj/7bb/dcvJ8UvB5MbFF93Hm/YLthpzt+JbGXJ8KY8hvGyZoR+UjnAWjJ4MkF+XmRuP8AO0hYJuKcWybDpTEDsAeX+i7/AIfmlm4XU8hfJHIWlxN+q9du3Xj21n5Xn5PC/E4x90Md/wDldX9VxOK4WZw4NOVC5gcaaehX0wrxf/1Anc6fDg/A1hf9SVrx/Jy2Z+tTLCSPHySucdSsZcT1TIRyHsvpOCUalWGdwraxpNcrrOgACCGxueaaLWbCxHZc/lNPKQCdfRbcMMmMDzwyt5q+ZpCrh9Y3E2TOP3biWuPawp1Wixr8bKDXiiD+y2+JQB8TZ2dBRWzxlsM7YX48jZHglpDddP8A4FOGeaIwSir0VHFATDV6jgvhF/EYpJ5sgQQteWtPLzF1LoyeBYQPuuIuv+aPT+q45b8Mby1qYWvEtGi+kQCsPFH/ALLP6BeYzfCPEcVpfHyZDBuYzr+i9RHpBCNbEbRX0Xk8vPHLCcr06cbP1aaQQvlvQFkaKClotX0X0PE1/wD2cNuX9CgmAki19J5jO6lFklNBJFBK1kScATaCLPZVulsaTQMtA6pUi0BBBUqzupNIEik7Uk6IBI6JpXSBX2SR1QgLS5/RNIogB16pkapDRF6oAjReY8Qyc/GXN/4UTW/3/uvUs1eB6rxefL53EMuTvKQPYaKo05TUTvZa0IuVo9VmyTTAO6nDbzTX2WmXWgFRj1WRSwUB7KlFCEJWgZSQjqgYcW6tK2sfNezR2oWoUkHZ+4y2UdD37LVnxZINa5mfmC0myOYbaV0MbiA+V+t91Rrj0KpbkmPFMOaEhru3QrUex8buV4IKABT6KQU72UFWm2uZSEpHckT3emiLGjO/zJXO+iwlV01SKKR2STpIAlwa0Oc49Gi0AE1nyMDMxohJLiyMadQSFojK5TT2W3uERsISZUjeaB/MO3UKg4HQ6FDpUnSdJIdCAEJgIgR1QmiFSKTpOkCAVBJM6IE40LXPlcXPJK28h/Kyu60iqFWiRTUPdTSUGKR1lQhCAQhCAQhCAQhCATCE2osZYInTzsiaNXGl6nGhbkZ0eOz+FANfouTwaIRxzZjx8o5We69Fw2P7NgPnk0kk1UWTtYeNZQb8AOjQvLSOLnk9SujxSR0slDUk2VqxQ1q/fos2vTjrt+HEzlAaPqtuNulBYo2FbMTddlwyr36tfq2IGgMJrdZFOg+XZDnBoFrm9L2IKdpJL1vgKCSQNlNAUhFJoFSeyaEAkgoCBoCEIgTSQgYAOhFg6FfL+LYxxOJZMBFcshI9jsvqAK8P43xjHxhkw+WaMfqFYleYKZcTR7IIVMeWtLQdCtMujxCeN+KwPvzC0HZcrZdfBazOidDNry7EbhY8ngk0ZuFwkb2vVVHPjdyutbbTYWB2JkRH44Xj6LJG7lFOa4e4W4zlGcFV0WIPb/N+izMEj/khld7MK0xymzZErbbfVZ48HOefhxnNHdxpbQ4NK5v307GejRanVkrhyN5mEE1WoWGJj3mmscfZej/wnFi+J3PI7u7ZSaZ8LGhoPQBYtbkefkZyPqQHpa7OKI42csTeUHr1K5+e2nUNws2DKXRgdWlRp0FEhaxpe40AqfLHG3nebvYBaE0rsh/xAho2aOigePNyZjZel0uxz/suK2GR3yxuruui6ZsTAZi6wNm7qq6WLhZeaLgiDmk1bnBoP6rg5MD8XJmx5W8r43lpF2tyPjs2PF5ePkSRs7Eg/ppotUiOR5c6dpcdSSdSiOp4cmcJjTqcBW5H9F7JkjQA41EXDclsd/1cvC8MAx8gOErHtOhbzEWvX8NnY9rxFIdPmoNjA9ydSqroUSQ7lcQNbLNvZzz/AGSLmy/iEnoOaX9QKaFiA5jbQJDenJG6Y/R7tAspjmLT5gIHfIm//tZoVBDw3kdDIQxrxXI97WD/AKW6rzbpPsPF8PKdoGvOPKarQ7L0dxQ75XLf4ceIMB+up/dcPjmMZ2zsZDIxsjQ5jnknmcPU/RVHpnY7QdEeU3stfhWYc3g+Llficzld7jQ/0Wxz9SQEU+RoGiXMB0WLIyYoIy+R7a9CvP8AEePF1sx9G91EdfM4lFjA8zrI6LzedxabJJFlrOwWjJMXkucbKwvfaDKHjmo6g6FXjyEw8p+aMlhWi59FZ438s57Ss5h7jQoNvn0Ul6wl6nnKBZn3kQPUFc1r2wucx4+AnfsuiXWCD1XLyR8R9qUV1J8j/Yh5fUVY2XOxpC7Hk5TRa8OBWrjzzQfJT29WEaFbrMnGe1zC37M5w2OoUpK99wPi3+KYDTIf9ojHLJ6+q1PFmIcjCinAvySQ72K85wbLfw3OimsPid8L+U6Ed19BMbJoCDUkUjemxBXzduP8eftHplljwXB8yPCz4pZrIboa7L3eNkQZTebHmZIP5TqPovIcX8N5GK50mKDLDuAPmauLC50M48yWWADdwbZH0tazwx3TsTvH06j2KRB6LyGE/iMoH2HxBjyHoyZ7mO/QhdaNviCPHLpsmJ8nZvKRXvS4/wCLf+r7OxT92OS55R3Wq+LivkRyY2QyUubbmva1pB96WuB4gEg52Axnf4mAhdP8eyfqTOOkHzHYpOfM1tukY0dzouZPw7jr3/BnxeWfzEg19AtGfw1zv5+I8XfXVrf9SVmaL37T2jqZHHsPDBM+ZG4j8LPiK4uZ4pyc5ro+H4ttOnmObayR8P8ADWDqXsneDdyv5v2Gic/iPhGMKijMvL8rAA1oXSYzH87V+frnYPhmaVolnaXWdWg0KW5xLhPA8LHJkdNDLy6NZJdn6rWm8ScUzx5eHCIY/wAwFfuVoCDFZJ53Fcp0zwb8qPr7uK6THO3tZuUacDcmWKvL8yIHQl3KPosmXKOZvmODmximtHVZs3jT8xrMPEhZDGD8LWDX3JVf/bsFj2fZ3Z8r28rnS/A1p/lG/wBV2kY66nh3DBijzXSNkkldQaw2GDsfVeuoNbbiGjuTS+Y8Ly5sOYxQTOhc4aObsfQrfORnZd8wLyDXPLIT+y8+3xrsy63M+Tj2c3FsCCw7ID3DpH8S52T4mijH3UIHrK6v2C8+3ElePvskj+WMUFkjwYGG/LDj+Z+pUx8TGfqezYn8R5mQaie8jtCzlH6rTcc2d3M5rWfzPJc5bLnxRjlLmj0CzwYuXkD7jDlIP4n/AAD912mGvBO1zzhuf/GmkkHYaBZo4WQj4G8oXZj4DkP1yMqOIfliHMf1K24eC8PhoujdO4dZXX+2y55eTrxWY2uO6TCnx/JxsGd+TQ+NjrorscDxZsbFlM7DGZH8wYdwKW/FyRM5YmMjb2Y2ghz/AFXk3eTNk5G8cLDJXivHrLy8R/eIj917B0q8x4vkayTAkftThdXWy5+Hf/ljWc+PE1rsVkaxZpYX4+Q6OZpaT8QvqDsrbGCL0pfceRia2jst3hroYuIwzTu5I2Ekuq600WFsfMaY2/XotmDEMr3NaWvcGl1HQGkG/kcaY/JL8NmRMb1dNJTD/wAtbLTyuINyf/NfZYzf+5h1/ULW5uaMab60Oix8nYJwW+WC/ui53/LQUiSjdBQWrG54b3J9EHrPC/HWwuGBl/CyR33cnQHsvWuZRor5KJXuYdK6jVfTuC5Ls3guHkv1e+OnHuQa/svl+bq5PePRry/ptUei15scSa7O7rbpSQvmy16JXJc0xu5XbotdGaFsjaI17rQdG5j+V36reE7eL1TBQVFMDRLpsvuasPXHjx53tSd0JpHddWR0QEJdaRVghBQBolsiEUlRAI1TLQghCZpGiCUiLVFJBBBUrLVqHNpBH1SKqkqQT0Rao+ikhAWUbJo0QT31QU9EiiEX+Ux8h2Y0uXhmG2WdzqV67jEnlcGyXd28v6ml48aADsqjDkusgdgtvAxXOi8waknYKGMhefvG2e9rPH5mMeaBxA/La0y2rp3K4EOHQprYgzMbOYIctnJINnjQhRlYk2H8TvvIT8sjf7qKwoRYOo1CVoh2khCASRaEAmkjdFZoch0RF2uhHkRzt5X0VySgOLT8OiDqS4pA5otR2WsbB1FH1Tx84toOW5UWUzs7uqNQFYs133TWdSbWeWF8Op1HcJHhks+JJnSZMcETGktDh83+ig51I5VQ1AtMI11IZ3WziZk2C8uhDSD8wI3+qwJonXpsDi+PljkceV+xjk/ssPEfD+Nmcz4Kil7dCvOuaHb9OoW/h8XycXlbLc8Q7/MP9URyc3heVw+S3Nc2jo4bFY2Zg+XIYf8AMF7nGzcTiMVfDI3YtOhC5nEvDMcodJhOA68hVHCaLbzRuD2+iYIN91qTYuRgyltOjcOh2KuPMY48s7fLd+YbKDPSFXKQA5p5m9wlYKIEITCATCAjqgAgpqJHcrCUGrkO5pCOgWAqzqbUlUSsErtaWdxppK1XGzaBIQhAIQhAIQhAIQhAwunwnFimluYWDsFz4mlzw0ddF3YYvJjbyjUGljO8enx9fvl9b32XzZYMaMAR3ZAW5xbIawCJujW6KMbJjjdZNPqtVhyIzNKXEggrl/J8er/H/wB+xzeUudzEalUIrOoW43H7BX5BG4WLl168cJGiI6OgWeJtBWYwBQpA0CxXQ6VtwZMvVpoBQCrZI9o+FxHshXrildIsblL5tV63wVAhFglAGifKgNeiAEJoEU0JIC00rQDaBoQlaIaEgqABOpAA3J6IE4taxz5HhkbRbnE6ALwviXiMfFMgPgLjDEKZzde5CyeI+Nu4jOcaBxGHGa0P8Q9z6LjXenTsrIlaTt0m7rJKzlcRWnRY1pluYT5cPIZO1ttB1HcL0r3QZUIlgcBYstXlI5pKqwQO6yiZ7TYZ+iDtB5BtriFnineDq5cNma8aEOH7rK3MkO3Mfor049CJHH8QVeY784/Ved+1v3Id+if2x3836J049D5g/E8fqpfkwsGrgT6Lz32w/kesb88j5WNv1coO1PlNePhC1CXE2BquU7NyXaNIA9Ak2PJyZGx+Y5xcaFnRBm4iRzNIc0k6OAOq1I3vjfbPxdO66WbwJ+HitmdM1zj+ANpcwgh1bEbd0HRcMqGDznYVMq+Zzv7LGM/MI+ARs/ytWY8Tkl4eyGd98tjbUha7LIvyy0eyCXTZsth87teg0SbjhwPPZd3JWYDXWvqVbXxNPxyMH1tUawwCd5dPZUMGNo1letg5GOPxk+zU2ZUAc0gutpBHM1QUeEZkMLJvJkDHtLmnrQ3JHZbfDTnvnY2FnnPYOdvKPiFdu6nI46ZMUQMjijq7dGwhzgehJ6KPD/EJYPEeHKNQ53JygaUdFR7TgnF5eKEwTThkg2NUXeld12W8Nh5reXyehND9l5rxPwmTHzncRxo3CJw5pSz8Dh+Jdrw3xGXiOHI6dzDJG7lPL1Fb/VFdWPHhh/hxtb7BafG4TNgFzRbojzj6b/ta6K158iBjCJJWNsVqVEeU4FltwoOKY8p+7xj57B/KQvIcS8Q53Epn80zooSdI2aABZOKZwbny8gNt5oSRpzC1wnGnoOhgcRlwZi3mLoJNHsJ0911JCbrpuF52XoVkMj5Gjme91CqJ0Qdl8rWfPI1o9Std+bjt/wB4XH+ULmU3smKQbb85p+SJx9SUQ5jzkQc4Aa0nT3Wp9VlxhA99TFwI2IRXWc6iaWGXLiieGPJvc0LpUXChRsd1y80/7U71ATqOsJGuAc02D1WnmUDY6rDgSUXx9BqFlyDcdnVFicGCOeSeJ5oltsPYpc02O4xyMa8DcOG49FGO+RkwdECXdqtdZnCeKZrBIMR/KfxOHKFjKyfqyWufHPiA/wAKaF3dhsLp4HGH4ZH2fiMjR+VzNP8ARaeXwubBrz2UX7Fmv0XveC4WBFw2J2LGyWOQB3NI0Ek+q4bdmMx7frpjK5uJ4uFgZMbHj88TqP6FbWRm+HeItvJoO7mMh36hdN/D+HSj48DFdfXygudmeFOF5TSYWOxX94zp+hXlmWu358a5XJyODcElN4vFREegkFgfrSrHgzMIjyOMcOyGA/LJLRWrl+D8+Al0D25TB0a7ld+hXPZj4uI4x8WweIsN/Mx9aexH916Mfv5R7LHzmhrXGXFa/wDGwZIo+xW15OKIedvEjEXD5XZHOz915PGw/CuQP/P5sJ7SuA/sth3B/C424hkzO7MkB/susyk+VmuoXYcT3eZxPFFinM80uY4f2WjncR4Pj47I8XiHmODreTHz2O2uiwu4TwGJofNFIyHo6bIrm+gWtJk8BifycN4GMhw053vcW/utTlZ6087iPDMh3M+N8junJTB+gWKKSQi8LhfKB+N42+pWd7soEljcLh7T+UAuWrMcbfJypsk9Q53K39FeROiZ+RJ8OVnRR/yRfG79lqyRxukEWO2SaUn8R1/7LNFC/IP+zwtgi/4hC38WKHGaWQW95+Z27nK/IvLWjFgT4/MXTsjc4UeTU+1rJFh27TmcT1cV2YOF52TRbiPAP4pTyD/VdODgDmj/AGjKDf5YRt9SuWW7DH+1mFcLI4Phu4cyQZh+2b8vJQb6IwOeTJEUcb5XPbzcrReoXrcfhnD8cgiBsjvzS/F/XRcHAeG+LC5g5WgSaDTS1znk45S8a/jraj4NnyauEOO3+d3M79B/qtyHgOMPiyciac9geRv6DX910TIoMi+fn5ed+Os1nBj4uL/Ax4oz3Ddf1WQyeqwGRLmXmy2ZX9rpMYyl5KnmK1so5JxX/ZCwTaUX7DXVLKy4sSBsuQ8a0AGal57AdVZrys7F+NgvpSX2udk8SfHiQOjx3RzTy+UxuSOXl9T6LbjbO2JoyTGZepjHwq5acsce1exTivO+MhzYuCT+dwXoDsuD4tF8Mx3flm/qCunifNsY2f8Alp43C38X4C6Uh7J8N1Me5pp7D09aXNwSyPPiZkMjkiY8CRr9iOvsulwLj+Rj5EMObO92AxjmOY1t0CDX70tTh8A4lxqeLGiL2uJIa+hYrqvvR4mxm4HlZrGtkbHhzvAjdzc3I096U8WkwnZLY+Hw8sULeQy3/FPda2S6FsjmYrpBADYa510etLEHWqh8oApY3aBZHSBjeY6noO6wuNRmVxvS1BEh0WqdLWd8eSIIZ5QBFPZjpwJNGjpupZEZHgDbqqFDG4247L6R4VZy+G8P15//AOorwUpDGcrRfQL6Zw7F+xcMxcYijHGA733P7rxeXf8ATjrgylKlRS2XxrHoQ4LBK3mbqFnJWN50VxvL2NxpNY1ry4XZFb6LJehUPdyyDsSr6r7WjZ74vNnjypIvVKlak6L0OaTspVlSRZRTB0RdpEa7ICIe+6pRdeqe/sgCHc5ADeWtLKl2g9VdC7pB1QYge6pDmjcFAKBUEOaCNv0TRqgxGOtdf1UlZyLWN7QBYQY7RukhAINBIlAN7oFYtVsNlNJEHuiOV4ok5eGRR/8AElAPsP8A4F5olevz8fHyoeXJiLuXVpbu1eWyMdkMhbFKXtvZ24VRrq45XMPcdiocCN01UbjRHONNHf0WzjcQyMH4ZB5kJ0IOui5bSQbBoraiyg8ckm/dB1fskGc0ycNcGyH5oXHQ+y0XWyR0UjHRyN3a4UVg8qSGTzcdxHsulHxGHiTGwcSaRI3Rso0I+qo1ULNl4M+I3zf42MdpG9PcLXDuYWDooGUkICAR7ItFmkQFJMpIGN1kjldEbaSsaSK6Izm+SXOBNbgLDxHPdnvYxrTFixfw4zuT3K1UIDqgJJoGmkhA0IQiEAWSCSNxY8bELq4XH5YiG5gLv/caNvcLmJEWqPXE4nE4KlDZWEfO3cLhcS8MPY0yYv3sXbqFoQyy4r+fHeWHt0K7eBx5jnCPIHlP79CivK+XkYbyGWB1Y5ZosmGU8r/u39ui9rk4WHxGO5Gta4jR7V5ziXh2aAFzW+ZH0cEGmWlvqO4R7LUa7IxCeU87Bu0rahyYJ9L5H9WlEMJqiwj2U0oBa2S7YLYK0JH8zyUE2kmkUGKd1NAC11cruZ6hUCEIQCEIQCEIQCAhMINjDcG5TCdrXfbq46aWvNBdLC4k+GmyjnZ+4XPPHr1+NsmF5XZ0o2sVAakm/dS3IjmbcZ+iVrz2cfUxyl/FB7gaa9w+qzBzq1cSsTQFkWWzQhLoimEJalF0oPYbqmilIJHRXzaL2PgGi1PMguQOwUKUrHVBSXVBpAOu6BjTSk0rCdoGRokAiymgNK0XJ8S5b8TgcrozT5CIwfddZcHxiC7gTT+SZpKJXjQAAGjQBb3CeE5HF8ny8f7uFn8SY7D27rHw3h8vFc9uJF8IPxSP/K3qV9AxceLCxmY2K3liYNu/qVU48P4l4Zh4MsTeHzOkY1vLIHGyHLhNbzvaxp1JoWvX+KOHNgIyYQfLld8YOwcvOOiZG4FjfUlOpxuz8C+yYxl+1c7gLLRH/e1z26hZp+JZEkBhB5W7EndarX8ugH6qjJyfogRn8JcPYqfNd6fogyOO7igycj/+JJ/1JFh6vP1csV+qFTi+Rl6uH6oDYh1/QLGUAhEZQ+NuwJVsmLXczBThqCtYqmOoqDeyuIy5DG+YDfpstJ7uc24fosjqcyxoVi990APhPwkj6plzidXOP1QI3vdTa+qztw5nENYPMcejNVVYKCLAXTg8OcZmbcfDpeU9XEN/qoyuA8TxWkzYbvXkcHf0Qc+wU7SqtKII6HogKdDW7wfIZjZrZS0F7SOUnotJIEhwKo+q/wCPwyQ8r4C8uFHsvKYufPwbiDzA7kYTTmHUFpOn6La4RyZODG8vIr4SAFj8Q4rGxQzxh2h5H32KLx1Jc3KyR8U8jgdms0v9Eo8OYkOMLmDu80sPh7NdNw1kYPxQksJC6JJu+Yn3RHhPE2GcPi0jbBEjRICNtd1xHjqvY+M4Ljxcka0Sw/1/svIyDQjsgTjzReyIzokzUEJsFdbRFpIKEB1Ug8r77plS7QhB0YJC6Kj0WHLj5uV/bQoxz07rPV7orXxonslbI5jg1w0cRoVsPbzNpbM+dlZONBjzy88cAIjBG3+qwIMfD8h+Hll7dOmvVe/4DxiDiEPlc48wdD0Xzme2vJ2XXhwGYzYczE4gIZOUPaHG/wCi5bdcznK3jePb8X4U3OwXxtH3g+Jh9Vw/C2c6DJfw6c0Hk8gP4X9R9V0Mbjcz+FtzYwyTyjyzxk7eoPQFea4tmGXi7cljBjOkogNPyu6OXlx0ZSXG/jp7vf8AKQOw62tWbiGHjaSZDb/KzU/svHu4ln5hLXslme3Rxc6m37KfsubIfjlZE09IxazPE/6t2PRT+Jo4ifIxy7+aQ8oXKy/FOTO10Zc0tdoWRsBv6larOFRk3JzyHu5y2mYUbBo0MC9OGnHBzuXXFniM/wDBwGQ2fmL/AOyUPC8yV/JG5mgtziQGtHqSu2I4C/lZcr/yxgvP7Ldh4VlytPLjCJh6zO5b+g1W7njj+pJa87lcHysJ7Wzzw24WC1vMCPe1gOO/Y5jR7R/917Nnh+E0cmcvNfLGKC24eGYGPRixWBw/E4WV58/Lwx/G5rteIx+ESZB+D7RN6tbyj9V1cTww4U6TyYvVx53L05b+nYKTQ2Xlz8y38dcdU/tzYuBYTDcpknI6OND9AunBDDjtAx4Y4h/K2ilaC5eXLdnl+109JGbn7m1jdJrosE87MeCSaXm5IxzGhZpc3/GnvZ50PCs2SCr8zlqx3A6pjrz2fYvyOnkZIgx5JnGgxpK85wBrpsnJzDsPuwe53KnjnGocvFiiwy4iQ68wo32XUx4xwv8Aw/hzWB7pS4vce4Fkr1a9Vwwvf2sWy10mkkClM00ePGZMiRsbB1cVycIZvFW5PmZj8YQSOiY2ActuHUojzvM4PiS5ELcnME/ksDtjJqAT9Fz/AMW9+1r2breK4cmFkZOM/wA8QNt7Bof3C0sjivEo8WHKjxsePHyXckfMSXtvZx6KXRzjjc+PmSwulycJzXNhbQB/uqLJc3wtjRwsLpmhnK3b5XV/QL0TVrw+8Z7ac8GRj5b8CTLkyY8vGfXmV8LwOnYLFHPG08ByZ3BsAjcwuJ0DqoWurkwGbOxckPDTBzWK3sUox8OHH4dHhPYJomXQkAN62p/NhIcrHly4GRjSNyazY2OHMIfjLSdtlh4NA+CCf4JY4HSXBHKfia1b8LI4GFmPEyFvUMFJ/ET8IJK8+WyetxjXP7IrjeKW83Ay78krT/ZdTIyIMZpdlTxxDs52v6LzHiLj2Nl4hw8Tmc1zgXyEUNOy14uvL3l4mzKeriRPILr2tXDO+IyOjc5jnWOZpo0sERs0kHUK9V9l4WwHgUArDwBZ6LWaUPkILQG82o+HugzOJ5HSu0+E0OywTv5nRxdBVramkGRE4Acrti09FD4W83NynmqkGOm82gAWeP7tvutXzS2QBrOalnbM06OZXp1BSrx2PDOAeIcajLxcOP8AePva+g/VfQHOs6rk+HOHjhvCmNcD50/3j73HYLpE0vj+Tt9suR6MMVErGSkXLG5y8VrvIsuWJ71DnrE953JA9yszta4jIPw+yprtAb6LBM62rOGENHsvq+HK4bVXae6gWqC+g4GAOyRTOqg+6IanZNBQS0a66q9Eh+6aAvRIX1TKEB0U0FSKQQhVSlwrZAJUCl/VGqBPja7osLmkLYtI0Rsg1r1StZHsI22WIoHad6KUa9NkRLxa0cvAgyW2WhsnR4W8VNIPMZWBLjn4m8zfzBaboyBpqF697b0IsLn5PDY326H4XHp0Kqced2SW9Pi8riyQGOT9itF7HMJDgqjJDkvidXzN7LZIiyQXRnXt1C0ENcWutpohVHWwuKZPD38p+OI6Fp2W2/Fxs1vn8NLY5CLMJOh9uy5MeS2Ucs1B3fup5Jcd/mQOII1oFFbRLg4skaWSDdpQVsRcRxuIRiHPZyyj5ZR8wWPJxZcUhzvvIT8sjdR9UGNCQNjRNRAhJNAI2QhAWhJNAJpIRTG6alMIikJBNAJhJAQMpEAiiE0IrJi5uTgn7l9sG7HbL0PDuNwZVMvy3kaxv2PsvNUpcwGr6agqj1mZwrFzRbR5UtfqvM8S4HLjut7DXRwWbD4vlYZDZLniHQn4gvR4XEcbiEVMId3Y75gg8Q2fIxdJB5sX7rajliyG3G7XqDuF6XM4HDkgux/hd2XmOI8ImxXF3KWEbOGygjJdyRkHc6LRVF8zgBMbIUqoFEjuVpVrWndbq7IMW6EIQCEIQCEIQCEIQNAQFu43D3yt5zo1S3jeONyvI1mhUuk3AhbQcHErHmYgijD2XRWfeV2vj5ydajHlh5muIK38fiDXaS6eq5oBI0S5XJcZU17csK9Iwtc22mwVWhK89BkywOsE+y6mNxKOTSQcru645a7H0NfkY5T630igGxYII9E1zeqXoRp1QhRXsKRSnmKd2vW+AZSR1THogg83RtpU7qKWcaKjSDE2M8tEkX1S8sA1zLKTamkEho7qqQUkDCaR9Etigpc3j8Yl4DmtP4Wcw+i6KxZkXn4WRCPxxuaP0RHjPBuZ5PFzE9wa3IjLde/Re3Io0vl+NI/GmZM3SSJ117L6Rw7OZxPFGSxhDTvfdFjV8SSxxcDlEgsyODWe68PKADVr0fjHIMmZj4bASImea+h1Oy8xKbeSiVikZSxG2racOZgJ3WB7VUSHEppNFK6s0AS47AKhLI2F72FwAod1sR4whDXS/FI7RsTdyV6ThHhgTls/GCWs/DjtNfqs2yNceTihfM/lYDZ6k0FsycLkZCXMl55bHwAaV72s0wEOZKxo5WxyFoA6C1mMuqs+xiuc/h88cDpZHsHLryjUrpeHeG/asrle0O52nlA3Wlk5Rcx0d7rueD5MCNwycziL8WWAkNaCGtIPexqqOq7wjNIw+WxjL/MVq/8Ag8Ru/wBqzYY29Q0WV0ZOIz5W2Q57D8vJ1H0SZi5EmvlPru/RTq8YYeEcBxaJikynj8xoLfZxBuO3lxMSDHHQhuqxtw6/iSgejBaytgx219055/md/ZFYJc3InPxzPd6N2UsgyHahhA7uNLfDi0UxjGD+UKHWdzaqONxTgMWczmBazJGzxsfdePyMabFyDDkM5HjbsfZfR3DstHifDoeIweXKPiHyu6tKDwRBCRWzmYkuHMYZgeYbHo4d1r0g9F4WyNZIHHfULvZ0P2nh08Y35CR7heL4PknGz4n3pzUV7xhBdv8AC5UeZ8OZHLkTMuuYNf8A2K9SCCLHVeLwAcbjToz+Z8f9/wCy9ZhzB0QFEu7AKDW8RY/2jgWQ0fMynj6LwL/iPNW6+pHFklheJGeXE8FpLyG/1Xy+aMxSyRWHeW8ssbGihW/4dgxZuIhuTI2OhbS5hcB9BusviOGFuePskY8trKL2t5eY3vXRcmKV0buZpp3dOSeSUkvkc6+5VZSSkSFJ+Kg3crtcH8PjPncySSblZXMIo+Yi/RFcXmBScLXe4nwfGwcg4nO/zC3mYa+IG9nLSPDS1lyTNi/zu/siNSB3LR7LdC0g3y3uZzB1bEbFbjHWweygqkKHSsbu76BSHvkP3UTjadXichtkLY4dC9/wRvYDudLIWSHh80sjHTxfdA/E0uqx7rt8K4WyDmdBDJM92nwNNAdrUtk/WpKyeH4XYue5srzJDksLJARoey5mdw90D5MGU2wOJx5T+H+Ur08HC8572ud5OOAQfidzO/Qf6qpOGQ582WyZ7y4NDmNBoA99lz/mxX1ryHDck4+QHTbfJMP6OXpW4uU8A4+I94Ozn/AP3XBGF9pmlbF/5hjC4M/PXzD/AOdl6Dw7xoTwMwsiQ+a0VE534h+U+oWNm2zHuLUxZ4+DZT6M+THCPyxDmP6n/RbUfBsCPWRj8h3eZ3MP02/ZbTn1odKUGVfMz8rOu81xlaWxNDImNjaNgxoASdJaxEuIulJcRuuGWeV+1uYyMhepL1BDz0K18vMhw2NOQXczzTGMaXOcfQLExyyvJGvkbJdanW1xuO5GTJwpsuLiyeWKldI93KWUdi1ZOIZmbBwN2Q+WIzSlvK6FtBgd7r0zxsrJes+zq8rj2WhPxKJmS7Ex4pMnLH+6aKr1JOgC0uKcKxuHYL8vDMkeTjkO83nJL9rtZ4XCPxEZnkM+04QdZNair/ouuPj4T7+pc2bFyRxLFyoXQuhlaDHJE43RruuZFxsYfAcYNdeSGmP/AC0Viy+LDF4rlv4e4SuyWtaA0EnmHULHB4czch7ZsvIZja81AczgV3xwxwn35Ge9TwLh8fE/tz81hJA8thP4XHr76Le4ZPLPxWCHIa4TYML2vJG52B/RdXExYcPHbBjtdygkkk2557krXwYp3ZmVnZMQhfMAxsd2Q0d1m7pe/wDFmLJw+GXGzM8llRSytex17mtVDOFQHGmgnc6Rkk5nby/CWE9itxrSdhacjmQs5p5Y4m93upeW7M7f9W+RixsTExDzQwNEl/xHfE8/U6rPZ07ei5OV4j4bjWGPfkP7MFD9SuPk+L8t1txMeLHH5j8Tl0x07dn6zcsY9dyO3IodSVo5fGOG4dibLa5w/DH8RXhMriGZmOvJyJJPQnT9FrEDsvRh4U/+1c7ueqy/GEbbGHiFx/NKf7Lj5fiLieUCDkGNp3bGOUfsuZS2sThebnGsbFlkHcN0/VenHVrwn453LKtN73PJc9znE9SVj2Xqsbwbk0HZuVDij8t8zv0WbL8O8LixZBDLkyThpIeaDTQ7Utfy4T51m45V5Jji06KwkB8Ka6uagaWxhztjb95HXMTyyVuteMB8rGONBzgCulMxnKWNFsGgCo1sou3YdSRqkyd2jJQATsVJuI8rhzM6dwpyInSjzI9QNKHRQW2N2M9z5G2HbEarveHOGY/EczHfzc7YfvZj09G/qvOQZMrG8p+MbUV9K8PcOHDOEsY9oE8v3kmm3YfRefydnpg6YTtdJzrNrGSqJUFfCyva9eMS4rESqc5YiVh0Q91ArVdEHv53arO8rGSu2ESoPL5kbS6uZwA9Sts3quIXHM49jQMvy8T76QjuNgu1dr7GjD1x68ud7QPVMI2SuyvQ5qU0LtBCd7aoDlH/AHUkKtSkQgQQjptSEQaIpCAgaSEFAhsgjRA0KZQYyKKOis7KNUQVqikigHugqgQsMkI3astoCDTcCErrqtmSIO20K1ZGkGkUidUualNoNEIGXWoI1RsEXaDHNEyZnJK0OHQ9lxszAMQJFvj79Qu6pI+oVZeRliLTYNhYivQ5fDmvJdDTXHcdCuNPA5ry0t5XdlU41lmincz4XfE3seixEUapJEbpjZO220f6hZcfNmwvgk+8iO4K5zXOYbaaK2mZDZByyANd36FVXRMUOS3zMV1X+Faxtri14orAGvgf5kJLXDtsVvRZcOY0R5DeWToVEYUK5oHwdeZnQhYwbQNNJCBotJAQ6aEfRJFNMJJhENCSPogadpBG6KpASTQNCSaCSFNFrg5jix42c01SyJaIjp4HH5IeVmYC9uwkbuPdbfHuLRnhjWQPZI6b8Q3AXn3AUtbIPKOX6orASb1NpIQiE800labjbrWxO6mgd1rKgQhCAQhCAQhCAQhMIM+JF5szR03K9Ditscv6LlYEXJHzkaldSEHkGuq4bMn0/G18na2fKA3CiXHbLGWuqim2QgfFqpflAaNjP1K5SvZZ2ccSOP7PlGKQey2XQg6gBTxTIM0rBytBZ1G6rFlErOU/MF6sb2Pj7sPXLjE6Bp0LVrS4pbqy10iFBZzaBaco0YcubHdVmuxXSx+IRS6P+B3qsL8XmFPba05cQtJLCfZc7hK9OG/LB326iwQR6IXBhy58YgWSOxXTg4hFM34xykLjlr492vyMcv17lHKDunoN1Q5TqAu75QACfNy7BKk61QNpJ3VGhuUgk4Xv0QCdqfqivVAyVIVEJAIcNKkwm0OeaY0u9VLZFkKqCbb5hSztx9PvHfRqyNDWD4GgevVefPycMWph14XiXhPiU3FJ5MKJhhkPMC5waBe66nh7gPF+GPcJcuBkDjbohb79uy9PZTC8uXm5X8i+nHifFomxuIzMaaiymscTWp5dF5kt1X0bxNw77fw0uYPvIbc31C+evFDZerRt959YuLE49BssZFqjv1QAvSzxLWjmF7dV0ceNvmtiwWGfJk2P5VqYuNNmZDYMdnM47noPVew4dhwcLh8uIc0rv4kh6n/RZyzkamPWThPCYeG3NMRNmO3edQ30C6Jm+IEuvVaZl9VPPqF5ssrXXnI8pxEVxPLHaUlYOY73S2uLN5eMZP8ANTv2Wi5hfoQCPVevD8ee/rWkNyO1vVdHw9lY2JnuORhRZXM2mCXZp71S13Qh8he7lF/hYKCwSRugla9uw1C1SPpOBmuyoiSzHhkbuyEg0Omyzkl2rySfVcLw5JJO5vlMke17fiDGDlb6kruiiNFmNVKYQUBaQJEJqS4Dd1IApFUxskv8KJz/AFA0/VKRgiFz5EMPcXzO/QIjncV4dHxDHLTQkGrHdivD5EUmPM6KZpbI00QvfycQwYbps2Qe5+Bv+q8t4kyo8x8UrIYonN+Ehm5HqeqDjNPK4EdF7zhWVjS8Ohlny2Ndy6saOZ3/AGXgd9FnxeIy4jDG0WCeyqOrxWeKHxB9qxw7y+drwHir77Lp/wCMyY4d5WQIGON03Qry5yDkvcXkl1dRsFiGKZHWASPdQd3J4zA5xdJK+Z/8zlwZnGfIkexpp7roLbjgw4m3JKwO7D4iswibKPuMOZ4/M/4Qg5rMSR5rmA9BqVuR8KuP49Hfmc6gAt6PFyWjQshb2jFn9VtRcLdNC/IdT2McGkyP1s9gg5jWYmO6vNEjhsIm2VnjmycOVuTityGl+hAsO/ZdvG4dyMGgj01DQsxjx4D8covte6Wrx55sHEMvKbO6IMo3bz/8tdE8LbNL5kkLC7uQuxDFPN/Aw5XD8zxyD91ss4Vlv1nyI4h+WJvMf1P+i5ZbsMf2tTCuFPwaLIjAcA2ttNlz/wDAYxIGsmc8/laCT+y9tDwnDjIc4STu7yvJ/Yafst1tRjljDWN7NFBefLy8f6amDx+H4XkNH7NyDvKa/bddfG8Oxs1mmv8AlibX7rsknqUiV5cvKyv46TBrRcOwoCC3HaXD8T/iP7rZL6FDQdgoLlDnLzZbsq6TCMgfqFzvN8viZPdo/qtrnornSm81x7Bq66b3G0s+uNI/7L4pY4f8cg+zgq41wt0c7srEB1+JzBvfceqw55D/ABMz/wDeb+zV6N7fNZR7Lvs2XCY1MceuXwrjzZ2thzH1INBIdL9D2K7PMQQenfuuDm8JiyXEtd5M3RwGjvcLTbl8U4MOSaN0kI2PzMr0PRc8tWO37g1LZ+uhJix5fHcuDiGRL5LIxJG0y8rQOqycFc2CDiToHumw4H3CSbuhrX7LlT8Qw+IcTwsnIxw6FjS2YE2D20W22bh7ePY78NrYcYxObkODeRjtNBS9Uw7jyse31s4mDJxLAZmZGbkMyZ7dH5bqbHroKSxo8ziuLi5sWQ2HOxXPiLnNtr1hhlmwI3Y2JxTBOLZ5HPDi+MHtWiJMngkHDWYUj35DGHmJFt5nd7Tln4db2Hkz8Rxc/Dy2x+bFcRfH8rrCw4Yky+GDh/EMKaJkcfK6VxAbodCFzh4gjhjGLwjCDQNgGlx91f8Ah/GuJ07Mm+zxb082fo0KXHn/AOovU5uXHBEyDL4n9ugjIqFjOXmrbmd1WMw8S4/O2csbjwgU17m0AOwHVdnB4Fg4QEr2ebIP97OdB9NkZnG+GYtiTK8xw2bEOb/slz//AMTqf/1XDuG4vDm/ct55T80z/mPt2W6GudsCT6LzOT4tcNMPDa0fml1P6Lj5fGOI5libKk5D+Bnwj9Auf+Ps2Xua++M/HtsnMxMNpOTlxRkbtDrd+gXIyPFWJGKxMeSZ35nnlH6LyVa2nYG5XbHxcJ+sXZb+Otl+JuJT2GyDHafwxCv3XLfI+ZxdK98jjuXGyqgxcjLfy42PJKT+Vq7GN4R4hJTsp8WKz+Z1n9F2/wBMJ/xnuVcIj6JNaXu5Wtc5x6NFle0x/DfCccgzPmynj1pq6cL4sVvLh4sUA7tbr+q45eVhj+NTXa8ZieGuK5hBZiuiYfxy/CF1sfwfjxm87PDq3ZCP7ruSTSSaySF3paxEt6BebLzMr+NzV/1GNgcLwq+y4DHuH45viP7rYkzJy3lDwxo/CwUAsBf2WMuXC7c8v2ukwkDna2TZ9Vrzu+Fw/lP9FkJ0WCbVp9ita5/tDL8eLZq1VSlrqdyrKG8226+3Hz7+oiHNlRjsbW35pYfi1b/RaUbqyQb2W223mqv1VFSBri1zKIK1fOkhl5mWL3HRbrIuVVJjiVga1pLyaAHUrN+fVn10vCmC3ivExPLH9xjjmd2LugXvHus33Wjwbh7eE8LjxhXmH4pD3cVtkr43lbffLkerXjyESocU3FY3FeG13iHFYnuoGlZcsD3WdNlrGCSe61c3KbiYkk7jo0aDuVncdVyp2DinGIsEfwIPvJ/X0Xu8fX7ZOeeXI3eAYz8fBdPMP9oyz5jidw3oF0TQTe7mdYoDoB0Sq/dfVeW/QbWPzWgEkkAd1ko9VD4mvB5hoVQCUO+UqQ5xebFDorDOUU2qTohAD1Ks7KT2QNUDOyjqsgACRooiSpv3VUpJ9EAiyknaATStAPoimkQEWldohUkVSlAkEnohJ7gBZ0QLnIOotM8jhqoZI1+gtXXsg05ojGSasLFei6DgHCitaWCgS1Br2iuyV1umCEEk0NRaAVRtSWkIAtta+Rix5DeV416EbhbAKR3VR57MwH4+rxzMOzlovZya9F6cY7WSPcHyEP3a99t/RaOVw3QvgGh/Cf7J1njhpFZ5ITZoEEbgrARrR3VGaGcsHK74m/uFmLWSN5mn69VpKmPLHW00VUdDHy5IPgkt8f8ARbJZHM3zIHadlzmTBw+LQq2l8Tg+F3Ke3dFbBsaHdAVRzx5HwyDlk/qk+NzCb2RCtNSDeqaB9UJbo3UFISTQCaSfRAJjRSqQCfVJCB9UwkEIKSS/RNAFc+Z/PIStuZ/Kw9+i0SgSNghTI7lYe5VGvK7meSoTKSAQhCAQhCAQhCAVxt5pA3uaULLCxz5WtaLJNBFn67ccdUwLbaK2WONnKSCbeNCso0Xky/X2tVnrOJedKUxFoeObZJx5nIfA9zNKPsVl1a3EsTlHnMFgnWlz2EsdzNNELrRyy4/wPHM07grDLhRzHnx3cjurTsu2GTxeRq79jE3KDm/G2iOtLpcK4VPxKCXMkk+z4EV80m5dXQBcrH4fkZGdHjOaWhx1NaV1W/xriT5HM4dju5cPGHKGt/Ee5Xbrw+tdFzPC87Wwh2fivA/8w4ktv1Fn+gWtmcDzsOPz4uXiGEdRNBqa9QFy48hpAa5buDmZPD5PNwJnRk7g6td7hXpzjScIsgHkIPp1C1jjPa48uy9S7L4Rxl3/ANyx/wDD8w/+pgHwuPqP9f1WtlcA4njkOhYzPgd8ksLt1LGsbx60CyslAbKYyBqdlYdYtZYSRrokG63aonVPSkAAkW63aaEEp0jRZGROeL+VvcrOWUxnasnWPYaqmRPfsKb3KztYxmws9ymST1Xi2eZJ/wCXSYJbDG35ref2V2aoUB2ASQvDs355tzGQ0IQuPVMJpBC1EMamui+d+Jp4sji8rYGtbFF8A5RVnqvdcUzBgcLnySdWtpvqTsvmLiSSXGydSvf4mN/9OeTCWm+6z42LLl5DMeBhdI/t09UmMJIa0cznGgB1XvOBcGbwrD55BeVKLefyjsvXs2TCJjj2tTD4dFwrHEUVOefnk7lS8m1vZI3XPdZK8X8tyv139eKBQSeiGsJWVsR7K+5x57j8Lo52ZIHwuHISuaHsa3WyQvYZmC3MxXQPJAOzgNlyh4YbzfHluc3sG0vVr8jGT7XLLXbXCOQBs0BSGy5B5Y43vJ2pui9dBwXDhILYQ493arbbjhopjWtHoFMvKxn4k1VocEm4lwzh/kec1rS7m5OUHlvpa70MgkgZJd3v7rS+z+lrJjzyYkb2iONwLr5n60s6vJ9r9ay18jbAc8/A1z/YWqdA9g+8dHEP53a/ouZk8dYwETZn/JH/ANlyZ/EMTb8mEu9XnRen2cvV6OWfEhHxPlnPZo5R+pWrJxcR/wAGCCKtnP8Ajd+pXlMji+TkgjzOQdmNWi4ZE5AYXnu4rUy6lj0uZx3msT5b3/ytOi5M3HWjSCIE93LRbhR81Sy8zvyg8x/RdGDguSYjI3h+T5TRZc5gb+xW2Ky8Pgm4qT5z37A+VGQ0m/da3HMGDh8zYomuD6POHO5qPuqma/GryYpHH+XosD8bNzXBz28g7uOqDl2Cqx2Nflta7m5etLtxeH4nUCJCepBW/j8Ejg1azlPclFcoYchcRGyNjT1NklankhmV5OQHAX+q9VHBA14bzeZJ+VluP6BXn8Bn4jAHR4/kyMGj5DRPpSzc5P1r1rSwMFja5I2N7EBdE48bBcsgHuuRwfJZi5n2Pij5YGNNAj8J9T2XtI8HAiYJo4oXNq/Neeb9yuee2YxZi4kbWvNY+PJN6sZY/XZbcXDcxzT8MOMHbknmd+g/1Xa1LQQbb0Ldkl5cvKy/pqYRzWcHiJvJyJ5v5QeRv7a/utzHxsfGH3EEcfqG6/qsqF5stueX7W5jDspIQuVtrRIQhZUioJVO9lBv8pXLJqIJWMlU5QSs862knULShPmPLzs5xK2Zn8sLq+Y6BaOdMMPAc5po1yN9yvdhhccJP+sd+uLhH7V4idJuGcz/AOwXpoj8IBXA8OwERS5Lv947lb7Bd+OgE8i/ZP8Ai4fiZWa2pbp7HoVldqFIjc7ZpK82Nv8ATTTn4Xw/I1kxYwfzMtp/Za58O8PO0uWz0Eg/0W7kZ2Fhg/acqJhH4QbP6BcjK8XYcQIxcd8rvzPND9l7Nf8APfxzvrP1st8M8PLv4mY/05x/os/+C8GwR5k8UbQOs8l/svLZfijiWRYZIIG9oxX7rkSSyzPL5Hue47km17MdOy/+q5XPGfj3UviPhWC0sxI/NI6QsDG/quVleK86bTHiixh3+Z37rzcRokHRbEUb5nhsTHyuPRrbXT+LGfrPtb+MmRl5OW7myMiSU9iTSw0OgXZxfC/FMkcz42YzO8ho/ourj+FcCGjm5UmQ78rBQWMtmGE/VmOVeSsHTUnsFu4nBeJ5lfZ8OTlP4n/CP3XtceHCwxWJhRMI/ERZ/VW/Ilk+aQ12C8+XmSf+Y1NV/t5/H8HuADs7OZH3ZGOY/qunjcH4RhgFmKZ3j8Uxv9lsWjmXmz8rPJ1x1SMwyHtbyxBkTOzG0sRNmy4k+pU2kSvPcrf109ZDJUlyVqSU4plxUkpFyguWpihlyklQ6QBYnTeq644Vm1lLlie8bX0KlrZZjUbXO9gtqLhkhNzODR2G69GvVesZZPBsY+ScMjaXvcaDQLJWxkQz4j3R5ETopWiy1w1C9xHjYHBMaTKhgaHsGjjqSV4zPMmRLJPM4ukkPM4nuvpx47+tOTHljLHEAh4DmlpB/otyCRzY2ukYWscaDuhK1o2iuXZw/dbeK+aIGNjDNHIfiiq7Pp6qo2QBVrueFOHjIyzmyD7qA/ADs5//AGXDhgfLnswoIpGTPdy+TIKLP+y+i4uLHg4keLF8sYr3PUrx+Vt9MeOuudW4m9VjJVOcsZK+Hll168YTisTnKnmlhcVJOtpe6liJACZJuysb3WV2xiVr5+U3ExXzu6D4R3PRPgWI7E4f5swP2nKPmSE7gdB+60/K/wAV4wyD/wBNiU+XsXdAu89xc619jx9fri8ueXaSAhJ11bV6HMyUkg7TUUUnNDq+YV+U0gpBSAI2e/6m0zX1QKiqGikIQMuCahp+OiDtuq+qAq1NVoq2QURHKlVK7UkE+iCSUrPalXLyoKAtCQQgCfRKzaoJEIEkQE7tGiCHCxQ+H1U25o+I3SsgHdS7TVEKwdigkfiKfVKte6KwzQh2rd1qOa5h1C6NClD4g/S6QaIPdUdkpIXxuPxAjpolzaUUCUkm0i0k3zadkfqiGpITspFBr5WLHkN1HK7oQuNk4jozUg9nDqvQEKXsDmlrgCD0VTjyro3M32ULsZWAWWYwXN6hc6SEtOn6KowArKyUjdYiKQqNk8sg31WaHLdGAyYc7O/ULSa4tNgrJ5gcPVEdAgObzxnmb6dFFrUhe+J3NGaHUd1uRSx5GlhknY7FAAp2hzHNOoUqCgmpBVdUD90JJoBNJCB9E9glaEDQhCARaFJIAJ7INfJf8QaNgtcm1T3czie6mlQLXndZrstg/C0nstNx5nWgSEIQCEIQCEIQCEJ0gF1ODQtaZMp4+GMfD7rmtaXODRqToF6PGxuY4+A3T8Unuix0eGY7IeHyTzNt8oJ17LjP4kxsjmlli9CCuxxzKbBjiJhrSvZeRsvdZ6rncZXq17Lh+OxHlQymg4g9is9SRm2bdQuKxq6uBI58ZY7Ut2XLLHj3a9ly/Ww2WOQU8cpUPhDHh90Br7pvYHanfuiKB+RIyAG2k6+gWY65Xk6z47zjYT8sn72b4Ih2C0ZeHGUB8T/vK1Duq2c54yszkY7kx8YUCO6QmIaHX5jPztG3uFu2x5scZle1yZYpIXcsjC0+qTJHs22XaJbM2jyvb6rUn4cHDmgdX8pWsc3PZos+xgZkMeKeK9VtYuZk4QP2PLkgDtw1xAP02XMkjfE6ntLT6oa8tGhpdZXjyllfTQE7ITFI3WULVUpJ1THqgeqalFoLYOaRgOxK2HOJcVgg1nZ7/wBlmcQ1vM9waO5K+b5uV/HXAIWs/Ohaaa17/UDRZ4ntljbI0EBwvVfNdVoQhQNCEKoAq6JBNaiPMeNXO8jEjv4C5xd79F5B+rl9D8Q8PPEOFvaxpMsXxsrr6LwDYJZC6oXuI0NBfT8fKejnZ9dzwfj40nEXyS6vjbcbTtfdevlfZJC8Z4c4fl/bW5BjdHGzq7S17ENJGq5b8vvHXGf20pmFxWuMcA7LrGMV0WF0QJ3Xlt46NNsIvZZBGOy2BGBuFQZ2CnurW5L6KTE78pW46oxcj2sHcmlpT8Y4XBpJmMJ7N1VmOWX5GeyLbF3CryvRcuXxXwqM/D5r/YLF/wCMeGg/wZv2XT/H2X+j2jtCP0WDNwG5uHJjuJbzDQjoVpQ+KuEyOAc+SO+rm6LrY2bhZYBxsmN/oHarPps13vE9pXm4fCbyR509f5V0sfwxgQkF4dK4fmK7fKeoVBlrX+RsvxORqR4ONG3kbAwMO4AXOn8P8NxmyZJx5Z2g2YhJTR9Oy7wjVtaAt6tmeN6zlyvMw8QdCA3h3D4Mdp0Dmts/UrLPjZ2TEySTLfJzkhza5QCPqup9g8pzjizMiY42WOj5gPbUUqGHGTc08kvoPhH7ar6M8jDn1xuFcYYEMQHnTAHtuStiLDLwPJxJHdnP+EfuuxGyGA/dRMZ6ga/qsnm31XLLy5/SzW50fC8h4+8mjhHaMcx/UrM3hOINZQ+d3eR2n6bLbDwU7BXHLfavqmNjYm8sbGRt7NbSZ1G6ZSXK5WtyOPxjhGPxAfejleB8Mjdx7rj4uNLwt8mHl5LjjSt+7DNWk31HRete0OFELh8Uwx9oEoLuar12XTVs5eX8Lj2KHDJoqlwsqWF1bNNtP/KdFbOKcQxzWXjMnaPxxDld+i5UbsnGdcGQ5v8AK42Fnk41mtA5seB1bk3qvXcMM45/Y7WNxbCyjyskLJPySCit2tP9F59uWzKhikZGI5bPMBry/VbAlnhkilbKQ06GM/L7rz5eN/xqZOxR6JOIYOZ7g0DqTS5TZs/OnMGPPHCGttxazVY5+HY8B58+XKyXfzXS8902frXW3NxjBhdy+YZX/ljHMsY4hn5P/lcDkH5pjX7LTPEsfFbWPBBB6nUrQyOOueSPMkk9vhCY67fyL8deRmcR9/xKKJx/AwAUvPcY4nxfhcrQ3N8yN2zuUFXi55nyhE+JjebYjVZOKQMycWNkosCVt12XTDG4Zf7xf2fHIHizizT/AB2O9CwLdxfEPHMpzWR4kb+bSzEQP1XUhwMLDJEGO2x+IiytwyOjjqgHvGgHQd13l15XkxZ5Y0s/NzYpY242K3JdGPvDs3mrouLxLPzOItZGccNko1FHr7lbvEOIhkZggshxolu7z2H+qzcMw3YbTLLrkyfMejR+UK5ZY4ztiSWsDONPx4WRng87GsaAKcf9FDvFscY//wAc+x+Z9f2XabI/q4lXz8wp0cbh/M0Lz/y67e3F19cp+PMTeMcxwPk48EPY1zEfquVl8Z4hmE+flPc0/hBofovcPxMGX+Lw+B3s2lrv4LweTU4PKf5XkLrju04/kYuGdeAJs2TZ90Va983gfBmm/sTj6GQrbggwsc3jcPgYe5bZXS+Xh/TH8OX9vAYvDM3LcBj40r768un6rt4vg3MNHMmix29r5nfovWOyJS2uflHZuixEg63a45+Zb/5amloYvh3hGIQ57ZMp4/Po0/RdRkwiZy48McLezG0sNpEry5bs8v2uswkU97nm3uJ91NpWla5W9b5FWkSkkUUWi0ia3Ul4CnEVaRcsRkHdY3TLeOFpbIzOcodKAsbWTTfJG4jvsFnZwx7/AONNyDswWf1Xox8e1zuyNV+QG7kBSz7RkGoInv8AUDRdWLh+JEbbHzO/M82VsVQ0NDsF6cfHk/XK7HLi4Vkvo5EjIh1a3Urbi4fiQm/LMju7zf7LY2G6Vheia5Gfa1QcKpoAHYCknbao0SJBGq3yMWudxjh8vEMMNhlZG6J3mfHsaB0Xk2kSsBcNxsvUceyzBhGCN1STAg+gXmBTaDdgFqM1hOMPos0D3472uDntLTYe00QVkbThp9QunwLhf+JZ33gP2aGnSHuegWc85jO0k67nhvDkcJOL5hL8rIFMLtw3uuy53RU4igBoANAOixk2vhb91zy69eGPEkqHOTcaCwPfZobLz/rqTnarG49EpHVssfMa1XXHE6bjQWlnZRxscujaXzP+CNo6uK2XOsK4og0te5o5vwkjUL16NfcnPO8jFwzCHDsFsTjzTPPPK7u4/wCi3GlTSAaX1o8tWSk48rbQCHAHqk5tkE9OiCWNc4knqslUgHTsi0CSfSolQKJ3QMBMahNKigQCKHRGyDogfRPRTem6LRCqt0KtCkQgTjZUHfdURShA7Rukmgfsg/ulqEgb3QI1aPdVpakubtf1QCk+6uxWiVWggj1SVJIFaAnujRAnt5mkaLTlx3NNgLdtF2iOX7pFbs+MH25m60nNc004IJSPdWNUiEGOyeqrcIcEhogRC1cjEjmFgU/utwqaSDz8+MWGnt5T3Wo9hYddu69PJC2RvK8WFzcrAdHZYOePt2WmXIQN1mkh5RbdR2WEoLa4hXYOvXusITBIVRuw5ZDeWa3N79QtgxhzeeM8zT1C5gcCFkhlkhdzRn3HQoNzY0UwU4posnS+R/Y9UPjcwoGCgLGCrBUFBCSaKEITRAhG6FQLBkv5WUNysy0sh3NJXQKKxlBKEjpuiMc7tKWBXI7mcoVAhCEAhCEAhNFIABOk6TQbvCYA6czP+SIc31XpeDRcsUudN80l8t9lysfGc2CHDZ/EmIc6ui7HFJm4mE2FmgDaCjpjHn+M5RmnIvquexuqbyZJC4rPEy+ixlXbDHtXDHZ9Fv4reVxI7UsLG1QAW7G3kZS4W9fQww4bhoFQyWYmBPOD94fgYFErwyMuPZch5Mkb+e+4Vwnam+/6j7W8Y5YLBJsnut77WIMaNsbzzOFkjVcncapi2uBbuDYtdrj14sd1ldp4a1rXvcWSncsGn1CsSPjH3jbadnjYrmsyzLmRuyHBretbBbjcl2RlckRcOXsdK9lzuNj1Y7pWy7y546e0Paeq0p+HsaeaJ4o9HdFsOdGcgNhuMnYt1BPspjx5+ITvia3+ENeU6WpLY1ljhlPr3KNUAJrs+WQVapIJ0QBJQEk0Da90fxMNOGxWi8vkfzSOLj6rdWtI2pCB1Xz/ADcezrvqv1jGy6eKKxYh6LlZeRBgsDsgut3ysb8xXVxXB+NC5oIDmAgHovm3HKTtdcr1mQhNc2QhCa0gCaQVLUQtlq/Y8dsjpGwMD3GyaW0gt0vSvValv9DDy+iYFLTzeN8NwbE2Q0uH4Warz+b43okYeMAOjn/6Ltho2Zlzet5T209Vo5nEsDDs5GSwH8oNlfP87xBn5tiXJcGn8LdAuW6Uk3dn1Xqw8K3/ANVi7OPdZXjHGjsYmO6Uj8T9AuJl+K+Iz2Gythb2YNV510jj1UWV6sPGwx/pzuy1vT58sxuWaSQ/zOWs6UnZYkLvMJGfa1XOUcyQaeyfIVU6fMrjldG4OY5zXDqCsfIe6psZJoAk9gpZDter4B4tlge3H4iTJCTQkO7V7pkrHxtfGQ5jhYI6r5W7hGfFiHJmxXRwivikIaT7A6ldzwtxp2PKMDKd90/+GSflPZePfon/AKxdsMuvcGQKTItYvIJB3Ul/qvl3Oz49ExjOZSo8wrFzKeZYudakZ/MKsP8AVawdqsjSs+1XjOHK2uWFp0V3TSSQAOpOy3jkxY2AbCFypeMMB8vEhdkyDT4dB+qxOPGckW+SHDj9NSF6Z9n1z47DnNY3me4NA6k0uTncV4fowSec8bNjFrWdgYV82XkzZb72uwr+0RQN5cXFji9XDVX5FkaUrpptYsQsH5nmlr+VlA/GYyOyzZ3FPIIa8ufI7XlbpQWg/ieQ7ZrGDpRshd9Uzv4ZWN5sr4mFphFkfMOiWLI5rpOeR3ltFNDj+65uPlP+2RiSZ7mvPKQ46K+Kte3ypGsc4AkEMFr0+9l5XP17Ox6PCjmmwIp42N+Imy0676LD4i4jkYnDmQOcQ7Idy67hvVcHCzeJRuBhie1t7k8v7LDxyXPzMluRk09rGcrQ2vhW/bH8YsrVc8uJ+I7qfM5XAPO+y1Y5SOqyAvkmaOWyTygepW5JPxj66/CooC8ZU+dEx7LDYb1+pK6D3xy8oMsYYDZPMNVhHhjGkaHOlkhAGri4V+6zYnC+H4DuaBrsma/4suw9gvPsxxv213wtnxtz5EODB9pyHDX5GWNVx5eIS5zyzEY6Z7/nds0el9lvycMx8jIM+Vzzv6cx0H0C22MaxgZGxrGj8LRQXGbMMJ8b9bb9aWDw8YzvOleJckiuYbN9AtwNTpNeTZnc72uknABSsKQUwVzaUUKbTtAEoukrSKB81oSSJUFWlam0i4K8F2lzLCX3sokeI2l0r2sb3caW5rtTrO54CgyFcnJ47hwaNc6Y/wAuy5c/iLIkNRNbE30FlejDxsq53ZI9M+TlbbyGt7uNLnZHGMSGwHmV3Zn+q83Jk+c7mme57vU2kJGjZerDxcZ+uWW7/jrScbneRyQBjL1o/ER79F3uH8c4XOBFrjvAqpdb+q8aJAdinztOhpd5rxn5HP3r6RRDRRBFaEGwp1XhsHieTgn/AGeYht6scbafovS4HiDFyqZkDyJf/wCU/VXh11W2mdlIugRqD1CN0CKKAG6CAEqQLr6qtACXbAWU4Y5Jn8rNAPmceizTcPhmx3QulmHNoXNI1XLPfhr/AFqY2vF8TnOVlPk6XTfZaQY7svWSeE2E/d57wOzowf7oi8Jxtdc2c97ezGcqx/l6/wDp6V5/ExJMuVsGOzme7T0HqV7rAwouHYTMaKtBb3fmd1KMLBxuHx+Xixht7uOrj9VncQF4fJ8n3+RvDDiHG1BKbisbjS+f+vRIl5Wu8nYLI9ywkrpjFY+UrEQGt5G3RNmzazudoVgOp03K9GE7eJfiomc7wBsFtKI28jAP1VL6urD1jy55doJU6pnVIrswYKoOF7qeiQCDKXXupQKpAQACXKLvqmj3QCDafslr3QI2km0Oo8zgTensjY0iFXqhPqkEFNISsEIGyKQTamlaXKeyCaCOqqkiECJCSLBQdECOqxlp60VkSKDGA4EaGllukhX1QgRvoEFCECpLqrSIQSUBVWiVUgFiljEgo7rIbtJBzpIXRH4hp0ULpva17SHLSmxywktukGEpIujR3QiFSKCeyZZ8HMPqgkhQdvRZFJ1FINHJwmyW+L4Xdu65U+MQSHDlevQ0sc0DJW04fVWVHl3Ncw0QhdTKw3MvTmb3HRc6SMt22VRjVsfpTlKVKozUD1+q2octzPhlHM3v1C0QSFka7ug6bmNkHNEbHosdFu61Y3ujdcbqPZbcU8c55Xjkf1CBWqCHxlh9FFqDIhSCndoGmkhUQ93K0u7LRJJKz5T9m/qte0AokdTVawyG9OiDGgBOk0CpFJp0gikAKqQgVJoQgAtzhsAmywXfw4/ictTouxiwvixI4mj77IP7IR2ODRmSWbNk2+Vi5PHMrzZyAdF3MuRuDw5sLdCG0vIyvMspd6qV2xnBG2ytyJtLBE2yNFuRt1rqVxzr3acGaBluvstm1EbeVlJyO5Iy7suT1tTNeHvDG7ALSnIaA1v1WYOLueQ9rWo4FxJPVdcI8fkZcieqLT5a0Spdnzqdg7q45XwSc8TqJFFY9lLjronGpbG5iZLYzI8i5Do0LsuldwvDiiYPv5D5kh91x+BxxycTa6X5YwX69wtuWR+bnTSHVo0C52cejC5Z/HviUgUIWnnNLRBS1QMoU6qZWkxkg6hBl1WWCLnJJ+YLRjJ5x8Rr1W0JvIxsmb8jCVw34+2LeN48jNKX8QyzM4uc15aCTsLXtMUViQf/ALbf6LxnC+E5HFeIumeHR4odzSSH8Z7Be3AAAAFNGgC8HlWTGYx0x6aYSTC8EaNIEHYprG+FjzZsH0NJfgydNTSxuyY2mmnnd2bqp+yxHcOd6OJK5PHeMQcIxzHAB5p6BdMMcs7yM3hcY8Ru4eCBC1runMdf0XjeIeIc/NeRLO4MP4W6BaGVmS5mQZZnEknT0WKZhDQfVfZ0+PMJ9/XLLL/hTuNgg3fUrF5h7rqcNwsTKaXZvEGY7RYawNLnuPSlpZGMYXvjPztP6r1SOdtYC8ltKQUOaW6EJAEqoqrVBlrJDC52w0W0yEAhrWlz3Gg0dSp0arYFXIAdl6KLw/yRt+15jIZ3CxEBZ+q18ngOXAOfkMjOjmhY/kx/GuVxgwk6BX5J6hbIbGw6k32V/Adub/pV9ocrT8lSWFuuv0W6eTuR7hS7yy2uYWntDla/PJK+3ue/sXOJWUxkixoRqD2W5Dh8/DGzt/BJyO177Lb4fwPiHETeNj/dXRkeab/3T9J8drgHEvt2EGSH7+LR3qF07XioJZOFcSc41zxPLJAOoul7BkgkY2RhtjhYK+R5Wn1y7Hr15djLaagFUA4+g7leSYuhqmk3pqufl8VwsMHzclpcPws1K4eX4kysomLh0TmA6cwFuK7YeNnn/wDxLnI9Jn8XxeGtqV3NJ0jbuvNZ/GMziBHOfKgv5Gnp6rVg4HxTIcZHt5S7UukOq34vDkQr7XlOefys0Xsw1atU+365W5ZV248hmLjRxYrWttoJeBa5ebxZ7ZHR0ZXN3LjoPonic7YjE8EGI8oJ6joVgysDIycgPgdGLFHnNLnhjj7/AFu/nxrS5mTKK80tHZuiMCcxZzGF5PmaEE2tpvBcaPXN4jzH/hwD+62YWYUArBwiHbea8279V6MstcnI5yZd+tXiONPNKyTGi8x1URdJM4FkuHNl5UGK3sPjct4RyOoEhoVDHYNXW4+pXHHfcZyN3DrVhwuHYrw+IzZMw2dIdAfQLMOd2tV7rPTRsKSK5Zbble1qY8YeRx+Zx+iRjaNhfus1KSFn2q8jSn4diz/NDyn8zdCsGNwlmPlNl857mtNtBFUfddTlS5V1m/ORn+OG0czuZznOP8xtZ2rC3RZAdFzyzuX61JIyAqgVjtMFc+qolFqUBSh2nalNOKdpqC6ki9WY06u0F1LCZD3Sa4yaMDnn+UWtzVlWblGUvCkvWWPAyXi3BsQ/mNn9lsx8Mx26yudMfU0P0C74eNb+sXY5hlBNC3Hs0WVZx817C6PGvsJH8q7DOSIcscbWD+UJEk9V6cfHxn65XZa8rm4/iGiIcVjG/wDtuBK4GTw/i3MTkYuS49SWkr6QSQNCVPmSD8RpejHGY/kc7bXyx0b4zUkb2f5m0oJC+qkl9hzWkeotY3QY7j8eLA73jC11nj5bYRfqvp5wMB2+Bjf/APMKf8N4cd+H4x//AIYTpx8zsoDiOq+jScG4VJfNw+If5dFpT+FeFyg8nnQH0dY/dOpx4pshHVZmSg/Mu1leD8lgJw52TAbNPwlcLJxMrCfy5ED4z6hUdfh/GMrC0ikD4/yO1C9HgcZxMwBpd5Mv5Hnf2K8A2UjZZ2ZG3Mpw6+juBB1CRNC14/h/HsnFppd5sX5XnUexXquCZ0PFHOcxj2+VRcHDT9Vz2X1x7W8ftdWFnlQNZ+I6u91kalub7qgvz23Zc8uvVJyGmkE1mAKxuKolY3FLVkS4rC9yyOKwPdQJ3PZMY6MT5Ldyj6pEob+YtLSdwVDiu0iJe5OBvMec7DZYzb3BoWwABQAXv8fV29rjsyWShSE19F5wigneiSIKTpJMaoo2TSI0KTdUFa2qGoQKpOh0RElIm+iqkkUAitAluUhf0VeyBEJJoRBdpFPQhSQgfVFlJPcoEle+ipB1G6CDV3VKTR2VlulqapAqSNqiaCkIJJRad0oQUjogItABNTsndoC6RaCOqWyA90adEUjZEKkEAjVCGuDhp9UGnkYwu2i1qkEFdalhlx2vGmhRXPBKysmA0cNFEkbmGiFjtEUaskbKSmkQikEFMjVACIiv0WllYIeS+LQ/lXQLQkQnUeamx+V1cpaR0WAtLdCvST47JhThr0K5OTivjceYW3oQFrpY0EBXJGW+oWNVGRryCszXNfuaK1UwUR0Y8h8fwyfEzoeyzFrZBzRn6Lltlc3qskc7mOtuiDc1BopgpxzRzCn6OQ9hZruFA0iUgVjnfysNbnRVWtI7mkJUpbFFoA6BYTqVkedKCx0iCkUmhAk00UglCqkkCQE6TFDdBmwoPtGSxnTd3svR8Ii8/NkynD7uIcrPdcjDY6HD5mj7yc8rfZehfy8O4U2MGnAa+6jcjjcezC+UsadtFyom2FU7zNKXVuVkiYsZXjvhj2s0LK1W3Cy3c3ZYmDQLbjbyj1XC19HCci1p5by8hg2C2pHBrSSVqRsc8ukLSW3uo2bYxyURoVhfj8mwsLcDfh02UkUt45ccdmuZxzy3t+ixlmugpb742u30PdYJIy3fUd12mXXz89OWLTdosZKySVZ1WTGxi88ztlbZGMcLbw8OKTntpI5tF2IoxFGGhY8aMNF17LOuGeXX09On1j2SLRaAF2fLATGidJEoE5HLYTTukWMEWLLLIeXSjqVvDHYInxvp4fo4HYp4/wDBce71kXy/K8iy+sdMcSaA0BoAaBsAKATQhfOtt/XQICEKRTTtTaXNqtJxq8Vz28PwpJSfirRfLs7MkzMh80jrJOi9L41zS57YgdCa/RePPzL7Ph6pMfZxzv8ATJG10kgDd1tmMvicK1WnG/y5Wv7HVdeFoe4lux1Xt44tOLGbNw572D76I39FeZKzIZjzA/eFvK/6LLBK3Bz5WvHwSM2WkyOWQnljptnU7Koxv5btwsLJBEZn21vKxbLMNgIMh5j2WyAAKaAB6KCRGGtpo2XWwDwzhcYnyZHZGW8fCyL8A9+i5akqZTsXvHYgy3ZOVzYcWPjSHZ87y930Xdx+E5EgDuKZ0s56RN+Fo/Reb8PsEnHcUOF0S79l7s6nVfM8vZ/H8xejXOsEOLjY7QIcaJldQwLLdbNb+iaCvmfyZ/8AXXkSaIpzGEeoWvPg4eQ2psSF3/KFspFWbc5+VfWOXJwPC8iSKBroQ/U8psX7LQnwuO4GKY+GZ3NFfNytADl6EpWRsu+vzNmN+pdcr5pkiZs7/tIkExNuL9yV0uD8ckxAMaVjZId2lxotXsM3Dx86MsyomvHetR9V5XN8PO4flRZDLnxGvBc3qBfVe7Dyde6cyc/S4/jZbxbiua4t4fw/lHR9WP1Ko8D4pl/FxPiIiYdSwG/2XRdmyyACN3JHWjW6Cljsu1JJ91z/AJZj8xjrMbf1hg4LwbErmbJlP7u2W6ydkLeXGx4oWjblbqsOiFyy25Zf2vrFPke8295JUpIXP9aJ7Q8bkHusXkX8zyVnSV6IbDG3Zv1KsaIQnQ0IRsoEUiEyVJKoEISQCKQhUCYKEgnBYTtRzJcyTG1OstpFwWMczj8IJ9gtiPCyJBYaGju4rrjptZucjFzqS9b8fDWA/eyF3o0UtpmPBF/Dhbfc6ld8fGv9sXY5EcUsx+7je712H6raj4bIf4srY/RupW+S7vogDqu+OnGMXO1hiwMaM2WGU93m/wBls3QpoDW9AFKKpdZjIxbQXHqlaKQtJ1NJgHomlaArTXdSAOqomulqDYdYQBHZSRqqUWSUAkq6KTogDSRARZRsgRCl4a8csjGyNP4XC1TikiccfO8N8OyrMTTjyHq3b9FwM3wvn4wL4uXIYPyb/ovZOJc4VtatxI1CvU4+bN52EscxwfexFFfS+A4A4bwmKEj71455D6laUnDos7i+JK+NvJA0vea3Nigu7ZJsr5nn7uT0jtqx/swmkE18mO5hBQEnHRaRJKxuKbisb3KNyIe7dYSbVPcsewXTGKTisL3KnlY2jnd7L0a8Pa8ZyvGSJtCzuVktSTZStfYwx9Zx5cr2qulQKx6pg0tsslJ0obvexTtBWyQJG6SN0FHVAFKdR10TtBV6qgpBTBRAQbGqelbIKRFhAUhTRad07RTSISOiAbRBsikaHoneqCaT6J0kgEI+qEUkvdUpKIl4sLEQ/m0OnULOQPqoIFoMZaCKcdEqrr7LJTSKcLClwaNkEi1VFK0xsgKR1QSikDCCFINH0TsFAkaUmVKA2KYIU1ZTpAJgpIREyRB4Nrnz47mO02XSLkjThRRXIG6pbWRin5mbLVIrQ6FAJFFoQK9EIrRFKIktU8gOjhY7LIjY6qjm5WBqXQiwfwrlzQUTWhHQr01a2FrZOGycX8ruhVlTjzJBBo7oXQycV8TuWRvs7otKSNzDqNO6qJTUoRGxE9hFO37rajnfFo/4o+/Zc5ZY5S072OoQdAsbI3niNrSncecg9FfMYx5kR+HqFrlxJJO5VAUbBJBOigncopWBonSCKRWiqrKZCon+qKTpCBUpITcQFOpO1BFMkBXjRnInZGNidVLWF5+EWuhixnGidKfnf8DQorq8Mgbk5/mf7rHFN91PFZftOQYwfhZutyFo4bwkAn7x2p9SuUT5cTnv33Puo3i0sjlEgY3YK4m6WsDLe8uPUrbY2guWVe3TizQss2dgtlY4xTAFYXJ7JDjxnZUg1qMbldRkDGMDWj4QtPHyvKHI8fCt9j2uaC02rErXnwmvFxfC7t0XPkjcx3K9pBXaCUkTJW08WFWZXAewhTV9NPVdKfBey3Rnmb2WoWDaqKd4tkrW8mLmvym2rbECQBoFdUdVkjFC1LkTCRTRyikJpLLrHsbQD6pVoXOcGtG5KUUkM0fmQvD2k1YXqfCXaEgmgFLWkOJ6FVWqd0osbOPrjg93FWoxyPJLR0Koml8Py/mx3w/DQlakuHdeRvirSJWJ0g7rE+elYvGwZAFhfOAtV+RawPeSukxakeQ8Ulzs5oN0G6fquVHjOf8AM4NB6r0/iLC+0YpmYPjj1+i8tEZHPHLsN193xspdc48m2crNmYLMXHgkGTHI6XmuNu7K2v3Wzw2R0UXxxkjopcW0HSAadVJzaIZCwEk0LXpcW09pneHujAI2VFvKPic1o9Vjm4dxDyTJLI0AC+Vp1WrgY7MuRzZCbA6upEbZmgbvIPosbsmAfiJ+iz5eBh4/KIpA+4w5zr+U9lpRwD+K1wfGN29UVk+1R9A5H2llfK5U2PmJycloY0fJGFhJ5iTVWduyg7/hL77j8RGzWOJ/Re6dGWryP/0+xj52VlOGgAYD/wDPZe2IBC+V5ePtk743jUIRSyubRWMr52WHHaVKVKikufFSQpKsqSjUQVifazFYnq4/GnKyoPJd5kejDuOylhsWt6SiC07HRc1vwSOZ2NL0Y3ozJJoW0JCLU2gpBU8yVpwVdItTaFeB8yLUoJV4HaLU2i1eHVIUEpcxOgFlamFTq7S5lkiw8mXURlo7lbcfCNjLL9AuuOnKsXOOeXrJHFLIaYxx+i7DMTHhrkjBPc6rLdDoPZd8fHn9sXY5sfDJXC3uawfqVsx8Px2Vz8zyFsoXbHVjHO51ADWfI0NHoExqmToVLSao9F05Iz1SVoKkAgqotHVJCBlLdNIDRA0kXSECRYQUiaQBcAlXdF990rKA3RQBNI0CkutAEqSg7KS7TTVFP6oKm0iSidBKL0U2U0Es0CpztCpvVZYGCSYA/KNSsZ5es61J1tY8XlQtB+Z2pWUJE2bKYX53dnc87Xqk5FBNIJrEQLG4qiaWNxVakS46LA9yt5WF51WpGk2ocUyVie6l1xgiRxOgVj4QAsbTqSU+ZfV8fV6ztebZl/TICkbBtQSU7PVetxWCqWMFUCimTqqvtsoJTbsgq1Q1UgXorYKCIK7oITpCKKRtskhEW1/dBIOyhMFAwbCenVIbIQGikb+idVqn9ECNWmptUEBugtPdNBKBUEiaCd6aqSLQOx0KR2RVbIHqgkEjqjdMi0unogkhQRRJWTosUhIoDc6IAURompYC1jQd+pVdEBSL7pX3KaA0Ry+qKRrSB0lyi1SSDG+QMvQ6dUFxbXwl19U/LANpm3aA1SAsHZJAbXVBQJPokmgCtbIg5hzNGqz62n10RHJcKOxQunJC14uloyxFhOiDFSE0IAIpMBHVAk0HVAGyCHxtkaWSNtpXMyuHujsx/Gzt2XXKQ/ZVHlpcfct27LXqt9CvT5WEyX4m/C/+q5U+JRLZRyu6HuqnHNKQVyRujdyu/VQEFc2lIBSQqigUxqVIGqyhtBRUlAJV0KSA6oACkIc9rdysYc+Q00UEFOc1o1Oqi3O2FBZ48VziDVlb+Pw0mjJt2Q45seK+Q/C21vwcMO8p+i6scLI201qpyLxqfZ4o4yGtop4MIyuINbX3cGv1RkyCNpd20+q3cOMcP4aZH/xHjmPuosYeKTmbJEQ+Vm/uuXnSWRE36rZBqN8z/mOq52r3lx6lSu2vHrJEyltRNs+ywsGi242hrfUrz2vo4Y8igqCSay6hWyR0braVCEHRgzGvAa/Ry2xqLC4a2IMqSKgTbey1KxcXU+Lp9VgmxY5xdcruhCyRZDJRYP0VPe2Nhc46BVI48+O+CQNeNDse6QFBXPMZ5C47DYKFl1hoSCFFetlaXgNItnUFTCA22sZytB7UFnOyxOfWgXqfCZAqpY2tNgkn2WQWgAihak6uVUirjf5b76HdZXPF+i1iVjfMWiiV8zzdff8AZ21X+my6UDqsEk9bFaz5SVjLrXz5g78ZXzE7LEXE7lJC1wCSaS1IrDlyxQ40ks1cgGx6rxbnMiDnNFBxsBdXxFl+ZlDHB+CIWR3K5DcObJxZcofJHpXdfX8bD0x7Xj25drUklc91lS1xa4OvUG0ikvW4veY/Lk8JbNXxEC15UQ+XnTQuPKA67q6C9P4UIyODujdvTmj+q43EGCLi5e7QGO/0RHNzpaPkNdbRue6xY7CfiLiO1dVgJL3k9XGyuhE0McB0aEVklLn0HGyEUOXTdSwF1v8AzFbmFjHJyoYG/NI4D2Wcrydaxna9t4WxfsnBYrFOlJeV2muWCNrY2NjaKawABWCviZbO5V6PVb1jKq1JWM/qxJSQVJK4VuGVJRaRKjUiXLE9W5ywSOU41GGTdc3JPLly+4/ot+R2q48k3mZuQPyOA/ZejVjb1K3GPsKiVqxuorYtdeAJStBKkqcDQlaXMr6irRagvQwPkNRsc8+gW5rtZ9oq0i6ltRcJypdX8sQPc6reg4NBHrK4yn9l3w0WsXZI4wdzGmgk+gW1Dw7KmPyhje7l3GRxxCo42t9gqNld8fHk/XO7XNj4TEw3NKX+jdFtxwxwj7qID1rVZi1L0Xaa8Yxc7S+IpbJ3Wih5A3W+MnaEuiPdRD2CFLbcS4/QKlQiFBcWk81cvdZCsZbzWHCwoq+igmtgsmgbqprXRAmg18SpCECQhMIBJVokUElSRauwpduggpWmUkUypKLUndEJ3upAO6HWR8LqPcpFyAKSaRQCYUlLmQB0BK3sVhjgHN8z9VqQx+dM1v4dyujdn06L53m7eY+sdteP9hMJJhfGd1BCEnFalRLisTiqcVie5WRuRjc6licdVTjZWMldZBLisLjZVvcsXVezx9fteuezLkVsjdJK6X1ZOPLau0ybWKzatp0VQwVYKxhO0GRDdFAKoFBd6qwVjCq0FWmkNk9kC6pj2QlaBotFou0FN2TpQDSsHRAeiSaEEFMJ1ql0QGt6p6JfVCARujonSCdigpoKCeqZCDokgRYHAqeQADuFkSq0GMtU0s1AbqTR2QYwE6TIpIHugZARsmpJNopoUplEBpIjVFpdUAk7ZMoQQPdNDhqmNQgm6KYpBA6ICBpFocKOyaEGpLjVZbstflrddJYZoQ6y3dBpVSFbo3NKiigAmDaVKgECIRSdIQSQoliZMzlkFjustIrREcDNw3Q213xM6O7LmPjMZo7dCvXPa1zS1wtp3C4+dgcgJYC6P+ivUrjoVPYWmunRSAqi4xblmpQ0iNtuKnzHyGmN0RVvNLHb3mmbLPDiPk+YF19F1Mbhhr4hQHRByYcR7zqLK6eNw06Fw0XTjx2RjRotZKU6cYYsdkQAACyFUsM8vlCwLRVHRQ4gNJUxyufZdQasU81MLgKaP3U61MbWOOL7Znxx/gZ8Tlt8UmEkjYQaa3VyrhkYxsN07/mfr9FyJ5HSzPdrqUtdMMO1OZKHARMOgO6xxsVeX6K2ClyuT1YYcZIm24ei2Vjjbyt91a516pOGE1KajRoSCaATSQgoEtNg0VkkmfK2nnRYkBU4YQki1FUkkVnjw8uWMPhja9p7PFj3RLXq75h6JAaoGgpMUvU+IaLT0pIoDqnaSECKw5A0DlnUPOlVdrltw98eN43laaSt7eU0oK+Plj63j1y9gSQhYUIHzBCB830K1j+pfx4TOeZcuc7l8h/qvWR4bYOHx49bM1915fFj83jEUR6za/qvZy/ESvpeRnccZI8+GPbXgs/HOPkvZ0vRaq9H4gxOZvmtGo3XnOq9WrP3x645zlet8F5AYyVjj8rw7+y1vEzaeJW9LbfutTw3LyZ72E6SMI+q6PH47wyOpAcF1YcTExx5Xnv/AOULIA53w99yslFuPBH/AC6q3MEd91FJgF10C9J4Pw/MyZc5wtsY5GepXm2Nc5zY2fO80AvovDcMcO4dFjD5mi3nuV5PK2euHHXXj1tWnzLEXJcy+H16fVm5kFwWDnSL1r3PVlcVBKgyKDIs2tSMpcoc9YjIVBepFU56wvdaHPWJ7luQY3u+LUrzGDk+ZxPJBOj3EhdviE/k4kr71qgvM4QLeKxV+LUr6XjYf61yyy+vQsKzNfpSwCroan0W1DhZc/8ADhNdzop/HbT2kTzKTIBuV04eBOIByZq/lZ/qt/G4fiQG2xBx7v1XTHx7f1m7I8/HDPOahic4HrWi3ouBzuAM8rYx2bqV3Ndm0B2CdVqSvRjoxjndlrnxcKxYqJaXkdXLcaGsFMa1o9BSonVTfxAUuswkc7lUuJBCoFBBtOlpAhFUhUS9zhXK21PL8RN7qyaCnogndxFbC0qdzEnr07LIKaKCkkkafqoEdlI1VV9UiCCgNk0gNU0CNBT1HZUQCFLVAX+6eyk6u9Ex6oGEIQil1QgoQCaklIuQUQpRaVoIcLKWyt6xEoGSoReikkoAlST2TtTfZBV0kSlaRQO1JqrKCqhYZZwzpufZZyvrOrJ1u4kflwcx+Z+v0WZBIJ00HZC/O79lzztezGchhNIKlxgFDimTSxuKqyJe5YHlW4rC4rpI0lxWNxTcsT3a8q74Y3K8Zt4R+IknZSqrspor7GrX6R5M8u00BIaJ2uzAJtSfmCaL6hBaFLSneqCkBJF6ILBVWsYJVAoMgKq1jtUDaChumkhABCEIA3Wipp03Uosg6ILvoqWMEKg7RA6SITtJAqQmitEC6pndKk0E3qqFUkddkFAqCCEXSL7oBAUlzQdCmEUyLUq6UlESaAsqCLpWRaXogEUjohAt0FMpHVBJSVdEqpAihPQqaQBopCh1V13S5W+qBEpaquVTsgEIKQQBRaaCgh8YeFqvjLTst0JOZzINCkx6rM+EjUbLE4fqgVJJorRBKdWilQQSWAiiFBj6dFmQUHF4hw3mBfC33C43kua+uUr2PLaxnHYXW5gPqqnHmIsGWY2W36LqYvDDp5jaAXYbFG3VrQFVIcasGMyEU1vVZ1RBU8pUOJKWyuiikXjC+URiyx7v8ota8jzkAAMcxu55hS3CaWKS0GpMRHFyN3KUEYmjY09HaqZvil9km20aLnb9e3VhPVt8Rl5miKMabLQZDy77rYMgPzbpBzD1I+izcnbDXIxFmmyhjKf7LYPL0ULHXWQ0JIRo0IQoGhJCKq0JIQNNSmgEJJhA0gCPle5vsaR1TCD2JSbdppjdep8RSSPZCAukjugCzZTQK6Sq000EOia5p7rTcC1xHZbrnBoskALymZxWWHiUsjXc8bSByXpS8u7T7/Y64Z8dxCw4uTFlxCWF1g7jqCsq+ZljcbyvTL0JA08JpHcFSfpXkYiIfEYJ0AnP9V6w0SdbXjuNsMPFZ9dSQ4LpeGcl0kmRE8kl1OFr6e7D3wmThhly8dPNiEkbmkbheLzIDBkOYQvdzNtt9V53jWLzt81o1buufi7PW+ptx7OuVw5zos2KSjQdr7L0HFJhJG2L8Q/ovPNyHkgUTRC6+S7max3UtC+i8vGEU7JYOi1c99yu19AsjDySDmPzahKfHdM5rWi3OdQU7xY7ngvh7p8o5cwuOD5b/MvauOu61OFYQ4bw2HG/GBbz6rZJXw/K3e+fHs148iSVJKCVJK8VdgXLGSmSoKQMuUFyCVDtluQDpANyoMhJUkKToV1mKKJ0WJzyqcdFgkkEbHSPNNaLK3jj28S1xPEWT8UWM07fG5dfwlgYmXw52RMwPlbIW77BePysg5GTLkP/ABHT2XufCeHJh8HYZBTpn89enRfZ165jjI8mWXa7kWPDFpHE0etLOBWgUtKyBdPWRjtRIoCyHVQRyrSHaLS3KCgYpVQAUBU7t1QAIKDSmiNkUgZU+iEjugdWpOhVE6KSf1QLdOkkE6KAtK7SRsEDCm7KAU0CtK7QjZQCloIJGpCtSTSKeyQFbm7RaVoKJUi90Wi9EDU0ndpXZQCTtAmkdqQT0WMq1DxogknRTeiCpKAJU2gpIqgQlY7KUWgHHRbfDW/dySncnlC0idVucKmZNiyCM3ySkH9AvL5Vs13jpr/W4EwgJr4F/XpMIQgoiXFYXuVPcsDitSNQnlYidVTjosZXaQS91BYLs2nI6yoX0vG1f3XDbl/TJaLUAphe95wVJKblBKC7pMFQE7QUi0gnSB3ZR0SQgsHVVosQNJ8yDKCmsYKu+6DI0qgsYKsFAFA0TRVoFd7JaqqpCAqkwkTogXWunoiqBtUQsYNKwbRDQdkJE0ECvRCNggboDZLVVYSJQLVCNEIChvSaV0UWgCeySAEdUCKE+iKQR12QQrII9VJCA6KdEHdGlIBIoQgSaSVoKKSLBQgKSdunaR1QJIpkJboBCEIBO1Dua7COc9QgyWOoWCaC9WrK0tI0TJtBo8vLoULbewOGy1nMo7IMZTCdJ8qBJFVWijmCCgEEpt2S6qA2TBRoloqqikgJoiU9EbpIqSPRYpAeUkLOpItQch7gJacaJKo2PZVxHCLxzx7joufFkPiHK+yB0PRYyj06tvPlbZNoCiN7ZPlP0WQLnY9uNl/DQhCjQCEBNFJNCEAhCEDRukhRTQkk9wY0kqoHSxt0LteynzW+v6LDGwvJcVl5EOqbM0mtQsjdliMYI00Km3x6A6IPcoSTC9L4phFWUUi6QBNaIKNN0XaIGjmNLg8Y46IXux8VwHJo6T19F3tmuI6NJXzQmSd4a35pHn+qDsw8fiYx7HslmleKFHquZmCWF7RMOVzxzct6r0GDw/FwBExtSZcpDeZx2JXI4/K12V5R/iwuLXVsqNbCzJsObzIT8P4m9wvW4WbDmwiSI6/iadwvE3Sy42VLiTtlidRG47rz7tEzjphnx7e0itTh/EIuIRczDUg+ZpW0TS+XlhcbyvVL2POeK4OWaHIA0cOU+4XP4PlfZOIxSE/CTyu9l6bi+N9s4bIwD4m/E36LxFkX3BX1NF99fHmz/wBcuvobgK7grQyoQQ5pFgrBwHiYy8ZuPIR5zBQv8QW1xSQQYj5Dodh7rx/x5YbOOtylxeZixDHlPBPwA6V1WXIkLZGNrTlSMpi5L1vdXkcpm025F9Od48t/WvliwC3oNF3PBmE/MzDkzC4scaX1cuJG8vqMtsuNNC+i8JwW8N4bHjtFOrmee5Xn8nb6YOmvHtbbjahxTKglfByva9khEqCUypKypFSSglSVqQIqCm4qF0kCdoovVU4rGTS6Il7qXE4/klkTcVh+KTV3oF15HhrXPcaa0WV47JnflZL5RZdI6mhe3xdfb2uOzLjseEuEs4jxEzTN5sbH1I6Od2XvDRqgABsOy0uB8PbwvhUWPVSOHPIfUreq19PjzG1ZFjA5VdggIhtoGyocbdaojRSUQkWi9a6qiyjQQIVui9UttEIqtlJBOvRPoUuiBFIjqnzDUa6JEk9KQKi6uikMLd9SrbsgoJrVBGmiaSgQGielISCBUgqkiEEpJlJQCRQbGqhpdQLuqB1W6daKXmiD0TB7lAtkwigkimkhCBoStCCTuocshFlSUGB2ig7rM8aLC7dAjukgqSUDKm0EpFBq8Sy24mG55Pxu+FgHdYPCGU4ZWRjmyx7eYns4LT41eRxODHDuVujbvYkrsx8vB3z4kLGeXjx875PxOOi8/kf+ONYX67wCpS0hzWuB0IBCpfn7L369YUkplY3uoKLGN7lgJVvKxErrjFJxWGV/Lp1WVxoE9lpufzONr1addyyZzy5DSItFotfYxnJx47egClQSFJ9VpARosb9BaypEAoMTDbdVYCVV0TukDvVUsdpgoLpSdCqvRImwgVoCdIQPqrBUCuqoUgyBUCFjCpFZBsnRCgaUsgNohJp0nyhBNJJkV1SKACY0SQgsJqAaVBxrWkCOiSpApAiKSVVaVIJ0BtMJ8qNkEm90lVWgCuiBJoO6EB1tJM6JOQFoqvZTehR0QBS3TqymRSCaFqSr6qarpaCUUqQgx1RTVHVIaICrSA1VIQSd0qVFIlAkk0igakhPWj3SbzfiAQLl+iqq2KCkimCeqTmhyYNpojXdHynRSQFskLE9nYIMVD1S5R2VkUkgmtUiFRKW6CaTpMhAQJNOtEtkC1QmCqqwoqKRSrlpFaoILLWtkYUcxpzRfdbwajlBRXnp+FTRHmgdzeixRZXK7y5wWO9V6Xy62Wpl4MWU0iRmv5h0Us66YbLi5+lWDokteaLI4c6n3JCdndlmjkbI22lcssePdr2zJaSELLqEIQopoSTVAhCEDWrITJJyjYLLNJys5QfiKxxM5RZ36lE6zNFClSQ9wmgEJIRXtLTCQCoL0viBBTSRUlJopUjRBTaOh6il88z8ebhPFHNDa5Hc8d7EL6FotPifDYOJw8kwp7fleNwiPGz8Shy3NfJzRvb06LWmmxXMdZLnkaV3XTm8K57CfL8uZvcGitCXg+dB8+DJ7jVVGl0HdCssc1xY9jmOH4SKKOWj6qhwSSY8okicWuHZep4bxNmfHTvhmG7e/svK9PVNj3Rva9hLXN2IXHbqmcdMM+Pbc4Dtduq8ZxnG+y8RlYB8LjzD2K6cfHiIqmhc+Tu00CuVxXN+3TNk8ry+UVvdrlo1ZYZffxrZlMmnHI6J4fG4tcNiF0HZuTmQNE8rngGwCuZ1W7hutpb1C9VkrjLWzK3zI2PHTRKNpLtT6Ko3cjix3yHb0WQMJe1rNXONNVt4SddjwzwoT8RGVK24oNR6u6L2Dj3Wtw3FGDw+OD8VW8+qzkr4XlbffJ7NePIklQSqJWMleN1IlSSmSptXigrG4qidFicbXSRCO6RNBNQ7XRbkQiVjcVTtFryyBjHPcaa0WSumM7eJa5XiDL5IW4zD8T9XV0C5/B5sbE4lDk5UbpIo9Q0d1q5E7svKfM78R09AsZeAaB2X2NWHpjx488u19JxuPcLzHfd5QY8/hk0XQbbwHMc1ze7Ta+Tc4Kz42bk4x5sfKljI2AdourD6pZUkrwmL4u4nBpL5c468w1XVg8a4zq+04Ukfqw2qPTEnui9FyYfE/CJB/wCYfGf52rbj4pw+b5M6E+5pBusAAJ6lIkhTHIx4+CWNw9HhUWP3rRRQLKHWOiQNIJ6lA2ajVM70NklJ1dodAgaL7pHukdUBdFMqSmgEii+6LQCV6plJQNIlFpFBJSTS6IFukb6Jh2iSipc0uaRaGNNamyN1SkW1xPQoKOjSVI2QXClPP+iIrZFpB1hAKCkKU0UkjsmkgghYnNWZ2ixFEYioJ6q3KapFRzXqgbhMhFahB5HxFK9vF3BhIIIIpdmbi8UvhyaKVvJnP5WusavHf9AsMvDjmcdmyJQG48AtzjtdLjcQzRmcQMjG8sYHKweg6qZYzJJeV9D4NN5/BsOTr5fKfpotxcfwlJz8AjH5HuC7C/P+Tj67K9mF7CcaWB7rWSR1LWedVxkdIlxUFMrHK/kYe67449+JWHIks8rdgsFeqObuiwvr6NXpHmzy7TTSBRa9DkYVKU1RSEkIA6hSrUkaoFSaVpg2gEaoTQNCEIBOz0SRqgprlYKxafVWEGS9QsrdFhtWHoMtlUFiDrWQbIH7qCFSQQJJVWqVIJVBFIRDCOqL0SBtFUmQkE0QwFJbraYKLtBNFHRMoRUopM6lCBJEK9EvdBJCK0T6kIIQTRRqRqrHqpu9kVNJnZHuj0REeqSrZPSkGNCohQUU7QSgFJEFpJphFTqgkJuJsVVdUHUohIOyClqil0QAjdMaKApAQbSulRVJIDkwEEOZawuaQtoqHNtBqqlTmG1CiBFKt067IqLpJX9EtyqJA1VhSdEA0VBVWnSaEAgJdU7RTSq90Wi7UEOja5pa4Ag9CuPmcLdGTJiGupYf7Lt0FJCcWZXF5uPIF8ko5XjcFZ10Mzh0eULI5X9HBceRs+C/knFsOzgsXF7Ne/8AqthCTHNe0FpsFNY49My6aSE1GgiwNeyFgypKbytPurGbWtPIXvtIOLupU8vMVlaxacu0vi7lZWSvbodQlypUova2g9rhomtS6WaOcAU8X6qNyvdpEaoKAvQ+QLrRCK1TpBKFQCZCCQqCVJhENNrnDYpJIPPeK+FyzyMz8ZnOWjlka0a13XlngE6FfSrWrPwvAyjc2Mzm7tFKpx88ISPL0Nn0Xuz4b4Rf/lnf9RW3j8MwMY/cYkbSOpFqK8fw/gOdnR87GBja0c/S1WT4S4kyJz+aJ9a8rTqV7k3QHQdAgGlej5TJjvieWuaWkdHCirx2mMlx6r6dLi42XpkQRyN6lzV8/wCJTYzeKZIw4g3Ha6mtvtunUQCHBd/wpgfaMp2VILih+W+rl5yE/aJWx47TzvNBq+k8OxG8PwIsZtW0fEe5Xl8rb6YOmrHtZyVBVE6rGSvhW9r2xLioJTduoKcDJU2glSStSCXmgo6qjqVJXaQImgsZKpxUE0FUQ9264niDKLIm4rD8UmrvQLrSSNja6RxprRZXj8qd2RPJM7dx+Eei9vi6+3rjsy+MZDgwljCa0sBa/MRvdr6X4fxm4fBoI3Rt53gvdbe63JMXFm/i4kLr/kC+i8r5SJFQkPQr6PN4f4PNvhNaf5DS05vBfDZGkwySxOPraK8MJDarzF3OKeDs3CjMuM8ZMY6D5gvO0Q4tcCHDcHoqjYD7V207tCrhXDsniua3GxgATq5x2aO5Xc4n4TGBh+e3iLC4D5XiuY+iqOEHcvyuc32JW3DxbPxq8nNkAGzSbC5xEser2EjuEucHVB7Tg/itkgEPEgGv6SgaH3Xo48iPIjD4HiRncL5SHm11uE8Vm4flxPY/7tzg2Rp2IUV9FAKRFJu0Oh0pSDeqimNUq19E7oqdbJJQOkkXql1VDRsjZK0ASluk7UIaKFKAsgoTQgRUFUVJCCeqe6CjZAkGwCQLITSKDG52gIG/RMeyTWBr3ak3r7Idob7ILOvRTRCbXWLTtRSF62EdE70SQJO9EkIiXtvXsoIWUrGbvfRBhc2lBOqzvGiwEIqTfRc7inF2YJ8iEebkO6D8PutrOyRiYUs9WWjQeq8WJnhzpiT5ryTfW0RtZ+XnFhZlTEBxssad1s4vDW4vC5MvMBZ5rSI7Gt+i6HBuBxwwjiHE7e8/FHDufcrncazn50geT90w01o2aqj0fgxx/wAHcP8A3Hf2XeJXnfBrq4YPWV39Au+86L4Plz/5a9uv8Y5HarCTZVPKhcZHQidNVozyc71tzGmadVz3b9F7fG1+2XXLZeQ0ktT1H6o19P1X1pHl6oFUsXOA8NvWrWQFEMaI527FwB7JqQ1oN8otBaEgmimgpAKkEHRInl9lZ0WNzeYUUFNNqlANBV0QMJhSFQQNCOiNkCVApJhBQOioa7qBoqB1QZBStpWK1TSgyoUgqrQNGhSQiAhHLomnfZFTWqRCopIhtCZCAhAgnWqaVIoSKZQiENkJlSimEHRI7osFAIRohAbKQb1VDXdBaBsipRSdJIhUkVSRCCSsZCykKSggBOkJoJpNNLogmkJ7JboAou0BHVAvZHKgKkEpUrO6AgkDVVtshIoCyhAT6oJIBCh0fZZSEqQa9EItZnAFYy3soJCRAB0VIVVJCbQEIUD0QhCAISVUlSKOloqkdEWoEE6BTpMKiC1Y5YWyMLXtDgehWcqTqg8/l8OlxZDJiEuZ1b2WOHJZLofheNwV6FzQVzc7hkWR8cfwSDYjqs2dd8NtxayFrGSXEeIsltdnLYaQ5vM02Fj1evHZMikcGMJK0Hu5nE91sZD70WnIXN1DSQrMWc9kjPG1ZgFggla9t9Qthuqli42WFSfL+qadKNMLmkFTXdbFWkYwfRB7qk67JgUhd3yiTQkUDQhU06IJIToIJ1UyO5GF1XXZBRSvRFpFAwU1PRUgLTCKR1RFaUpNJqDuitHjuZ9i4RM8GnvHI36rwDYrbruV7LxbCZeGxvGzJNV5rHxn5OVHjxNt0hr2TvJ1OdrseCeGObNLnSN+Bvwsvv3XryVixsdmHix48Y0jFe5VEr4Xk7bszezDHkIlYy7VMlQV5Y6ESpKZKkldZiAmljJspvcACoYbFlbmKHalxQ4qCbWuBFY3O/RU4rGGmSQMbqSVvHHt4l+Ro8Rxc3LhbDiQl4cfidsFm4R4YEErZ+Ilri35Ym7D3XfjjETGsb0Co6irX1tWHrjx5Mr2rsE6bIvVYoovLBAcXWbsrIurCqCoFRad0qKLi0WDqvK+LuCMlx3cSxWcsjP4zW9R3XqLS5GvDo3i2PBaQiV868O8XHBuJGd7C+GRnI9o6hXm8Vm4jkOmncSCfhb0aFpcYwXcM4jNiu2abYT1b0WCKd3l+Wa5bvbVVlvh9tWtkBvQUVLp6G6wPlc86oDmpWZPuysNrYw4ftGXDD0e8A+yLH0/hcpk4XhPkJL3QtLieui2SaKwY5YORjNGNAa0ei2CwPvWlGgNUim1tbJlpG5QQhIg819FQFoBIoJQoJTugkTSCbQDTzCxqhDdBSHFBJKAhCglI6tITSVA1vI2rtCLStAn6Cx0R8zQR1SdqaRH8LeXsgqtEk0IpIQkoGhCEQKSFRSQY3LC4WtgrE7dBzuJYxycKSLrVheMDhHkxGQENY8c3ta+gHdeU8QcNdjznJjFwyfNX4SrBu8W4jK/JD8aUiNzKDm9iFwHyNjx5ozqXkELEJZo21FI7lPS1gcXuNv1KcHuPB5rhbP/AN139l33u+Arz/hIf/aYz/7jl3XbV6L4vlf/AJK9mv8A8sRNpICF53Ril+YLwvEoZYZ/MLn+XISWkH12Xu3/ADfRfP5cp7o3wl1s5yQD0X0vCn7Xn3sNu/4j/wDqQHOH+8k/6lI11tO19F5WQSyAgtmkB6arYj4rnRVU5cOzha1G0QbKRKDsQ+IpmaTQNcOpaaW/Bx7CmNP54T/Nt+q8vaoUeiK9xFLHMLika8ehWTZeGje+JwdG5zCOxXUxePZEVNnAlb36qU69JadrVxOIY2WAGPAd+U7rZIoqKd2UqQFSipCaKQqBUFKYQMJ7o06JWgaBqUJgUgfRF9UJWEFg2qBUtT0QZQVXRa7H8pLT0WUO6oMilzqIaNyU2m9ky0c1gaoi9EqSG+qqwikQikEpaohoSvdIIL3QpDiqvRFTetKkhqExqgk7KRqLVkaopBNWmW0dkFBNBAvRA2R6poEmkhA+tKSNU0kCtJUaq1AFfisIH9VNKkIIpCsgFQQQUCSKZS6oEUlRCmigKRsi0bIGQErFJo5Qgm7TCfKAikC3SRRT6oEqBUhM+iCt0KLKdoBw00NFTvuqOqVUEVjIpTazDUKXNtBiLb1BTpMAhB30UBSXVANqkCtCEUgEqTpJFFlMICEFFTohB9UC3NKSyutqqRSDXnx4p2FkjOYLkScKlgcTBISw9D0XdogqaRZa4bMEu1e4rMMRrBvfoV1CwEbBamQ4R1eg6ottrS/w6Hm8wuLL3ASeMCL4XzkH3UZEz3mm7dFou4dkyu5zScWZWOmxuC4A+Y+j1W5j8Mhy9IMprHH5RJ1+q4ZiyccW6Mlg7dFmx8kPFtNELNjtjlb/AG28vCycGUsyoiw9HfhP1WFdvB42DD9m4iwZGOdLdu1PI8PmWpuEyNmhd+Fx1as+v/HSbbPmTvFCRIStdXgVaLCm7KeiB3aYUhMboHuk4E+yrRFqCaQB3S57NBVugKQnSKVACn0RQQSAgSNSaVBjg3mc3Q7Jigb2HVTsOOJ4onbFgDHv4pDZ9gsfhTh5ZE/PlHxv+GO+g7rUnik47x1zGH7iMgOd0AC9WGNja1jBTGCgOwXj8vd64+sddeP3oJWJxVuKxkr4t/XqSSpKCVNrUgTjosbnAKnHRYiL1XbGolxLjrsqLg0II0WNwJXRA51qU6Uk0qJcVtYEVNMzuujVqxsM0oYNjuuqKDQxvytFBezx9f3rlsyO+qYUqJHOumL3vMyl1JNLtTuERtNW82VYNKhB1bjVVaQ1KooCtUA07fZF6orqg874z4WcvEZnQsLpYtHgDdq8Nq00dPRfWy6mm9uoXlfFXDMeRnnxMbHMCBpoCiPGnVTqtr7FL3FJswiPnKI1gCdALK3sSF0ZD9Q/p6LLHjhhHI3UrdjgcBqLReOnwfNmje0PcXD1XrWO52gjYheRw4qo0vTYUlwNB6aKK2xvSTjRSJs2pcbKoRJ6Ja0hzuVjj1ASjL/LHmEcyBotBOiXVQBFo2TSKAJUE24qioYDbie6CxsglCSCUIItCBFCClaB1ZtFUlfZBNhAykkDbfbRCKaRSLq3QgaanqmUQFIoSO1FRSKxndZKFKXBBhcNVjexr2uY8BzXaEFZiFjI1QcXK8PY0gJgcYj26Lh5fAs3HJdXmN7tXtSNFiLT9E6jB4XY6PhbWOFOEjv7LtO6rRwqik5NgTf1W6ToV8jysb79evXfjCNk0Uk5waLK88nXVhyHiNrnuNBrSSvm8h+Nx9V63xHxB7YDjxNeXv8AmIGgC8iWO6tcPovr+JruOPa8m7Lvwg43qdEFxG2ylUNQvW85c5RzlFapUgfOUc5SpCCvNd3VCYrEmg2GSfECCQRsQuthcbmhpk33sfruFwrpMPIU4vXucTOgywDE8B35XbrbXgGTlrgQS0jqF18Lj00VMm+8Z36qcXr09gmr1CdLWxM7GygDE8c3UHdbZCjXU9EwlSpQIBNCYVQkwnokNCR0RTS0TSpAB9Gle6ik9kFEWVkApoWO7VA2EGRumyyArECqDqOqCyhSDaqtEFaUpN83omDpogohVqhCdIF0QK2KFN9kF2BojqotUHfogopIFFNFSmB3Qi0FaBR1TKWtGkAUihLdA0boFUg7oEkQmgoE0bqSFXskUUkEFNFoiEiKKo6Iq0EhBCdVshBFaopMjsj3QJFoOqKQFoSTKAopFMFIoFSE0WgQHqml7JjZAJ0EkjrogYo9QkVi8ktd8LtCqbzhwB2RVlthRyarLsClugwewP1VWqcAsagrdA0QCmUVJR0TSQCEWmgEISKB6JIRSApQWqylugxm1jlgbMCHBZyEtkGicIMboBYUhh2IXQsEaqXMB6INF1s6WOq0sjBjmcZMUhknVvQrsGIdQtafD5viiPK4Is+OKyV8L/LnaWldDGzZ8cHyJXNveilLySjycxlEbOWjLi5GM64vvY3bELPHeZy/K93ZJ1VhFIA1tbeVQCK1T2RYJ31RC2KYKN0xSKRtNFpXSAoBDBZReqsBEKRrjo1JrS0AFXaknVFPoiJpc8l2wSGqzMHK0D9Vw35+mLeGPaoPPXY9FjniZLE9gc5nMKsK0L5X82WP5Xf1jBiYkGDB5OOym9Sd3H1WUlMqHFcM8rle1uTiHlYyVTisZXNoipKCVLityBHVSmEiukQioJVEqCVuCHFY3OpU4qsWPzZeZw+Bq668fa8ZyvI2sOHy4ud3zOWa9Ui6zXRY3O1IG6+thj6x5Mr1kL02U7YrUaZHmjobpbcbQxoaFtlkGgTSCFRQ0SOqm9E+akRTdlRNBYw9S917IB7ui4niP5I62Jpdg60ubx6PmwmPH4HWVFeb5FbYbWzBAJHlvUi1tHDLW7KDUjg9FtMYANVUcLgLcKTk+JwY0aoM+K0Odou1h/CCCudhxcoGmq6TBykUqNjmCmwSaU2RumCgdINUiwCpJQO9NUDZG6AgEkyleqB6UpJACCgWd0EtJOqpArog7IEVPT1TKSBFTaopEBBPMjmpOhWil7bqkADqqSpVoglCeiNEUBNJNECRAJtB3QgK0UFUd0ioMZUOCyEJEIMLrUFZXbLGW2gxG7sGiFnZlAtp5pw691hc1RS5565nPreOXGw6etnX7LDJIXdVB7pXa5Y+PjGrstBF9lDomndjT7hZEivR+OdvWF2PC75seM/8qxO4fhu3xY/0W1SCFU40jw3A/wD0jEDh2B0xGLaISvogwNwMIbYkaZwMI/8ApY/0WcGkwg1H8H4e8a44b7Fak/hzGePuZHRn11XWvVFp048zk+HcqIExObIB23XMlgkhNSsc0juF7nY6IljjmbyyxtePUK9TjwKYJC9RlcAx5bMLjGe3RcbK4Pl49nk52jq1aRqxzuY4FpII6grs4XiCaIBkw8xvfquCQWmiCD6oDqUHusXimNlAcjw135XaLcFr56yUjqunhcWyISA2UkD8LtVOLK9gmuXh8bgmIbMPLd36LqD4hYIIOxHVRQTqirQmEVIBB1KqrRun0QIaIQShA2lUFICoIp9VY2UBVaIpqsHRYwqCCwU70UJhA6RdJ9EVaCQUqVEUdEboJ0KYTIvZIjRBTRadKGaBWiBCClaBpItCBFTdJ9UiileqpJAQB3QUH1SBQKk6R1SKBoSTQJwsKRorSIQKkJpIqXUFJCb9dENsBEKkVaEIFVJOJHTRMqT2QMbDshAGiCgFKdfomQgkWmhAKAso9k0kUg7WiPqqtIDVM0DSASQjdAaFSWgqqTpBjqkH1VOFHRTaKVUmhCgVIA1QTSbSgKQUyVNoAIuk0igCb0S26JhJ2uiA5muGixu3TDS07aJkIIAKeqdi0WCoEkAq0SVGOaCOZvK9oIXOkxMnGd9yfMYdvRda7S9ii9de1Q7pUmBoqwFTaClABQXSNgkkSge5Q6gPVSCUiD1QUw2Vk5qChooKtUDGoSI1VNoBMgFBEYuT0WwoaAAqC+X5Wzt49GvHkCEFJfP66kVjcVTjosRWa0kqCqJUEpIJJWM6lW5SF1gFJTKgqwIlQSqJWJxpdJESbJodVvRN8tgasGHF/vHfRbO6+l4+vk7Xm2Zf0oFHILutUDRO163Eg0c1rIDSgFBKDJaR3SaUEqgJU8yCpKCuYlGym6TvT1QMbFa2dH5uJIzuFnugsUkg8t3qKUHHwgGZDHHbYrquDS3Rc2KOj7Fb0RsUikY76JxwAOsjVZ2josjW0iGxobRAWw0AjmKxMBcaG6zNjIFlUBsoF/ROqVUgRCVaK2gFwVvArRQY2ga2gCyUVRTBpAiKUK3HRYyVQ7Uk2kLVUgVp2ggJKAKSZSQJBQUnCxqgEkAJoEjQaE6nohQ8XreoQXukRqgGwEE6qA2VA2FI21VBUJLXWzp0TIRSCXsD20SRr0KHalPqkQoFSg7q1JQYjukshCgikGNwNLCQtg2dFic2kGK7sIqlXKAbQQoqEJlJVAkmgbIqSFBBtZSoCBH0Q2ymQgBAIO6dKSddEFA90WpF1rumgCVDtldJHYoNObDxcoFksQBP4hoQvJTR+W9zbunEL173Fr/ZeXyBc0w7PP8AValZsazGue4NaCSdKC6B4NlRwOmeWMAGxOqjhmTFhvkme3mkApgWPLzJ8t1yvNdGjZVGJkxbo7ULtcK4y7FPI+5Ij06j2XBLUAuYdFLB9Dx8mHLiEsDw5p3HULKvD8N4nJg5AlGrTo9ncL27CHsY9t8r2hw+qzxqVXRAtVVJVqopIAVcqdKiQFSdUkgYT6hIBOkRSLStUKRTBtVSSoIGAmApTaSNDsiAt1SLaVmikd0ECxuglMhSQgNlVqNggHRBe6KSae6YQI7oTpFIqdkiqIU9aQJUlSYQMqQFVUgIJIPVKqVHdJAkWhCIEFJIlFNSXaKeazVFVVjVBKOmibW0KTQSUIKECOiVtdsVSnlANhAJFNBQJK0ypJoIAlATGoRSA6IBS1TQMJGiUkwEUJga+iYCRsD4QgJDyMJChkndt31CUgduduqUQLSQPl6IMpAOyktVgJIMZaW+qXNaygdFDmAFRUHdF0U+VFIAikj6Kjqp2QMIGqSBugqtEJ2kUCKVJpIJ5Qpqlkq1JagnW0ympJQFIpCaDsIs1qn1RparJAaFVWiY0Oio7IMfVMNCE7QAAQQgIQUAKQSkjREMKxqaWMG1laCN1z2ZeuPWsZ2md00kL4mzLt69cnIEFCh50XGtIeVjJVOWMlZn6pFSUypcukgknVSUEa3aRW4hFSSmSoJWpAiaUMaZZA0fVDzotvGi8uLmcPicvTo1+1c88uRkoNAa3YICR+EIBX1ZOPLapK0WgnRVCtAOqlTraozAoJUA90yUD5kBSmNEDTsVZUPd0Cx2gpx5j6LVmlA5hyO0IF91nLuUWof8VKDXc2nmlmgB5vokW6rPC3RQWwa+qzhnw2sMZ+8IorK08xIvULQtgrVXzWQLWMWFWxvqgyd1RPw6KAbCdoKaevVXfdQCqdQA9UEa3qgnRDgRrSTSQdUAdQpcFXVBbaDGFRKR0JSUAd0IO6EAVKZtSLtAwkVSlyCUyUk0CQQEVqhQFgaBLqk4fED06pg6oKpCEKgQ08zb1QE0A7ZQh5NaCykFAEAqaVFJAq0UuCspFBiI7LG4d1lKlwsIrC5SspaFjcgkqSFV90rCCapNDtU60UEnZSBRVpFUI9UgmjlvVAJEKtEboFSQV9FJCBE0FIGishT1RGvkt3I7Ly2WOXKlHc2vYOYHAgrzvGMUxzc4GhVg5OgKtrDYsbrHJv6LPBkBrKcLPdaZpFlXosTwFs5Mo5QTpzDRoWkXEohr6Bwl/mcKxXHfywP0XgYWOkkaxosuNL3fDgY4GRdGNACzWo3t00gqKjQBQl7JoGikk2oEmmjfdAJjVFJag10QWmFA0VBBadlSFQ1RDAsINDQkWdkXWikgEgkAkbFA6UuFqibCmtEEluiQtWkilqmDaRQCiLQUuZFooSAT6JihuiJQNkyjRFCEkFAyFJVXehUlAXW6kppFAJVfVCNkCog76JoQAgRulNlZEi0IMdi0KgwDXqghBKCEbI3QSmEIKASLUwU70QTVJFUhFTXdMIJSRAa6Jg6JEJWgu9Fie54OmysG0IEx4kBY4EHuqY0tFO76JOvl+HcJNeXNF7orJWiWiXMUm2R8W6BgoOqQTCCS0goIVIKgilBKyEKSEVPumKQUAd0BdItJGyBOTT0IUoBMapHRAQVQSoItFoIcCDtfqqaLCoFB9EHU1tNoI1TATCrICq0IQIgVokBYTKGhAtk6tBCQcgfLSE7tAGqIQGqypUBqgLw+Vs5OO+vH+1ISTXyq9BErG8q3FYnFYqoJUFU4qCUgRUnVBKVrpBJUlMnVSVuIlxUONJuKg24ho6rpjO1Ky4sQll5nfK1brzZ9EoYxFEGoK+rp1+seXPLtQ4gbqQdEOIJSXdzUCglSEIAuGyQKCBWiEDJTB0U7o6IKtPdQi6VAVF0ndqCgbzYoHQ7qGahDlMII0HdQZWtshbDRQpQxnVZRoCUAND7rMxo5XEgarHQrXdW02FQAHQK+Sjrv0Q3Q2qc6ygxyMc9rQ13Kb1VXrRSc4k6Ibo6zqgoHVWBbtVA3tVzIKc7opIG6Wt3aCLCBt5SLtInssfKb1KsbUoJIsp8oCZNBJAEaqVSQCBJAK60SKCSkqIUmkEnRASNnRNopQNSVSgmlQq5tER/LrujUgkKOblkHYqDKi0ICAukWkUigaOim+iaB11QgaoQSbQNlR1QEGFw1SrRZiFjIQYni9liLdPVZysZ3RWEtPdKq6LI4qdyglCeiZ9FBNJ1aY7JgUqMZagbLIRsUqF7IMRAtW0UqI9FJNIgISVNNhWGhFYjo0nlJroEwywDVE9FkIIQR1QY+RavEMMZGO5tfENlvtFpkIPn08ZY5zXCnNNELBqF63jXB/tA86EVIPmrqvNyYk7HEGIrXWbGqSTugDVbUeFPI4BsTl2MHgJDmvlN+idTjX4LgPLxM5u3yr1eMwtaLSx8dsTKAFrPVBRYttJqG2rCigBOk6pCKkpgKqG6SATARqmECCaN0BAbbJC9lXoitUDBoUmNlBFG1Y2URVWikA6oVUEpIrdK9EBYUpXWiYQI7IFUqUkHogaakX1KdoiqTq1NqxsilXdFIJSJRAVN6IOqKRRfVIlCKCBXokqpBFIF1SJPRNTqEBza+qdqeqoUUCspooJA60gdqSqUuKBIQNU9kEUgJhga4uBPxIQJNBCKQIpWn1SO6AUgaqggoEVKopUipBIKq1PLrdp0gq0krpMEFQMFUKUFAKCkbJWi1QwbNIJFqbNo3CiqUlPoirCCEiFWyCEEa/ROrTpCCUDVOrSGhQJyQNqzspA1QCCLCdJUgQ0KoOFJUoIIQdsI5taRaYAKrJgpAik0IBASKAoh6FIiiqQbKoGndMbqCFTdwFm3k6snVk9EJdUL4m7P2yezCcirRalBK8/W0uKxkpuKxkqfoRKi1RUFakCKklNSVsIlQSqKhy3EQ4rYxIbBkd9FrxsMsgaF0W00Bo2C93j6+/XHZl/QJNLG6yCspKwzStZQPzFfQeZiAIJTu0bpIKtBKlFqikkDZFoC9ShJLqgoupLfVIovRAFSUHVACBBvdW0AOHZATrVUbGg2TBUAENVuCBc9OqvqrjJN6KQNdVkoVW1oKG6aANEtkDDUEUUWb0QfVAwrY2ysXMeizMPw31UEuBaaQBet0q0draRNIINXdpMNu2RyfESToq5msFlAyEkc4KOYHQIFSEItUCKTSOlKIkhQVZ1UkIqEBUkgThYUOFDTUrIVCBCyFJbbddwVYJ7JKBpnQJNOuqo6oJGp0TI0QKGyaDGKKoBVSKtAhsghMiuqNUCGyQVaWikVKghZKS5bN2iMRGhWCQcq2XbrE5BrFMLIW67KD82iKkgICHC6SFgoKCaQTa3qgewQBZTITAI2QSRqkWrJyo5UGMNAVgIrVUgANUObaYGqoCkRDW8uiCFdCkiEGMha8mJE91luq2qQQg12Y8bPlaFYbSukAIBoVpJ1qgdJ2hCKq0AqUwEFDdCEBA0ABHRNAlVaIG6Z2QT6oTpCBBO0dFN9VBk7oulLXJ6HdUMlJOwkdSiJITASsqr2RU0bTGyaAgk1ddU6oI/EmTSBUqSu9UIC0r1VtNJOQI0dkk61QgmkUmgmkCRuitEbIFSVockgHC1BBpVaEGMucFbSSLScEmmtkFE6qSRabjamgUFAItSNNFQCAtLqmikAhFJoISIV0kggIJPRMhJAjaEHRJFOwkpeSG6IYbCgZNC0Agi9PZMrEYg5/NdIrKChFBACATBKkG+lKuiILTSoJjZAihNJFG+6SaAgVKaWRS4IiQghMJlFQj16p9UiAiC7SQAqqyikCkRaNimKQdcBO0kWqyd6p2sTXc7jpQHVXsQgqklRqtFNaIGCnalPdA70TadL7rGQbAWU6adl5fJ2euPHTXj2hJCF8bKvVApcVRWNxWFS4rGSmSpKsgRKklMqSukgklIplSd1qRElQ89AqeaBTx2c7+Y7Bd9WHtWcryNnGjEUdn5isikW42Va+rhj6zjyZXtJYZIY3u5nD4lmcdFjOuxW2WIijQSpNwNoQKktEEp7qoEI6JIp/1QUki5EBKVlG6AaRRSfVA3VAWUFAADVMljRbnAdlQFJSxNJsCwFRbXCtNlYN9VhaByghU00gynlbtqU+x62pGpWTl+AO9dkDJNEDqlq2gTaoCnWdlDjzFQUHWSB0SLgTulsEBvZBQAI1QXcreVu5QNtVDfiffQIMrQRorPRJPceqBHUqSAVVaKdbVBVBAQUggZ0SGp1SLjeqoUgEzsl1QVESkVRA3U2ipStUVBvm9FAWkmRqlsUAQpO6slLogVa2naWyBvSBpgaICLQHRLlefl09U71pXzaVSDE1hBsm1RRaCihB2R0TQLoptXuUnN0QY3BYzos2+ihzUGFyxHdbDmrE5qIxnfRBGqZaikUg1UNAUwgi9EDaQQm20NbSqkC6o3Tq0wNURPJSqlSRRRSNU0+iImtElaVaoIIKCFZS3QRypUsh2Sq0EgFOtE6VBum6CN0wCnVWmDSKQCadpBA6TCYBTrqgVIQUwKUQICaFVFIrRMaJoJUkK6pKiVBIFEKkctJqiQDui6KuqCnlBQI6pC7VEUdEIhdEbVaVoo6AlFAO/wCyxOcZJmNYdGE8wWU2Nt1LWNa9zxu7dBTTQRako5iHaDRBQcQVV2se57KhaCidaQo3Nqg7WkAloU+qdIJBOwSKqlJ3QSUdE9N0zqgmkVomdBrupFoBQ4FjC5ouuispWgj5wDt1pBsJ9VSDGearaAmHGtVRCVIKGoQo22VAoHSKTB1TKCaUnQKjvaKtBHRKrQ/madBolztB1IFoAgo6Kt0iEGM/MFiZzMLr2JtZ3CkiLGqKTTzJ0sbmEEFhpW12mqinsUOHMNDRTHxBGoQIJ2leqL1RDQpeXBts1Kr/AOUgdpFFIOiKAVQoqCmNkQyhJNFLZKlWlJIJI0UjbVZEqtER1QdUDdMIqTtqldKgkRaDsJpFNVkrRuhA3QULpCYNoJpAkBHugmkFAdUI2FIXyPKz7lx6tc5AhJFrwV1JxWJxVuKxkpIIKRQSkV0kCKkpqVqBFSTSolYpCtyIk29/KOq3Gx8kYaN1GLF/vHDfZbBK+n4+vk7Xm2ZdS2+qvSlFpF1VruvU4iT0SFBuiqgpLaCDG86rGXpvNFYyCUDu1QKxqgUFEpEnohFIg1RSSAVVNArdA1CC20RVWrjGqTdqWRg1voinSYBII6JOJugd1RPILVCrlFKhWx3UB1i+6A03fVBk2KyMPw6rDehsq23VoM/wkfEdFFta627KC8OJAQRTRXVQMizoqEbr3pSx/LuszZAUGvMTzhg7KogA1QwmWRzh309lmAAQWBYQQQqaa2UOdZpAFxANbqWc7jbyK9E3AgeqV0KVATqgbKRVbpg3SgSd6IKQCBhNx0S3Kb6AAVEg2E+im1QUCpSQqOiRQSVJVO0CjdArTQdkBQCL1RpSh4NHl3QZLAQFjjc4jUKwgslo1JCHFQ9rHgc7bo2FVA0UUjdphBKLpAyEimXWEdEDCRTadNUIMexTc22pvFVSYRGIClD2jX1WZwpSQHCyEGty0O6VLNy6+ixv0Hp1QQAq66JtHw33TG9IBNDiAKQBoihFlGyojVEASJQjlvVA26hNATAtBNJquVSgC2kqpUUuqBO9EDdUUAa2gkhAKZGqOVAidbRYq+qKIRSBA91YI7rGq5RQIQZBqnSliooopOrSS6oikJWnVooJ7JjbVFIJAREuNFIOoqt1BsGuiKomzonqpAKrW0DSrRMpE6IBHRIJOKBcotDyWRlzRbq0VAUmg1seOQs55XHmJ1CzmiUyCBoFF90AUqITRqgVao1TpUAglA9UzosZNm+qDL1TUNdpqmSQgCdVJRraeqBBK6TSpArtPoltsmgR2UmwLVVoitEE8qoCuqAEbIEkQVkNdkO1QYqTAQRSNUDtHMp1CddUF1akijomEuiBHXQrHLjskbR36HssoCKQYo4/LFXfqqNJlSgkqQKWRIhBO6XKqRaikw04ghUUkjfRAJJhCKEWglTugu0EqUaoGqGyhCCrRakpjZAyaRdqN1QGiBqTYNgqkiEEjUp0kQeiQdrqUQEUUjqVeikgIOwikJ1oiJuyikjaAqKTA7obqqugiJJspfiQi/iCzfxYspJncpL4e69yr24/gtIlB2UkrztJcVjcqJWMrWIXVSU1JK2BJCRK3ES40ojaZJAEPNmlswR8jATuV6dGv2yc88uRmGgA7KSbKCVIX1JOPLaZ3WL5pfQKnuIcK2Sj6k9SqjIEPOmiDoFBKDG8WVCpxorGSgClaCVIKDICnakFF0gZKQKlxTYUFjRUCpComlUUNNVYdXssV6J2VVZgQdkEB26wh2ippJNIKdTXNKp0litlB0KbaJ1UCAe51j5Vma46gKXXoGrNYDKHUIMexGiyUKWNp5jXZVtuqD0WQUInOcemikC9AdSlO7y28rm6IHCA2MEblX6rExw5RSsHRQZGmgk1tgkHVSNdLVgjogRa4HVQdNFltRQDr3QYqJPuk1xaeQtJ9Vk6pje0BVdU77J0CoJpAx6qrFLGXg6N1S5Tep07BAGia7Kg74g1TQB0TG/qgbqFI0UkHqVN611QM62FFUAB0V9VLyAglAKLQoApBNMBAiU1L76IbqiqBtUNBopDdVRHKfRBINoBvqEGvwpPx2uIcLHsgyUikMbyirVIJGiYQgCkDOqlM7JA2UCrdSB0V3SiqJKCDuoc2wQstJcqIxAa96TqzdK3+iTBZpFItv3TqlTm0UkCoFAIpOuyQARCCoDoEKbQMdkwQprsm0UbRVEm0ItMIiaQQN1RCkhAAEo1CobIq0C3Np7pAaFACBJbq+qlBJFIadUyNKKTHNvlrVFX7JgI0TCHB0Q35q6JlJEMnVHMknWiAtTWt2mUvZFMbJEFMIJRCYSLBVXqpNH0Qiq0SO6N0kDQhCA6JhG6EApcL1TJ0Uk6IJ1tO0gQ7YpgIGAnshCgW6nl1VpIIc0jVWHgtRakgKiq6pF3ZA0FIAFIJs3qEwQmUgNUD0SKZFJIEAgqkVaCbQVYFKXCygXRInRNKqQST6IsosFLogdosd1JRWiDIKSJpJg03VUgVpk6JHRAKCHXYSKpx1UoEmmAEFtaoJItABT5kE31QSQgaJoIRUne1NlVSCKUEpE0mEh2KADk7tIijaYOiAshNIpDdBRQDYSS2QOiCnemqAjXYooDgmSsZZrYKdlEVdpOCAbQbRSukCiikUGojs2lzap1ok3fVVkyRSkJuSDUD1R03RR+iRPKopIrUFJrg4WEOa5xAGmqmX4sZnfMVKpx+IqSdV8Db/6r24kocVRWNxXJUuKgpuKglbgLSKEluAUPdQVE0FioySBg3K64Y9rNZMWIyP5j8oWwyySSfZZGxiKMMCxnQml9bVh6x5c8u0nHsU27KSLTtdXNjlOpWPGcXFxKyTRmSM8p91ETTGK7oM6jXqgnlFlMlqDC9Y1lfVLAXUUDJU2gm0rQUCjdTatuyCHODXtZV83VW0pEIaNUGZvugnVS1VVhVDFUnopApNupRTCTi4atVjZHKqE2y3XdU1INJoDZZQwBtBQDBQJT5tEthSCaAQF0gEk6lI0RrqhraCDKw8p5ljyHczgSduiLN+il7QW2fogysHMxppZHNa1oJKxMeeUabJEk7oLabKsXy31WNtgK+eqBQXVMBStBOiW6ASukzupI/VBbTp7pOF7qYidRWxVoJFNFUmTogrHJzEaIK6WU2lYWtcavosoFIB500WMkX3Ksgo2QIWetJEAhMgpa9kCoBI7p6opQIboN2qATKCSCfdJgIceydlJpNoLLmtFuNIcefbZIt5t1VgaIANA2VdFNqxsiptI2qNA0ghABB3Q3dF6lAEaKeWtlSSCShBQgnqUkyUIiSLTa2jfVCe6BJUqpCBAJOApMkgKmWLtBha0i9bTDe6yP20GqC2+iKgDsmqApSY9bBNoAA3qmqrRA0CBIpPqmURKE60UoGkmCU6QSkVdUUEII3RSZCVUgG6q0hZGgT2RUuNBBJqgqItICnWgQFBUE60QAgRrakqV0gjQkaIIOiNCh2iGoCkVSq0nFAeySV6JhAFIaplJqBhMoRdoIcaBU7hOtUqtBHIWP5mnQ7hZQ4EJctI2QUEKSUXogpIoF9UUgnqmrDdFJFFQKqQCjdACoaAmi0CcoIJIWTcrHKCCOU9UDVAqRsmAgrrSHBSSQi7QKu6RCrspKImqSpUTdpBFJJZNFNIJs2OysJaIvRAEm/RCV2hAEKaVXpSfRBICHeiYS1uuiKmklkoKXDsgjVG5TCZGiCUEaIAoqkEHRR/VZSFNIIdugJuHbZKtVA0NCaNkUtin0SB1VdECHdMpAoQFKSFY2S6IiWqtEi03YRXdAUnV7pdEXSDr2leqLQNlUCYNJJXRQZCVje0P0TsnqlVIGA1uioUeqjcqtGts6D1WcvxYZ3KRKROqRXwNn/qvbj+BxWJxVuKxOWIqSVKoqVsCWyal7qC1IiJHa0tjCj5QZHDXotB0jfOiY80ZHhoXYoNHKNgvoePr/ALrjsy/onFYjusjljNd173nQSEAJaXoqCIiV3lstJosNKJRzuA6K62RScLFKSFRB7JHm7FEYnigsDt1nfZ6LC5p7II2RaZB7KTaCv6ptvXTRS27WQbIABUAErARzDuqKOmyvYKAQdinpeqIaam9dE7RVA6p36qbsbpcwG5QZWu5VYkJ20Wvza6Is826ozut2xUgEH4jqnoB6pEoKbuqdposYdqrDgTZUFbBSfi3NUqe4HZYybaaO6DIzXRU4UpgoN+Lom5962gpmo1QbDtBYSaaFphyC76Uki9VkazYlUQGOq1JNLNI8NGyxA6qBAnRwGvZMO0Naeid0pc0kaaIFzaqrtQ0UquggNBshu6QRpdlQV1QiwdQi1RJGqR0V3ahx1QJCSFA0FARaAISBop7oQDd0ykEFFAVJcvVUB1QGxVbhTRJTBpAEIaKtMjZMIIcHdELJ0WNAlIBIV/VKwOqBcqXKE7s6J8pvUoIIrQJ1SqviTcECpLlRqBfZWKItBFIOiukiEEdU0+VIoEUalOrTCKOiK0QgG0QgDpSCKVjRS5AqUluqdpg2gXRU3VI0CqvRAiLUkK1LkCAToWkmBqgeyWiZFqSKQMFIhIXadoDdpSBVaAKQgfNZTJKnRMIFRTqk0xqEEIpM7pf1QBCSEEaIA1WiQ0QmBYQO9EgaKYChwN+iCkEJC6RsgNipNkqt0AUEEgJgKkkDSrW7TGyEASb9Euqalxr2QUACkRSTRXVBc4HZAwdUKVVoApOB5mnp1T3TOiCR2TIoI0KCgndMb2mDSW6AJ1UlMhTVBAgikJ7ohOKWoTO6EVJOqOifIUtkFAapuGiQKogkIIHqmSnSkoADXRMhTZCq7CCUEoI1SKBDdCErFaoocmNlic9oO9rJuLQPdItpJM6hBGwRuqoEaqQKUAk7dB3R1QSDrqqFkIc0O9EgaVDGmiLtLcphQNJMaIOqKdoOqkaaIKA+VFWbQdRaV+qDrn91I3VkA6lRqqyoa2pO6sA0kRaIm1QS5aUZE4x8aSZ2zGkoNPinFYeHANrnnd8rB/dcCXiMuVJz5WRyt/IDQC4uVmOnnknc4l7iTZPRbnBuB5fGJA9xMeODq93UeiWLK9xjuD8aJ7TYcwEFWSoibFHCyKB3NHGOQH2TK+BunM69uN+JcVBVOKglc5GiSTSW4gOgWFzrduskh+FaOdL5ODPJ1azRdMJ3KRL+OZDlDN8U47C8NhgdYJNAkL1TsnFYbflRD/nC+Wl3M6yTZ6qqsXqV9vHGYzjxW9r6TJxXhrPmzYvobXOyfEvC4j8Mj5T/ACNXmeGcKZms5jMG9wBqFnih4ZjzmOYPPKaJcKS5SI658VYA+WCc/RYH+LmVUWG4+rnLn8bhxG48M2I1oa51WOu65K1je/UruP8AFGWXExwxN9zawv8AEfE3bPjZ7NXITAWjrou41xJ+jst3/KKWB2dmO+bMm/6lrhNE6s5GSd8uY/8AMUvPyRtlTf8AUVCSHWYZmY3bLl/VW3iWc06ZbvqFqlFBDroM45xBh/iRuHq1bDPEeS354I3D0NLjp2iu/H4mh/3uNI3/ACm1txcc4ZKNZSw/ztXlLRQO6HXucbIgmFwzxvHo5bHtqF8+Hwmxp6jRbMPEMzHP3WS+uztVB7ewEFwK8zD4jnbQnia/uQaK6OPx/BlID3OiJ/MFB1QVjk1cAiKaKYXDK149CrIIOxVA0ACrtVdaqRQ3V2KUUwbWQjShuscZv6LJYQTR6pgoJFbqOcAoMrq5D3UN0FIvRNppBfRNpH4lPNabSL1QXfSlTbASuyqvRBTVbSeqiIdVkJ1QS/4ioIWQhSdEE9Ew40nWim9aQM6qN3V0V8t7KeZoNDdA6oKaVXakoKCf4VITQLolSCkiikJnZAUC6oKCEaUgG7IS9k0QwEuYHQdEOvpssYBa7Q7orKCsg2UAUEwUDtLdCY3QMHWkdUAa67IvVAEqaDtLpN26AKRCIAUG70CyFKuiBBmiqk26JkaoJr4kOCfVB1RWMK0timHUCavsgDui7CkAi3O3KbdRaB1osb3AEWgw2f4jx7FHlOv+IT7hA+YDojdPlpVsEEg6ICXVUN0CJ0TaOZBTbogl7fhNbrGTy6dVlJtQ5oO6COa1kGylrB13V1R02QLVGqaEEnRMOTIFJaaaIHak2aQSkN0FAUUOClvMHEnboqcbQSkmUkDvRF9EqS1B0QWOyRNFAJKqrQSilYFIpFQUgm7QKeiBkKtK0WPXokHEaIjJaVqdU0AhCN0B1QSmp3ciGEUnpsEAIAaaKip5qKYcgQIJI6hJ40pBI5i4KeYuOoRRzVSuwVLmB26A2kQztskQUy5KyiixVqjsoItFkeyBoCXMAdVVhAVYtLZNIhAE2pPRVQ6qTvogEDRSR8SDdoKq0UkNAqBQS57Wj4iBfdY3SMrRwsq3sa/5hdKQxrdmj9EALpW1xrVJuqCgRkANHqqqwsUuO2cN5iQWmwQVlaKFEoIOhVA6JvFpAaIAkXqpO6bqSsFFIhA13T6KQUQy1p3aFJFDRWD0UlAgNEAUi1LnHpuigu6KQeiQ62KIKoC9VAJFM6I3QK0VaWxTvRAtlV6KSRaWoQNxspWUgbQgq0WAkN0ygY90UCVBsJh4rVB2VLgdEA67q1WSBNItI0EDVAFcnxRL5XAJ63cWt/ddJ8rGGjZPoufxrHOfwXJiY08wHM0e2qDxXDcdmRxGKKTVg1cO4XqeKcVMUbcXHAijqgG6LxkOTJj5DZWH4mrqy8RxcmnOtslbEKkeu4bkwT4zG45ceRjefmH4uq2iV5vw3kj7U+GxcjbC9ETovjeVjzN7dd+JJUk6p2sT/hlH8wXDHFpkvWk1F6gq1rLHgiQWufxSMycMyWjfltdB6xOaHNc12zhS1rvMpUy/HzginLPC29nD2U5cRhyZIz+FxCgBlalfdn2PBflbsYmxX+dju5XDf1XQj4hjZ80Jzm8kkZ+jlyGOYDYlpXK6J40dzOUuPU67PiJ8BxIGQcoAcKDfYrgXqrDG9Tqjkb0cExx9ZwtTsnzaJ8oP42pco/MFpFt1baLSGg3CRc3q4IHaRJS52D8SRkZ0KBgprH5jfVHmt9UGS9EiVj8xqPMCC7Cd6LFzhMPHdBktO1i5h3RzaaFBltPQ7rEHHqnzIrI1xYbY9zD/ACmlv4/Gs/HAAn8xo6PFrmcyOZB6CLxJZrJxyO5YV0sfi2FkNHLOGk9H6Lx3MkTaD6DHI3ltrg72Vh97hfPosmeE3FM9nsV0YPEGfDo5zJAPzBRXsHOpJuq89F4oaa8/FPqWFbcXiLh7vmdJH/maiu2XCqUl1LSi4vgSfLlM+ui2mZGPKPgniP8AzBBlj+LVWatS0Vo0tPsUyxxIsFBkZTbJTLwdljokEbKms211UGxC6wRWyrqsbfhPusjDbtUFUlyqnaGgkUGMrFIXgNLALvX2WW9SOqxuIuigrmse6jkAN9VTCHDTomoJ2CBqg+ilxQWhJpsJoGAEi1FoLtPVBJ1QCAlSnfRBbXh1pOHZAFDRCKVGt9UwdEAJBBkuwpGhSBOybNRZ7oKAN7qqQFLrPwjTugQsn2V3qitBWyCEDcaGiHBDtKQ42aQKimEFIgkb0gALKvZKq2QdUBSdJWi9EABZQ4JcwYLcVV8wukGOk27ILSeiACNwgDtqltoEyg6C0Am1RzjqjnHQoLdSi0WO6aBVRtOrNq+im0UrpBOqN0iaOoRDA0RSQPdMaoEUqI3VBBQK0Eo5UcuiAGqfKkAnzIDlHVItHRBNphAuiZCT9CgGwgRaFJBBV2kSgXRIbJOu9EC61QNMJJ7ILBSooaVVoJIBUFqsqDugY0CkgCyg2hAr0pMIT0OiCSpDqKs6KaFoG02ga2nQFUmdCiE0UmdtErReqCeWkKnFJFTSbQqAQDSIoBSVVqS4IqHaJGyCshojZKkGNthvxHVOyqKQ2QKgQmAjZMIAJG+6oLHFIJmlwBFEg2OyCkAUjon0QQ40UrVlthTy1ogV3ogaeyKQgDrqirTB0KSCRoU1RIU6IHsEWgpBAy5LmSKRNBA71S0VDQKXIDdLlQmEUJOKDV6FI+qCVLlSR1QIXSYQOyoClAiNUJOdRRzA6qhUjdNJAgNEFUghBi9U71VVahwoqCk0mnRBGloGpLRe1oBTCDqtBCoFTaYKqKTGynVFlBBb8QKyaXopFkpHmDtCiPG+JOAuxZHZWM3mgebcAPkP+i881jidN19Va4fK4WD0PVaWRwfhs5t+G0Hu08qqceH4W9+LxPHmLtnAFe8PfoVz3+FeHPPNF50Rv89roeX5QEd83KAL7rw+Zj2SvTpy/pOxpRPoWH6K391MnxRn0XgxdyOgtZBssRI5Nlkbq0LWSBwWJw1WZYnnVYV4zxNj+TxEuA0kHMuMvReLHNdkwNG7WG157lX29N/0nXh2T/YgLKq+X3RtoFQZe66sIs3atrgdHKjGlyKIks7bKSCsojf0BP0V+Q92zHk+jUGtRTpbjcHIf8uPKf8AlWxFwTiEny4j/d2idHM5SjlK70fhnPd8wjj9ythnhV+8uUwewTpx5oMR5ZXqW+GsZp+OeR3sKWQcB4ezdsj/AHcnV48l5aPLXshwbh9aY/6lZG8IwG6/Zm/VOnHiSxLlXuP8Nwf/ANJGofwvAv8A8o36J048Tyo5SvYP4NgP/wBwW+zlif4fwzsZG/VOnHldQjmcF6R/hmE6syXD3C1n+HJx/Dnjd76J1OOJzk7hMPHZdN/AM5uzGO9nLXdwvNZvjP8AoLReNXmaeqLHQq34srPnie33asRbXcKotAcsevRMFFZQ5Pm7qAVQ3QWKSoXY0SsA7p8zSNCgtkskZtkr2n0ct3H4znwG25T3AdH6rnItB6nhvibnk8vOa0B2gkaKpeiY4OaHMcHNOoIXzQFbWLnT4kjZIZHAt6Xoh19FYQdysrbGy4/BuKs4nCXVyys0e3+667HaKKy0EnEAJE6KatRQdRfVYy23WshGiVIIApB2VoKDGCQkdlTgp6UgoaJ2oVN2QNIhMIKglTVK6QdTSKQNBF8xTA01RVbbIAUEiEEm09aQLVSX8uiu9VjdGXyBwNNCDOC0tRodipO1UkxlOtBkF1Sl12shNBSTqgiydOqpreqGxhridfqgnoEBfRNJoTJQPdJK66oI5mnWvVA0xttaA0gBG2iCGM+MvebPQdAslpUnSCefVBdrQSfoUmmkFAWUyOiEdUBQ0sCkGNh1qkIvRBBiHQqaLT6LMNQpcECtSSnSCEACgpBNu6BVaoBB0KLQBFJKg7RI0gEItBOiBE0VN6plAbaB0iqRRCe6BHVRRCutUHakEONIBQQlyIBzgEDXZHJYQ1pGiCgKKfKkNCqBQQqtBHqpQM7pFMlK9UCcNEqJVGkwSEEUQjqrJ0WIgnZBRKCK1U0aSs3RCDIkQL1S1CCgquymtUtasbpgnqgCjZFXqgohX6p3rXVSQeisKKobKHDVVarSlRjanSdIQKkE6Kr0SdqLQY3dNUOcGkX1QW2q5QWgOQFoWvJ5sesYsDorgyGy/Cfhf2KDMNUuXraaXsgAaQaJRSgoHyqCKKu1JHVAgg7oO4KZFoFdpEBFKXXzCtkGT8KkBDTSdhBB3QqKSACRTTOiCNkVYRdlCBcpSNrKDSTwN0VjFo5bVWi0E7FBKHHVCBDUaqapVskgVpo6KTdIGfRK0JFAElK7QbQoCtUykSGiyQAkKdqDaBhNIaFUg6gKbUw3RDRRVZMEDdCdaqqCCANUUqIUgnYqAItFJ+yoDTXdVSGyw5A2K2KUyRl7aGi5bcfbHjWN5WkdlO7CqcCw04KQ4BfMuNleqXrBZAs3Xos7PkBRbfRSZBs0WpZadW5wAWJjXTScrRfr2WVmNNLq5vK1bsTGws5WCu5Xp1aO/axlnxpv4VgynmmxY5X9S5IcI4YN+Hw/ot8Ughe+Tk481+tL/CuHD5cGEf8AKpPD8Jm2HD/0repY3jVVGk3FxOflGLD/ANAWYYuMNsaEf8gVsaLLq1VEonGExQtOkMY9mhNorYNHsEzujYocDrUa7LITe26lzSN0VPKsUgorKTosb2oNd26kbrI5qXKgLRdpDVANIHSTqtPdSQglCRsFKygqlJ3VA2pO6HAlZGxKoJ0gn5h8WvupdBA8U+GN3u1XSddkTjSm4RgTA3DyE9Wmlxc/w/NjsdLjnzWDcdQvT1RVMdyq9HgENDnOa1u7jQXf8QcMaz/bMdvK0/xG+vdcAPLJGvb+EghVHrOH8MgwYwXsEs7hqXCwPQLQ40OHRgsjhH2g/wDDNBvunl8ZrFj8g3NIN/yri2S4uJJcTqT1VQjopKurQWWgx2qDtExE5zg0ak7KH215YdwaRXX8NZYx+KAONNlby/Ve6jevmWHf22H/ADhfRMV/NHfYqK3uZHMOihvxe6ZCirLrCSkKmihqgZqgpITNaIdsggpaAplIoHomCpG1lO1A0DdHRNhBQPlSAAVWEBFKtVJV2kWgjekE0gpn+iRQKrCYCBokXIKsdU7WK6HdWDogCfVF/EhtEe2isaFAtb3T6pk6JBABFKuiQQLlB6KxoExtaknVAWSUJgUpN2gpIu5UbBKtEEb2VQaOW0copOqFIAHRJxoaC1QaKTrogluoTpLqmDqgYGiXLqne6YQKlJamXaotBjI7JhM7opAEWFNKtVHPqQdEFhqKpDSa1TJtBBKZGmigts6q2ihXRBG6oIqnIKKo7JWptLmRFk6pJBMh24RQWghFAJi6SKIfRSd1SdAi0GI3aObRV7qSEANkdEwEEIJTAsISIQI2dBuqB013STAQIqRuqO6XL1QBQBZQmEA4VqUdFVghRqgOiANEApiu6AvSlKZASQMaJkqSUgdURYUusG079U7RSvRK1WhSpQHRK9KTSpUGwRdo6KdRogonRYnRAuDhoVaaCYw5ocHOvXRXSQVAoH0UOGtqyRSixRQSjZOtU6CCL6FMJPZrYKbdtUCI1UNvmIWbSt1B0KBFqWyu9FJ1QSVBfrQFlZC20gADfVAbBMapUVJNFA6AKeiiyVQqkDoFB2Uhw7p2gmrO6C01omWi7B1UP5ttr6opjsnVqGNLG1d+pTDtaQDtFKslTSCQaTCdaLHMxxjPI6igsi0qWNhcstoEdvVSQaVUCi1BrE3o5IiqDTyrZ5Wu3AU+Uz8qomN1jU6rIkGNHRNQdkoCHhxb8I1UsZJeugCqLvVMGwpLbO6bRXVBVKToqUuFjdANIVcwUUBsm0AalANkc95AYQB1Ks6KXP6AqHOIF9URUjWvA5gsRxIXfmHsVkbZ+ZXQWLhjf1qZWMAxMdpo8zj7rK2FjPkYG++qqqs9Uxqk14xfampc0FWNAktxm1FJhNI6IhLFJZNdFkJWvLKWfMgLpK1e52Uu2QIqa1VJOQJrm81DdU42VjA1tOqQSd1L1kUP2QYC6zojRBAtLdArvVCZQNkEpH1V1aVBBjJtKll5RSmqQSBfRB3VUpO6ACdjokNVKBnVUNApQgonRRdFWNlF26kEysE0To36tcKIXicmEwTyROFchpe4qlwPEmJT25TR8w5Xe6sqOCNCspIBoG1jrS0A0tMthlVZSkkA+UUsRfpooNEWXa9kFea/mtho91NUmEyosbfCYw/NDnbN1XtuGmmkHUFeR4bAWAGtSvX8NbUItRpu84a4K+ZYw3VZWstAw5pOiog1oUBjR0SJ6IA11QCkADqeidoAqRRQd0jooAhIItFnogpNqnWqKYBCCj6JtvqlY6lVXRFLqmUtlSIhFEqkbBFQd1LhqrNE6pIJApUUFLdAA/E2hoTqr3uip5dKuk6p1oGCmLS0VV8KBbphSFQQUEjujXlSBtBfRSkSdgnR0QBCNwq6JAIJDdUOborqkkA3ZPRQLF2qFIJdVphB9kNFoGE1hknZG4NeS29idlTZLfycp2sHoUDI3QFQGhUN0BRQd0Wi7SAIRFgJDraQNJAnmKC6U1qnaRNlAINopGqBULRSrlQgVBFAoJSQLYp89I90bdEBz6oSSNkUDSCglZKxtjc19uNlZLtFBRyoIQiEAQdEzdHRGtqggxbopZNlN2gmkVQQUUSgVotI6ItAwE60SG6onRBB30TSJCXNWyCyNFGl6pFxSIJQMkBBI6IDEVRRAFJvoso5Ui3XRFQFVaIrukSRsgpoKZpS156p2UC6oc7lrRImiPVVYcAgXNeyR1TISpAwAostNVoeqrZF6Ig90KSb30pPpe6CtCFNIB0QLtA60SulXukW6aIqCbKdaKQCN0wiDVS696WSwEiQQghpsJpEI1QNKtUHZKyig2lSu0EWghIC0yKTA+FBjIp1qgdEHZSEFI6qbKouoIG4KQ0VaZNhTdBAiE+iBqg1WiCbQEI1BQNIhNIoJQSg6pEUbRQLTCGocaQNGyB3QbRHaDqUuea0UklS5w2RCeXEfCrY4huqgCm69Uwb0QVet39EEmtEBqTZGOcQ03y7oKaCW2QmAT0Rz0NEwTSBcmtrG4uEgPQLMCmRaBVzC7SFjdMJG7sIKGuhToKQSdxqq6IBCVG7TQJQ75lTlKCHdT2WEs5yS7VbBGighBHNqKUONuV8tJcqBEAJbJkKd0CvsmgeqdIJUSfLosgbe6TgOiDVIQE5TR0SDSRaBHUIamAUw0hAvoghVSD7IMZUg2rpTRCB7jRQW83RWAU70QY+Xl0QmdSpO+qKSKVAdwitUCtItvVUW6IbdUogDbWHMxG5WJJCeose62QKBICbearIVg+fuYWOcx2jmmiFjroF7PifCMfLa6QMDJTrzDqvKz4zsWTllBHZaZsYA2glyC9lluPu6/QLNFjTyEckR5T1KHGuAAFu4ODJNKHPbQ6BdLC4HzU+U27su9jYbIWjQWi8aeHgNjaCRa6UQEdDoqIA2UuGnqorcaQRYVg0tWCQ8vKdCFms9CoMourKRCwytM0fLzU4HosptoAJsgIEALvW1SkDQEiiqQJK7Ru6rRSAKBqjekzugNldilB1CBogpzh0GqGFxHxgA30SGp9FeiAPokAbVIukB0UkoJJFIAqrQY9fMpWFXKA61HVBRprbKTG/uh1mvRNFBGqAT1QDamWw27qtSgqgd9lZ7KGnmaHDZOygdIpNFIFZ2TaEaJ2gR3VNNqHWToqApBShzi2zuqQQCiAHmFodoEAUEFFQ3WwdExYKDqUyaQG6AKSa6700CYOqAexsjS17Q5p6FYGRvxTTbkhPQ7tWwh2rSLq0C32SKe1BJwJGhpBNItPlcOoPuFLrG2qBkE7JNBsph3KNVbTYQS7alIGqyEKAgaAaRSNUDJsJdEVQUlAJEk6gIGqYtAdLJTJtOgnygoIo6pUVR0KSBboA1RRVN0CCTptaYTI13UoAlRzEkgdFZGtLFX+1Pb/KCEFWSmAjl7pgUgkphMi0kCcLQG0mhAjaQ1ConRK9KQQdEq1V0lsgkb0qR8x7KmizrugnVCyFtKSaQY6VNdW6d2FJCCiQSlSQVUglw7JsN7pnUoIAFWgZa1woqKDTojmI0q0gC49kRRN6qRaZCRsdEUboooBsqq0QYyz4rVNaAgmjqnaBkKaNpgqr0REEOKQsClaRpFRd7qQDastoo0RE8tFOk6tIhAlI7JkJBFOkiLTRdIhJqQbKooEVHxN9lkSIQYydUK+UJOaioOiBqgjRJEGye4QBe6oBBDTWiexT5RvSDoijQ69UjSfRSUQUghNHVFTSR2VEIQS1G4S60nSBE0gFB3QPVB2CBSXID7p60j4gUQi2gkAFTtSkAgYT5Q2+UVe6kHWk9UDbyjQpk2pLfVJoA3KCm2XK9lAOvwpmzugHIBRSA1A7JKsbJUE0Ao3V7JFBBUjdU4apBAEpIJS5h3QSVJKo6qCEElykG0y1MNCCatVVIrsn0QI7KCrdsprqgwOb8VpbLI8fEoKBJhJCB0luUJjbRBLm66KaWTpqp5tUCItJzO26ppsq+UHVBrkEaKS03dLYczW0uVBiAV0q5VQb2QYT2Ta2thuqLfiVDVAmtIGyKtWmBaDG5ttIXLnwxM6ntBr0Xa5dCtdzN3Wg50fCmD5oxXoFtxYkUew1Wdr3O6aK2MDnCzsgQjDapU34rHZZHUNFHLy690CIGilwvdNNw5ggkA3Y3WxGbCxsYLVMaWk+qDKBR0V0pGiq0A4pApFPogQFutZCFHRVZpAqQU0IJsFBFp0q6oG2gKTU9VSoGplSd01AtEWjdFKgOqmlVJblQJMIAVUgKrZHKHboJpIOs0ioha9r3hw+G/hWQ7pEoc0OAsn6IKtvdMURd2sYAqqVsoNpEMpKhqiqKKQCq9FDXFznCtG9UxaIoBUFIKdoBxUJndCCa1VuFpFPogmtCorqsuyncopApnZI10CNwgSYKKSKCwUEBY9ea1WqBEKRdmtFaQFElBRJA7qCVQ6pUEDa4FHVTy9kag0UDNpFovfRPmA0Km+ZABvLpdqlIcAa6qjqgdikrpSRSTSgfNaVaWqAFoIHRAgq6KAVV0gL0QCFNJEUgZNm1hceXMae7aWYarHkNt7HdigqyXeisqAaNJ3egQJ13ogp9ggoJB1QSmNk0E1olW+qtTsEQNHdS7dUHdCh4CKGkAKSTzWCgahAHdBkuxairSvlPoqB7IEUinuEqQIEKnXWm6YACCiIAd1KZFo16oRSCpqSNtkRVINJc2iRQAoboMgKh2ta7JVZRWT4XiwilLG8o3U2eYUiLNWgJH5kyCgaRGtoBs67p2gRCXLaspWgihaDuqISpBBCSolRuigkkaKQVYaUnNo6IEBujVPQIJ0QAOiCUgaTtAWpNlO0IhFuiVJlyNwgVBPRTdJE+iC7SIBGqlprRN7g1toDYJUkHBwsGwgG0U+u6KSpLZEUl7pc9JXaKDuhF6JA9EDCCgpFB1gTavfVRtumCiGSjSkVYS5aGiCmsAJKbqSadEboDZKgghMADcoBorYKtK3CQNhTyWgoOHNStYvLc3qsjUB13TtIpAIGSgkoNJEoDdFaKS4hPm0QTJfL8KxBtdVlcT0WPcnW0CtF90bIBBKCXaFCpwASBQIbpoBRSApNwCYpSTaDC8AFYissgWM7IJ1KYHdA1RqgKpMJhOkEO10WPl5TSzcl+6lzeh3QS0Uso2Uhtddk9CKQMhSQqcUgEEtBKqiqCCgxyNNaIjBqysg1T5aQQBqqaKQBZ0S5XAEXZtBkrRY3NHVZG7KZNDZQY6A2RVFVpVpUgl5IAQT9UzqNUqsdkA1ZGqWjRVRFUgyNAVVSkDRU1nUoFZJrYKwEEAikc2qB0OyVUqS3NIEFY3SIoIHdBdBYifi2VWbQgYqkAhJA3VFCvqmNtVIVaoBCAEa3ooDqhJptNAjadADUpqSLQBICObWqU0U6tFVVp8oQD0QdT1RCLdLS5hsr2IWNwAkFdd0FdEN1QQpFjVBkbobVHZS0qt0UDZLUFMGgjcWgVjqUwUi0OahEUdVKdqa1QOkyDSVqr0QShOrRSKmtEtldKDqUAdEvVUdlKA3QDSAnpSBWlrZVEBSOqAanWibG6J0gQKVWVVd0ad0EuA3UadAsjqKgDSkE8vqpL3tBrWllICRFDQIIa8uHxBWKSFKq0QCRQT0R1QTRu070VIABG6ACHm1N6Jg2PVAqUyWYz+qstQRYI9EEaEAjqEbG7SiPwV2VboD1Tu1BoBJhPVBY0QR6pE9FI2QUE1LdtEnHVAyBuoDrVA6JAABAJW7m6UqCCEC+bRUBQTaOqHoCkigJohWCEBOqRSBH+qWipIhBNBBaEIQCOiAny2N0VBCBomQQkiHYrdSPm0Q4WNCk3RBZc3mDeqqlru/it16rY1BKCSlzAbpk2ofqgq0jfRDdk6tAXaCkRSA5BjcHXsjleO2qskWmisQ5gdTardU4WFG3sgOW+qCEa7oQIqd1ZFpEIEDqqU7JoE4Up5hdBUSprXZAikrpIhBNUg+qdk+yOW0EhrWimjdHKbFJTOMMReGl1dApx8qLIsNtrxu0oMlJlqXVVeiiILUgFWqDaqkRokN07Uu0KCipKAbCKQdUnmKsahCEQnOrSrTaeZqEIEWnuhprcoQgUjy7RoTF1qhCBhWEIQPooNg7oQgyAqSaQhAkIQgC1S/QIQgkEoIAQhBBGimkIQBOii6KEIGDZ1VC0IQPokb26IQgxv2WOkIQHKny0hCAAVnRCECBSdW6EIIFkJoQgC20Vr6IQgZ2pLqhCCgRSYutdEIQS/mDDy7qmWR8R1QhBQSkotQhBiabHsrCEIJpMDVCED+VUEIQZAFY2QhAbJEXqhCChqEgdUIQNzrBCQ+GPXdCEEg2neqEIBUNkIVADRVoQgbjVAalJo69UIQHVPpSEIDUaJHRCECRVIQoHrSYNoQim5SBrfVCERdJEIQgAgD4t/ohCKaNkIRDSKEIAIQhAwNErQhBfMKU3qhCBG0kIRQUVohCIkp1ohCKQH7KGSc10hCDKw6I5haEIGVjN3uhCAJQhCBX3RuEIQSQRqFTSeqEIJc6nBoG6yVSEIEjZCEEsFWg6G0IRDBReqEIMQHK949VV0EIUVJcL1NKgKCEKhHZABDRe6EKIAaKKslCFVJJCFEMJlCEDBpM67IQqIOmqbT1QhAybNIQhAEIOyEIICLQhFFlF6oQoAu1pLdCFRJFlFUEIRGN2pHe1tEIQgxkUpuyhCBElHNW6EIKuwoI1QhAqJKdaoQgdqC1xcNfh7IQgdUhCEAUjoUIQQ+3DQ0kCQEIRReqaEIDojcIQgkaaJhCEETsMkDmNdyuOxUQQCGPmcGmTq4IQgyBwcNCL900IQSDqmhCBEKSNEIRA1CEIr//2Q==;" parent="1" vertex="1">
          <mxGeometry x="-540" y="150" width="1454" height="1080" as="geometry" />
        </mxCell>
        <mxCell id="ZFCfkoxtxYTRv5SqpdLA-2" value="" style="endArrow=classic;html=1;rounded=0;strokeColor=#00FFFF;strokeWidth=16;exitX=0.629;exitY=0.593;exitDx=0;exitDy=0;exitPerimeter=0;entryX=0.791;entryY=0.324;entryDx=0;entryDy=0;entryPerimeter=0;" parent="1" edge="1">
          <mxGeometry width="50" height="50" relative="1" as="geometry">
            <mxPoint x="250.00100000000066" y="520.36" as="sourcePoint" />
            <mxPoint x="630.1140000000005" y="440.00000000000006" as="targetPoint" />
          </mxGeometry>
        </mxCell>
        <mxCell id="Ne5W-O4hfC1uTNPVGv4H-1" value="" style="endArrow=none;html=1;rounded=0;strokeWidth=20;strokeColor=#00ff00;entryX=0.42;entryY=0.287;entryDx=0;entryDy=0;entryPerimeter=0;" edge="1" parent="1">
          <mxGeometry width="50" height="50" relative="1" as="geometry">
            <mxPoint x="124.32" y="513" as="sourcePoint" />
            <mxPoint x="70.00000000000006" y="464.9599999999999" as="targetPoint" />
          </mxGeometry>
        </mxCell>
        <mxCell id="Ne5W-O4hfC1uTNPVGv4H-2" value="" style="endArrow=none;html=1;rounded=0;strokeWidth=20;strokeColor=#ff0000;entryX=0.516;entryY=0.315;entryDx=0;entryDy=0;entryPerimeter=0;" edge="1" parent="1">
          <mxGeometry width="50" height="50" relative="1" as="geometry">
            <mxPoint x="119.88999999999993" y="515" as="sourcePoint" />
            <mxPoint x="212.58399999999966" y="495.20000000000005" as="targetPoint" />
          </mxGeometry>
        </mxCell>
        <mxCell id="Ne5W-O4hfC1uTNPVGv4H-3" value="" style="endArrow=none;html=1;rounded=0;strokeWidth=20;strokeColor=#0000ff;entryX=0.554;entryY=0.472;entryDx=0;entryDy=0;entryPerimeter=0;" edge="1" parent="1">
          <mxGeometry width="50" height="50" relative="1" as="geometry">
            <mxPoint x="126.88999999999993" y="525.24" as="sourcePoint" />
            <mxPoint x="128.32" y="435" as="targetPoint" />
          </mxGeometry>
        </mxCell>
        <mxCell id="Ne5W-O4hfC1uTNPVGv4H-4" value="&lt;font color=&quot;#9933ff&quot;&gt;&lt;b&gt;&lt;i style=&quot;&quot;&gt;&lt;font style=&quot;font-size: 50px;&quot;&gt;{s}&lt;/font&gt;&lt;/i&gt;&lt;/b&gt;&lt;/font&gt;" style="text;html=1;strokeColor=none;fillColor=none;align=center;verticalAlign=middle;whiteSpace=wrap;rounded=0;" vertex="1" parent="1">
          <mxGeometry x="122" y="535" width="60" height="30" as="geometry" />
        </mxCell>
        <mxCell id="Ne5W-O4hfC1uTNPVGv4H-7" value="&lt;b&gt;&lt;i style=&quot;&quot;&gt;&lt;font color=&quot;#00ffff&quot; style=&quot;font-size: 40px;&quot;&gt;Sa&lt;/font&gt;&lt;/i&gt;&lt;/b&gt;" style="text;html=1;strokeColor=none;fillColor=none;align=center;verticalAlign=middle;whiteSpace=wrap;rounded=0;strokeWidth=5;" vertex="1" parent="1">
          <mxGeometry x="480" y="410" width="60" height="30" as="geometry" />
        </mxCell>
      </root>
    </mxGraphModel>
  </diagram>
</mxfile>
